<?xml version="1.0" encoding="UTF-8" standalone="no"?><svg xmlns="http://www.w3.org/2000/svg" xmlns:xlink="http://www.w3.org/1999/xlink" clip-rule="evenodd" stroke-miterlimit="10" viewBox="0 0 237 24"><desc>SVG generated by Keynote</desc><defs></defs><g transform="matrix(1.00, 0.00, -0.00, -1.00, 0.0, 24.0)"><text xml:space="preserve" font-family="LucidaGrande,Lucida Grande" font-size="15.4" fill="#FEFFFE" transform="matrix(1.00, 0.00, -0.00, -1.00, 0.6, 8.2)">‣</text><text xml:space="preserve" font-family="Helvetica,Helvetica" font-size="22.0" fill="#FEFFFE" transform="matrix(1.00, 0.00, -0.00, -1.00, 14.1, 6.1)">n</text><text xml:space="preserve" font-family="Helvetica,Helvetica" font-size="22.0" fill="#FEFFFE" transform="matrix(1.00, 0.00, -0.00, -1.00, 26.4, 6.1)">e</text><text xml:space="preserve" font-family="Helvetica,Helvetica" font-size="22.0" fill="#FEFFFE" transform="matrix(1.00, 0.00, -0.00, -1.00, 38.6, 6.1)">t</text><text xml:space="preserve" font-family="Helvetica,Helvetica" font-size="22.0" fill="#FEFFFE" transform="matrix(1.00, 0.00, -0.00, -1.00, 44.7, 6.1)">w</text><text xml:space="preserve" font-family="Helvetica,Helvetica" font-size="22.0" fill="#FEFFFE" transform="matrix(1.00, 0.00, -0.00, -1.00, 60.6, 6.1)">o</text><text xml:space="preserve" font-family="Helvetica,Helvetica" font-size="22.0" fill="#FEFFFE" transform="matrix(1.00, 0.00, -0.00, -1.00, 72.8, 6.1)">r</text><text xml:space="preserve" font-family="Helvetica,Helvetica" font-size="22.0" fill="#FEFFFE" transform="matrix(1.00, 0.00, -0.00, -1.00, 80.2, 6.1)">k</text><text xml:space="preserve" font-family="Helvetica,Helvetica" font-size="22.0" fill="#FEFFFE" transform="matrix(1.00, 0.00, -0.00, -1.00, 91.2, 6.1)">i</text><text xml:space="preserve" font-family="Helvetica,Helvetica" font-size="22.0" fill="#FEFFFE" transform="matrix(1.00, 0.00, -0.00, -1.00, 96.1, 6.1)">n</text><text xml:space="preserve" font-family="Helvetica,Helvetica" font-size="22.0" fill="#FEFFFE" transform="matrix(1.00, 0.00, -0.00, -1.00, 108.3, 6.1)">g</text><text xml:space="preserve" font-family="Helvetica,Helvetica" font-size="22.0" fill="#FEFFFE" transform="matrix(1.00, 0.00, -0.00, -1.00, 120.5, 6.1)"> </text><text xml:space="preserve" font-family="Helvetica,Helvetica" font-size="22.0" fill="#FEFFFE" transform="matrix(1.00, 0.00, -0.00, -1.00, 126.6, 6.1)">c</text><text xml:space="preserve" font-family="Helvetica,Helvetica" font-size="22.0" fill="#FEFFFE" transform="matrix(1.00, 0.00, -0.00, -1.00, 137.6, 6.1)">o</text><text xml:space="preserve" font-family="Helvetica,Helvetica" font-size="22.0" fill="#FEFFFE" transform="matrix(1.00, 0.00, -0.00, -1.00, 149.9, 6.1)">m</text><text xml:space="preserve" font-family="Helvetica,Helvetica" font-size="22.0" fill="#FEFFFE" transform="matrix(1.00, 0.00, -0.00, -1.00, 168.2, 6.1)">p</text><text xml:space="preserve" font-family="Helvetica,Helvetica" font-size="22.0" fill="#FEFFFE" transform="matrix(1.00, 0.00, -0.00, -1.00, 180.5, 6.1)">o</text><text xml:space="preserve" font-family="Helvetica,Helvetica" font-size="22.0" fill="#FEFFFE" transform="matrix(1.00, 0.00, -0.00, -1.00, 192.7, 6.1)">n</text><text xml:space="preserve" font-family="Helvetica,Helvetica" font-size="22.0" fill="#FEFFFE" transform="matrix(1.00, 0.00, -0.00, -1.00, 204.9, 6.1)">e</text><text xml:space="preserve" font-family="Helvetica,Helvetica" font-size="22.0" fill="#FEFFFE" transform="matrix(1.00, 0.00, -0.00, -1.00, 217.2, 6.1)">n</text><text xml:space="preserve" font-family="Helvetica,Helvetica" font-size="22.0" fill="#FEFFFE" transform="matrix(1.00, 0.00, -0.00, -1.00, 229.4, 6.1)">t</text><text xml:space="preserve" font-family="Helvetica,Helvetica" font-size="22.0" fill="#FEFFFE" transform="matrix(1.00, 0.00, -0.00, -1.00, 235.5, 6.1)"> </text></g></svg>