<?xml version="1.0" encoding="UTF-8" standalone="no"?><svg xmlns="http://www.w3.org/2000/svg" xmlns:xlink="http://www.w3.org/1999/xlink" clip-rule="evenodd" stroke-miterlimit="10" viewBox="0 0 481 52"><desc>SVG generated by Keynote</desc><defs></defs><g transform="matrix(1.00, 0.00, -0.00, -1.00, 0.0, 52.0)"><text xml:space="preserve" font-family="Helvetica-Bold,Helvetica" font-weight="bold" font-size="63.0" fill="#5FCBC8" transform="matrix(1.00, 0.00, -0.00, -1.00, 1.0, 2.8)">W</text><text xml:space="preserve" font-family="Helvetica-Bold,Helvetica" font-weight="bold" font-size="63.0" fill="#5FCBC8" transform="matrix(1.00, 0.00, -0.00, -1.00, 59.2, 2.8)">E</text><text xml:space="preserve" font-family="Helvetica-Bold,Helvetica" font-weight="bold" font-size="63.0" fill="#5FCBC8" transform="matrix(1.00, 0.00, -0.00, -1.00, 99.9, 2.8)">B</text><text xml:space="preserve" font-family="Helvetica-Bold,Helvetica" font-weight="bold" font-size="63.0" fill="#5FCBC8" transform="matrix(1.00, 0.00, -0.00, -1.00, 144.2, 2.8)"> </text><text xml:space="preserve" font-family="Helvetica-Bold,Helvetica" font-weight="bold" font-size="63.0" fill="#5FCBC8" transform="matrix(1.00, 0.00, -0.00, -1.00, 160.4, 2.8)">B</text><text xml:space="preserve" font-family="Helvetica-Bold,Helvetica" font-weight="bold" font-size="63.0" fill="#5FCBC8" transform="matrix(1.00, 0.00, -0.00, -1.00, 204.6, 2.8)">R</text><text xml:space="preserve" font-family="Helvetica-Bold,Helvetica" font-weight="bold" font-size="63.0" fill="#5FCBC8" transform="matrix(1.00, 0.00, -0.00, -1.00, 248.8, 2.8)">O</text><text xml:space="preserve" font-family="Helvetica-Bold,Helvetica" font-weight="bold" font-size="63.0" fill="#5FCBC8" transform="matrix(1.00, 0.00, -0.00, -1.00, 296.6, 2.8)">W</text><text xml:space="preserve" font-family="Helvetica-Bold,Helvetica" font-weight="bold" font-size="63.0" fill="#5FCBC8" transform="matrix(1.00, 0.00, -0.00, -1.00, 354.8, 2.8)">S</text><text xml:space="preserve" font-family="Helvetica-Bold,Helvetica" font-weight="bold" font-size="63.0" fill="#5FCBC8" transform="matrix(1.00, 0.00, -0.00, -1.00, 395.5, 2.8)">E</text><text xml:space="preserve" font-family="Helvetica-Bold,Helvetica" font-weight="bold" font-size="63.0" fill="#5FCBC8" transform="matrix(1.00, 0.00, -0.00, -1.00, 436.3, 2.8)">R</text></g></svg>