<?xml version="1.0" encoding="UTF-8" standalone="no"?><svg xmlns="http://www.w3.org/2000/svg" xmlns:xlink="http://www.w3.org/1999/xlink" clip-rule="evenodd" stroke-miterlimit="10" viewBox="0 0 309 36"><desc>SVG generated by Keynote</desc><defs></defs><g transform="matrix(1.00, 0.00, -0.00, -1.00, 0.0, 36.0)"><text xml:space="preserve" font-family="Helvetica-Bold,Helvetica" font-weight="bold" font-size="43.0" fill="#5FCBC8" transform="matrix(1.00, 0.00, -0.00, -1.00, 0.6, 1.9)">C</text><text xml:space="preserve" font-family="Helvetica-Bold,Helvetica" font-weight="bold" font-size="43.0" fill="#5FCBC8" transform="matrix(1.00, 0.00, -0.00, -1.00, 31.6, 1.9)">O</text><text xml:space="preserve" font-family="Helvetica-Bold,Helvetica" font-weight="bold" font-size="43.0" fill="#5FCBC8" transform="matrix(1.00, 0.00, -0.00, -1.00, 65.1, 1.9)">M</text><text xml:space="preserve" font-family="Helvetica-Bold,Helvetica" font-weight="bold" font-size="43.0" fill="#5FCBC8" transform="matrix(1.00, 0.00, -0.00, -1.00, 100.9, 1.9)">P</text><text xml:space="preserve" font-family="Helvetica-Bold,Helvetica" font-weight="bold" font-size="43.0" fill="#5FCBC8" transform="matrix(1.00, 0.00, -0.00, -1.00, 129.6, 1.9)">O</text><text xml:space="preserve" font-family="Helvetica-Bold,Helvetica" font-weight="bold" font-size="43.0" fill="#5FCBC8" transform="matrix(1.00, 0.00, -0.00, -1.00, 163.0, 1.9)">N</text><text xml:space="preserve" font-family="Helvetica-Bold,Helvetica" font-weight="bold" font-size="43.0" fill="#5FCBC8" transform="matrix(1.00, 0.00, -0.00, -1.00, 194.1, 1.9)">E</text><text xml:space="preserve" font-family="Helvetica-Bold,Helvetica" font-weight="bold" font-size="43.0" fill="#5FCBC8" transform="matrix(1.00, 0.00, -0.00, -1.00, 222.8, 1.9)">N</text><text xml:space="preserve" font-family="Helvetica-Bold,Helvetica" font-weight="bold" font-size="43.0" fill="#5FCBC8" transform="matrix(1.00, 0.00, -0.00, -1.00, 253.8, 1.9)">T</text><text xml:space="preserve" font-family="Helvetica-Bold,Helvetica" font-weight="bold" font-size="43.0" fill="#5FCBC8" transform="matrix(1.00, 0.00, -0.00, -1.00, 280.1, 1.9)">S</text></g></svg>