<?xml version="1.0" encoding="UTF-8" standalone="no"?><svg xmlns="http://www.w3.org/2000/svg" xmlns:xlink="http://www.w3.org/1999/xlink" clip-rule="evenodd" stroke-miterlimit="10" viewBox="0 0 397 27"><desc>SVG generated by Keynote</desc><defs></defs><g transform="matrix(1.00, 0.00, -0.00, -1.00, 0.0, 27.0)"><text xml:space="preserve" font-family="LucidaGrande,Lucida Grande" font-size="19.6" fill="#FEFFFE" transform="matrix(1.00, 0.00, -0.00, -1.00, 0.1, 7.4)">‣</text><text xml:space="preserve" font-family="Helvetica,Helvetica" font-size="28.0" fill="#FEFFFE" transform="matrix(1.00, 0.00, -0.00, -1.00, 13.6, 4.2)">L</text><text xml:space="preserve" font-family="Helvetica,Helvetica" font-size="28.0" fill="#FEFFFE" transform="matrix(1.00, 0.00, -0.00, -1.00, 29.2, 4.2)">i</text><text xml:space="preserve" font-family="Helvetica,Helvetica" font-size="28.0" fill="#FEFFFE" transform="matrix(1.00, 0.00, -0.00, -1.00, 35.4, 4.2)">v</text><text xml:space="preserve" font-family="Helvetica,Helvetica" font-size="28.0" fill="#FEFFFE" transform="matrix(1.00, 0.00, -0.00, -1.00, 49.4, 4.2)">e</text><text xml:space="preserve" font-family="Helvetica,Helvetica" font-size="28.0" fill="#FEFFFE" transform="matrix(1.00, 0.00, -0.00, -1.00, 65.0, 4.2)"> </text><text xml:space="preserve" font-family="Helvetica,Helvetica" font-size="28.0" fill="#FEFFFE" transform="matrix(1.00, 0.00, -0.00, -1.00, 72.8, 4.2)">e</text><text xml:space="preserve" font-family="Helvetica,Helvetica" font-size="28.0" fill="#FEFFFE" transform="matrix(1.00, 0.00, -0.00, -1.00, 88.3, 4.2)">d</text><text xml:space="preserve" font-family="Helvetica,Helvetica" font-size="28.0" fill="#FEFFFE" transform="matrix(1.00, 0.00, -0.00, -1.00, 103.9, 4.2)">i</text><text xml:space="preserve" font-family="Helvetica,Helvetica" font-size="28.0" fill="#FEFFFE" transform="matrix(1.00, 0.00, -0.00, -1.00, 110.1, 4.2)">t</text><text xml:space="preserve" font-family="Helvetica,Helvetica" font-size="28.0" fill="#FEFFFE" transform="matrix(1.00, 0.00, -0.00, -1.00, 117.9, 4.2)">s</text><text xml:space="preserve" font-family="Helvetica,Helvetica" font-size="28.0" fill="#FEFFFE" transform="matrix(1.00, 0.00, -0.00, -1.00, 131.9, 4.2)"> </text><text xml:space="preserve" font-family="Helvetica,Helvetica" font-size="28.0" fill="#FEFFFE" transform="matrix(1.00, 0.00, -0.00, -1.00, 139.7, 4.2)">&amp;</text><text xml:space="preserve" font-family="Helvetica,Helvetica" font-size="28.0" fill="#FEFFFE" transform="matrix(1.00, 0.00, -0.00, -1.00, 158.4, 4.2)"> </text><text xml:space="preserve" font-family="Helvetica,Helvetica" font-size="28.0" fill="#FEFFFE" transform="matrix(1.00, 0.00, -0.00, -1.00, 164.6, 4.2)">A</text><text xml:space="preserve" font-family="Helvetica,Helvetica" font-size="28.0" fill="#FEFFFE" transform="matrix(1.00, 0.00, -0.00, -1.00, 183.3, 4.2)">U</text><text xml:space="preserve" font-family="Helvetica,Helvetica" font-size="28.0" fill="#FEFFFE" transform="matrix(1.00, 0.00, -0.00, -1.00, 203.5, 4.2)">T</text><text xml:space="preserve" font-family="Helvetica,Helvetica" font-size="28.0" fill="#FEFFFE" transform="matrix(1.00, 0.00, -0.00, -1.00, 220.1, 4.2)">O</text><text xml:space="preserve" font-family="Helvetica,Helvetica" font-size="28.0" fill="#FEFFFE" transform="matrix(1.00, 0.00, -0.00, -1.00, 241.9, 4.2)">C</text><text xml:space="preserve" font-family="Helvetica,Helvetica" font-size="28.0" fill="#FEFFFE" transform="matrix(1.00, 0.00, -0.00, -1.00, 262.1, 4.2)">O</text><text xml:space="preserve" font-family="Helvetica,Helvetica" font-size="28.0" fill="#FEFFFE" transform="matrix(1.00, 0.00, -0.00, -1.00, 283.9, 4.2)">M</text><text xml:space="preserve" font-family="Helvetica,Helvetica" font-size="28.0" fill="#FEFFFE" transform="matrix(1.00, 0.00, -0.00, -1.00, 307.2, 4.2)">P</text><text xml:space="preserve" font-family="Helvetica,Helvetica" font-size="28.0" fill="#FEFFFE" transform="matrix(1.00, 0.00, -0.00, -1.00, 325.9, 4.2)">L</text><text xml:space="preserve" font-family="Helvetica,Helvetica" font-size="28.0" fill="#FEFFFE" transform="matrix(1.00, 0.00, -0.00, -1.00, 341.5, 4.2)">E</text><text xml:space="preserve" font-family="Helvetica,Helvetica" font-size="28.0" fill="#FEFFFE" transform="matrix(1.00, 0.00, -0.00, -1.00, 360.1, 4.2)">T</text><text xml:space="preserve" font-family="Helvetica,Helvetica" font-size="28.0" fill="#FEFFFE" transform="matrix(1.00, 0.00, -0.00, -1.00, 377.2, 4.2)">E</text></g></svg>