<?xml version="1.0" encoding="UTF-8" standalone="no"?><svg xmlns="http://www.w3.org/2000/svg" xmlns:xlink="http://www.w3.org/1999/xlink" clip-rule="evenodd" stroke-miterlimit="10" viewBox="0 0 629 31"><desc>SVG generated by Keynote</desc><defs></defs><g transform="matrix(1.00, 0.00, -0.00, -1.00, 0.0, 31.0)"><text xml:space="preserve" font-family="LucidaGrande,Lucida Grande" font-size="19.6" fill="#FEFFFE" transform="matrix(1.00, 0.00, -0.00, -1.00, 0.1, 11.4)">‣</text><text xml:space="preserve" font-family="Helvetica,Helvetica" font-size="28.0" fill="#FEFFFE" transform="matrix(1.00, 0.00, -0.00, -1.00, 13.6, 8.2)">C</text><text xml:space="preserve" font-family="Helvetica,Helvetica" font-size="28.0" fill="#FEFFFE" transform="matrix(1.00, 0.00, -0.00, -1.00, 33.8, 8.2)">o</text><text xml:space="preserve" font-family="Helvetica,Helvetica" font-size="28.0" fill="#FEFFFE" transform="matrix(1.00, 0.00, -0.00, -1.00, 49.4, 8.2)">r</text><text xml:space="preserve" font-family="Helvetica,Helvetica" font-size="28.0" fill="#FEFFFE" transform="matrix(1.00, 0.00, -0.00, -1.00, 58.7, 8.2)">r</text><text xml:space="preserve" font-family="Helvetica,Helvetica" font-size="28.0" fill="#FEFFFE" transform="matrix(1.00, 0.00, -0.00, -1.00, 68.1, 8.2)">e</text><text xml:space="preserve" font-family="Helvetica,Helvetica" font-size="28.0" fill="#FEFFFE" transform="matrix(1.00, 0.00, -0.00, -1.00, 83.6, 8.2)">s</text><text xml:space="preserve" font-family="Helvetica,Helvetica" font-size="28.0" fill="#FEFFFE" transform="matrix(1.00, 0.00, -0.00, -1.00, 97.6, 8.2)">p</text><text xml:space="preserve" font-family="Helvetica,Helvetica" font-size="28.0" fill="#FEFFFE" transform="matrix(1.00, 0.00, -0.00, -1.00, 113.2, 8.2)">o</text><text xml:space="preserve" font-family="Helvetica,Helvetica" font-size="28.0" fill="#FEFFFE" transform="matrix(1.00, 0.00, -0.00, -1.00, 128.8, 8.2)">n</text><text xml:space="preserve" font-family="Helvetica,Helvetica" font-size="28.0" fill="#FEFFFE" transform="matrix(1.00, 0.00, -0.00, -1.00, 144.4, 8.2)">d</text><text xml:space="preserve" font-family="Helvetica,Helvetica" font-size="28.0" fill="#FEFFFE" transform="matrix(1.00, 0.00, -0.00, -1.00, 159.9, 8.2)">i</text><text xml:space="preserve" font-family="Helvetica,Helvetica" font-size="28.0" fill="#FEFFFE" transform="matrix(1.00, 0.00, -0.00, -1.00, 166.2, 8.2)">n</text><text xml:space="preserve" font-family="Helvetica,Helvetica" font-size="28.0" fill="#FEFFFE" transform="matrix(1.00, 0.00, -0.00, -1.00, 181.8, 8.2)">g</text><text xml:space="preserve" font-family="Helvetica,Helvetica" font-size="28.0" fill="#FEFFFE" transform="matrix(1.00, 0.00, -0.00, -1.00, 197.3, 8.2)"> </text><text xml:space="preserve" font-family="Helvetica,Helvetica" font-size="28.0" fill="#FEFFFE" transform="matrix(1.00, 0.00, -0.00, -1.00, 205.1, 8.2)">C</text><text xml:space="preserve" font-family="Helvetica,Helvetica" font-size="28.0" fill="#FEFFFE" transform="matrix(1.00, 0.00, -0.00, -1.00, 225.3, 8.2)">S</text><text xml:space="preserve" font-family="Helvetica,Helvetica" font-size="28.0" fill="#FEFFFE" transform="matrix(1.00, 0.00, -0.00, -1.00, 244.0, 8.2)">S</text><text xml:space="preserve" font-family="Helvetica,Helvetica" font-size="28.0" fill="#FEFFFE" transform="matrix(1.00, 0.00, -0.00, -1.00, 262.7, 8.2)"> </text><text xml:space="preserve" font-family="Helvetica,Helvetica" font-size="28.0" fill="#FEFFFE" transform="matrix(1.00, 0.00, -0.00, -1.00, 270.5, 8.2)">f</text><text xml:space="preserve" font-family="Helvetica,Helvetica" font-size="28.0" fill="#FEFFFE" transform="matrix(1.00, 0.00, -0.00, -1.00, 278.2, 8.2)">o</text><text xml:space="preserve" font-family="Helvetica,Helvetica" font-size="28.0" fill="#FEFFFE" transform="matrix(1.00, 0.00, -0.00, -1.00, 293.8, 8.2)">r</text><text xml:space="preserve" font-family="Helvetica,Helvetica" font-size="28.0" fill="#FEFFFE" transform="matrix(1.00, 0.00, -0.00, -1.00, 303.1, 8.2)"> </text><text xml:space="preserve" font-family="Helvetica,Helvetica" font-size="28.0" fill="#FEFFFE" transform="matrix(1.00, 0.00, -0.00, -1.00, 310.9, 8.2)">e</text><text xml:space="preserve" font-family="Helvetica,Helvetica" font-size="28.0" fill="#FEFFFE" transform="matrix(1.00, 0.00, -0.00, -1.00, 326.5, 8.2)">a</text><text xml:space="preserve" font-family="Helvetica,Helvetica" font-size="28.0" fill="#FEFFFE" transform="matrix(1.00, 0.00, -0.00, -1.00, 342.1, 8.2)">c</text><text xml:space="preserve" font-family="Helvetica,Helvetica" font-size="28.0" fill="#FEFFFE" transform="matrix(1.00, 0.00, -0.00, -1.00, 356.1, 8.2)">h</text><text xml:space="preserve" font-family="Helvetica,Helvetica" font-size="28.0" fill="#FEFFFE" transform="matrix(1.00, 0.00, -0.00, -1.00, 371.6, 8.2)"> </text><text xml:space="preserve" font-family="Helvetica,Helvetica" font-size="28.0" fill="#FEFFFE" transform="matrix(1.00, 0.00, -0.00, -1.00, 379.4, 8.2)">e</text><text xml:space="preserve" font-family="Helvetica,Helvetica" font-size="28.0" fill="#FEFFFE" transform="matrix(1.00, 0.00, -0.00, -1.00, 395.0, 8.2)">l</text><text xml:space="preserve" font-family="Helvetica,Helvetica" font-size="28.0" fill="#FEFFFE" transform="matrix(1.00, 0.00, -0.00, -1.00, 401.2, 8.2)">e</text><text xml:space="preserve" font-family="Helvetica,Helvetica" font-size="28.0" fill="#FEFFFE" transform="matrix(1.00, 0.00, -0.00, -1.00, 416.8, 8.2)">m</text><text xml:space="preserve" font-family="Helvetica,Helvetica" font-size="28.0" fill="#FEFFFE" transform="matrix(1.00, 0.00, -0.00, -1.00, 440.1, 8.2)">e</text><text xml:space="preserve" font-family="Helvetica,Helvetica" font-size="28.0" fill="#FEFFFE" transform="matrix(1.00, 0.00, -0.00, -1.00, 455.7, 8.2)">n</text><text xml:space="preserve" font-family="Helvetica,Helvetica" font-size="28.0" fill="#FEFFFE" transform="matrix(1.00, 0.00, -0.00, -1.00, 471.3, 8.2)">t</text><text xml:space="preserve" font-family="Helvetica,Helvetica" font-size="28.0" fill="#FEFFFE" transform="matrix(1.00, 0.00, -0.00, -1.00, 479.0, 8.2)"> </text><text xml:space="preserve" font-family="Helvetica,Helvetica" font-size="28.0" fill="#FEFFFE" transform="matrix(1.00, 0.00, -0.00, -1.00, 486.8, 8.2)">o</text><text xml:space="preserve" font-family="Helvetica,Helvetica" font-size="28.0" fill="#FEFFFE" transform="matrix(1.00, 0.00, -0.00, -1.00, 502.4, 8.2)">n</text><text xml:space="preserve" font-family="Helvetica,Helvetica" font-size="28.0" fill="#FEFFFE" transform="matrix(1.00, 0.00, -0.00, -1.00, 518.0, 8.2)"> </text><text xml:space="preserve" font-family="Helvetica,Helvetica" font-size="28.0" fill="#FEFFFE" transform="matrix(1.00, 0.00, -0.00, -1.00, 525.8, 8.2)">t</text><text xml:space="preserve" font-family="Helvetica,Helvetica" font-size="28.0" fill="#FEFFFE" transform="matrix(1.00, 0.00, -0.00, -1.00, 533.5, 8.2)">h</text><text xml:space="preserve" font-family="Helvetica,Helvetica" font-size="28.0" fill="#FEFFFE" transform="matrix(1.00, 0.00, -0.00, -1.00, 549.1, 8.2)">e</text><text xml:space="preserve" font-family="Helvetica,Helvetica" font-size="28.0" fill="#FEFFFE" transform="matrix(1.00, 0.00, -0.00, -1.00, 564.7, 8.2)"> </text><text xml:space="preserve" font-family="Helvetica,Helvetica" font-size="28.0" fill="#FEFFFE" transform="matrix(1.00, 0.00, -0.00, -1.00, 572.5, 8.2)">r</text><text xml:space="preserve" font-family="Helvetica,Helvetica" font-size="28.0" fill="#FEFFFE" transform="matrix(1.00, 0.00, -0.00, -1.00, 581.8, 8.2)">i</text><text xml:space="preserve" font-family="Helvetica,Helvetica" font-size="28.0" fill="#FEFFFE" transform="matrix(1.00, 0.00, -0.00, -1.00, 588.0, 8.2)">g</text><text xml:space="preserve" font-family="Helvetica,Helvetica" font-size="28.0" fill="#FEFFFE" transform="matrix(1.00, 0.00, -0.00, -1.00, 603.6, 8.2)">h</text><text xml:space="preserve" font-family="Helvetica,Helvetica" font-size="28.0" fill="#FEFFFE" transform="matrix(1.00, 0.00, -0.00, -1.00, 619.2, 8.2)">t</text></g></svg>