<?xml version="1.0" encoding="UTF-8" standalone="no"?><svg xmlns="http://www.w3.org/2000/svg" xmlns:xlink="http://www.w3.org/1999/xlink" clip-rule="evenodd" stroke-miterlimit="10" viewBox="0 0 886 31"><desc>SVG generated by Keynote</desc><defs></defs><g transform="matrix(1.00, 0.00, -0.00, -1.00, 0.0, 31.0)"><text xml:space="preserve" font-family="LucidaGrande,Lucida Grande" font-size="19.6" fill="#FEFFFE" transform="matrix(1.00, 0.00, -0.00, -1.00, 0.1, 11.4)">‣</text><text xml:space="preserve" font-family="Helvetica,Helvetica" font-size="28.0" fill="#FEFFFE" transform="matrix(1.00, 0.00, -0.00, -1.00, 13.6, 8.2)">E</text><text xml:space="preserve" font-family="Helvetica,Helvetica" font-size="28.0" fill="#FEFFFE" transform="matrix(1.00, 0.00, -0.00, -1.00, 32.3, 8.2)">a</text><text xml:space="preserve" font-family="Helvetica,Helvetica" font-size="28.0" fill="#FEFFFE" transform="matrix(1.00, 0.00, -0.00, -1.00, 47.9, 8.2)">c</text><text xml:space="preserve" font-family="Helvetica,Helvetica" font-size="28.0" fill="#FEFFFE" transform="matrix(1.00, 0.00, -0.00, -1.00, 61.9, 8.2)">h</text><text xml:space="preserve" font-family="Helvetica,Helvetica" font-size="28.0" fill="#FEFFFE" transform="matrix(1.00, 0.00, -0.00, -1.00, 77.4, 8.2)"> </text><text xml:space="preserve" font-family="Helvetica,Helvetica" font-size="28.0" fill="#FEFFFE" transform="matrix(1.00, 0.00, -0.00, -1.00, 85.2, 8.2)">t</text><text xml:space="preserve" font-family="Helvetica,Helvetica" font-size="28.0" fill="#FEFFFE" transform="matrix(1.00, 0.00, -0.00, -1.00, 93.0, 8.2)">i</text><text xml:space="preserve" font-family="Helvetica,Helvetica" font-size="28.0" fill="#FEFFFE" transform="matrix(1.00, 0.00, -0.00, -1.00, 99.2, 8.2)">m</text><text xml:space="preserve" font-family="Helvetica,Helvetica" font-size="28.0" fill="#FEFFFE" transform="matrix(1.00, 0.00, -0.00, -1.00, 122.5, 8.2)">e</text><text xml:space="preserve" font-family="Helvetica,Helvetica" font-size="28.0" fill="#FEFFFE" transform="matrix(1.00, 0.00, -0.00, -1.00, 138.1, 8.2)"> </text><text xml:space="preserve" font-family="Helvetica,Helvetica" font-size="28.0" fill="#FEFFFE" transform="matrix(1.00, 0.00, -0.00, -1.00, 145.9, 8.2)">a</text><text xml:space="preserve" font-family="Helvetica,Helvetica" font-size="28.0" fill="#FEFFFE" transform="matrix(1.00, 0.00, -0.00, -1.00, 161.5, 8.2)">n</text><text xml:space="preserve" font-family="Helvetica,Helvetica" font-size="28.0" fill="#FEFFFE" transform="matrix(1.00, 0.00, -0.00, -1.00, 177.0, 8.2)"> </text><text xml:space="preserve" font-family="Helvetica,Helvetica" font-size="28.0" fill="#FEFFFE" transform="matrix(1.00, 0.00, -0.00, -1.00, 184.8, 8.2)">e</text><text xml:space="preserve" font-family="Helvetica,Helvetica" font-size="28.0" fill="#FEFFFE" transform="matrix(1.00, 0.00, -0.00, -1.00, 200.4, 8.2)">l</text><text xml:space="preserve" font-family="Helvetica,Helvetica" font-size="28.0" fill="#FEFFFE" transform="matrix(1.00, 0.00, -0.00, -1.00, 206.6, 8.2)">e</text><text xml:space="preserve" font-family="Helvetica,Helvetica" font-size="28.0" fill="#FEFFFE" transform="matrix(1.00, 0.00, -0.00, -1.00, 222.2, 8.2)">m</text><text xml:space="preserve" font-family="Helvetica,Helvetica" font-size="28.0" fill="#FEFFFE" transform="matrix(1.00, 0.00, -0.00, -1.00, 245.5, 8.2)">e</text><text xml:space="preserve" font-family="Helvetica,Helvetica" font-size="28.0" fill="#FEFFFE" transform="matrix(1.00, 0.00, -0.00, -1.00, 261.1, 8.2)">n</text><text xml:space="preserve" font-family="Helvetica,Helvetica" font-size="28.0" fill="#FEFFFE" transform="matrix(1.00, 0.00, -0.00, -1.00, 276.7, 8.2)">t</text><text xml:space="preserve" font-family="Helvetica,Helvetica" font-size="28.0" fill="#FEFFFE" transform="matrix(1.00, 0.00, -0.00, -1.00, 284.5, 8.2)"> </text><text xml:space="preserve" font-family="Helvetica,Helvetica" font-size="28.0" fill="#FEFFFE" transform="matrix(1.00, 0.00, -0.00, -1.00, 292.2, 8.2)">i</text><text xml:space="preserve" font-family="Helvetica,Helvetica" font-size="28.0" fill="#FEFFFE" transform="matrix(1.00, 0.00, -0.00, -1.00, 298.5, 8.2)">s</text><text xml:space="preserve" font-family="Helvetica,Helvetica" font-size="28.0" fill="#FEFFFE" transform="matrix(1.00, 0.00, -0.00, -1.00, 312.5, 8.2)"> </text><text xml:space="preserve" font-family="Helvetica,Helvetica" font-size="28.0" fill="#FEFFFE" transform="matrix(1.00, 0.00, -0.00, -1.00, 320.2, 8.2)">s</text><text xml:space="preserve" font-family="Helvetica,Helvetica" font-size="28.0" fill="#FEFFFE" transform="matrix(1.00, 0.00, -0.00, -1.00, 334.2, 8.2)">e</text><text xml:space="preserve" font-family="Helvetica,Helvetica" font-size="28.0" fill="#FEFFFE" transform="matrix(1.00, 0.00, -0.00, -1.00, 349.8, 8.2)">l</text><text xml:space="preserve" font-family="Helvetica,Helvetica" font-size="28.0" fill="#FEFFFE" transform="matrix(1.00, 0.00, -0.00, -1.00, 356.0, 8.2)">e</text><text xml:space="preserve" font-family="Helvetica,Helvetica" font-size="28.0" fill="#FEFFFE" transform="matrix(1.00, 0.00, -0.00, -1.00, 371.6, 8.2)">c</text><text xml:space="preserve" font-family="Helvetica,Helvetica" font-size="28.0" fill="#FEFFFE" transform="matrix(1.00, 0.00, -0.00, -1.00, 385.6, 8.2)">t</text><text xml:space="preserve" font-family="Helvetica,Helvetica" font-size="28.0" fill="#FEFFFE" transform="matrix(1.00, 0.00, -0.00, -1.00, 393.4, 8.2)">e</text><text xml:space="preserve" font-family="Helvetica,Helvetica" font-size="28.0" fill="#FEFFFE" transform="matrix(1.00, 0.00, -0.00, -1.00, 409.0, 8.2)">d</text><text xml:space="preserve" font-family="Helvetica,Helvetica" font-size="28.0" fill="#FEFFFE" transform="matrix(1.00, 0.00, -0.00, -1.00, 424.5, 8.2)">,</text><text xml:space="preserve" font-family="Helvetica,Helvetica" font-size="28.0" fill="#FEFFFE" transform="matrix(1.00, 0.00, -0.00, -1.00, 432.3, 8.2)"> </text><text xml:space="preserve" font-family="Helvetica,Helvetica" font-size="28.0" fill="#FEFFFE" transform="matrix(1.00, 0.00, -0.00, -1.00, 440.1, 8.2)">t</text><text xml:space="preserve" font-family="Helvetica,Helvetica" font-size="28.0" fill="#FEFFFE" transform="matrix(1.00, 0.00, -0.00, -1.00, 447.9, 8.2)">h</text><text xml:space="preserve" font-family="Helvetica,Helvetica" font-size="28.0" fill="#FEFFFE" transform="matrix(1.00, 0.00, -0.00, -1.00, 463.4, 8.2)">e</text><text xml:space="preserve" font-family="Helvetica,Helvetica" font-size="28.0" fill="#FEFFFE" transform="matrix(1.00, 0.00, -0.00, -1.00, 479.0, 8.2)"> </text><text xml:space="preserve" font-family="Helvetica,Helvetica" font-size="28.0" fill="#FEFFFE" transform="matrix(1.00, 0.00, -0.00, -1.00, 486.8, 8.2)">c</text><text xml:space="preserve" font-family="Helvetica,Helvetica" font-size="28.0" fill="#FEFFFE" transform="matrix(1.00, 0.00, -0.00, -1.00, 500.8, 8.2)">o</text><text xml:space="preserve" font-family="Helvetica,Helvetica" font-size="28.0" fill="#FEFFFE" transform="matrix(1.00, 0.00, -0.00, -1.00, 516.4, 8.2)">r</text><text xml:space="preserve" font-family="Helvetica,Helvetica" font-size="28.0" fill="#FEFFFE" transform="matrix(1.00, 0.00, -0.00, -1.00, 525.7, 8.2)">r</text><text xml:space="preserve" font-family="Helvetica,Helvetica" font-size="28.0" fill="#FEFFFE" transform="matrix(1.00, 0.00, -0.00, -1.00, 535.0, 8.2)">e</text><text xml:space="preserve" font-family="Helvetica,Helvetica" font-size="28.0" fill="#FEFFFE" transform="matrix(1.00, 0.00, -0.00, -1.00, 550.6, 8.2)">s</text><text xml:space="preserve" font-family="Helvetica,Helvetica" font-size="28.0" fill="#FEFFFE" transform="matrix(1.00, 0.00, -0.00, -1.00, 564.6, 8.2)">p</text><text xml:space="preserve" font-family="Helvetica,Helvetica" font-size="28.0" fill="#FEFFFE" transform="matrix(1.00, 0.00, -0.00, -1.00, 580.2, 8.2)">o</text><text xml:space="preserve" font-family="Helvetica,Helvetica" font-size="28.0" fill="#FEFFFE" transform="matrix(1.00, 0.00, -0.00, -1.00, 595.7, 8.2)">n</text><text xml:space="preserve" font-family="Helvetica,Helvetica" font-size="28.0" fill="#FEFFFE" transform="matrix(1.00, 0.00, -0.00, -1.00, 611.3, 8.2)">d</text><text xml:space="preserve" font-family="Helvetica,Helvetica" font-size="28.0" fill="#FEFFFE" transform="matrix(1.00, 0.00, -0.00, -1.00, 626.9, 8.2)">i</text><text xml:space="preserve" font-family="Helvetica,Helvetica" font-size="28.0" fill="#FEFFFE" transform="matrix(1.00, 0.00, -0.00, -1.00, 633.1, 8.2)">n</text><text xml:space="preserve" font-family="Helvetica,Helvetica" font-size="28.0" fill="#FEFFFE" transform="matrix(1.00, 0.00, -0.00, -1.00, 648.7, 8.2)">g</text><text xml:space="preserve" font-family="Helvetica,Helvetica" font-size="28.0" fill="#FEFFFE" transform="matrix(1.00, 0.00, -0.00, -1.00, 664.3, 8.2)"> </text><text xml:space="preserve" font-family="Helvetica,Helvetica" font-size="28.0" fill="#FEFFFE" transform="matrix(1.00, 0.00, -0.00, -1.00, 672.1, 8.2)">C</text><text xml:space="preserve" font-family="Helvetica,Helvetica" font-size="28.0" fill="#FEFFFE" transform="matrix(1.00, 0.00, -0.00, -1.00, 692.3, 8.2)">S</text><text xml:space="preserve" font-family="Helvetica,Helvetica" font-size="28.0" fill="#FEFFFE" transform="matrix(1.00, 0.00, -0.00, -1.00, 711.0, 8.2)">S</text><text xml:space="preserve" font-family="Helvetica,Helvetica" font-size="28.0" fill="#FEFFFE" transform="matrix(1.00, 0.00, -0.00, -1.00, 729.6, 8.2)"> </text><text xml:space="preserve" font-family="Helvetica,Helvetica" font-size="28.0" fill="#FEFFFE" transform="matrix(1.00, 0.00, -0.00, -1.00, 737.4, 8.2)">i</text><text xml:space="preserve" font-family="Helvetica,Helvetica" font-size="28.0" fill="#FEFFFE" transform="matrix(1.00, 0.00, -0.00, -1.00, 743.6, 8.2)">s</text><text xml:space="preserve" font-family="Helvetica,Helvetica" font-size="28.0" fill="#FEFFFE" transform="matrix(1.00, 0.00, -0.00, -1.00, 757.6, 8.2)"> </text><text xml:space="preserve" font-family="Helvetica,Helvetica" font-size="28.0" fill="#FEFFFE" transform="matrix(1.00, 0.00, -0.00, -1.00, 765.4, 8.2)">d</text><text xml:space="preserve" font-family="Helvetica,Helvetica" font-size="28.0" fill="#FEFFFE" transform="matrix(1.00, 0.00, -0.00, -1.00, 781.0, 8.2)">i</text><text xml:space="preserve" font-family="Helvetica,Helvetica" font-size="28.0" fill="#FEFFFE" transform="matrix(1.00, 0.00, -0.00, -1.00, 787.2, 8.2)">s</text><text xml:space="preserve" font-family="Helvetica,Helvetica" font-size="28.0" fill="#FEFFFE" transform="matrix(1.00, 0.00, -0.00, -1.00, 801.2, 8.2)">p</text><text xml:space="preserve" font-family="Helvetica,Helvetica" font-size="28.0" fill="#FEFFFE" transform="matrix(1.00, 0.00, -0.00, -1.00, 816.8, 8.2)">l</text><text xml:space="preserve" font-family="Helvetica,Helvetica" font-size="28.0" fill="#FEFFFE" transform="matrix(1.00, 0.00, -0.00, -1.00, 823.0, 8.2)">a</text><text xml:space="preserve" font-family="Helvetica,Helvetica" font-size="28.0" fill="#FEFFFE" transform="matrix(1.00, 0.00, -0.00, -1.00, 838.6, 8.2)">y</text><text xml:space="preserve" font-family="Helvetica,Helvetica" font-size="28.0" fill="#FEFFFE" transform="matrix(1.00, 0.00, -0.00, -1.00, 852.6, 8.2)">e</text><text xml:space="preserve" font-family="Helvetica,Helvetica" font-size="28.0" fill="#FEFFFE" transform="matrix(1.00, 0.00, -0.00, -1.00, 868.2, 8.2)">d</text><text xml:space="preserve" font-family="Helvetica,Helvetica" font-size="28.0" fill="#FEFFFE" transform="matrix(1.00, 0.00, -0.00, -1.00, 883.8, 8.2)"> </text></g></svg>