<?xml version="1.0" encoding="UTF-8" standalone="no"?><svg xmlns="http://www.w3.org/2000/svg" xmlns:xlink="http://www.w3.org/1999/xlink" clip-rule="evenodd" stroke-miterlimit="10" viewBox="0 0 900 80"><desc>SVG generated by Keynote</desc><defs></defs><g transform="matrix(1.00, 0.00, -0.00, -1.00, 0.0, 80.0)"><text xml:space="preserve" font-family="Helvetica-Bold,Helvetica" font-weight="bold" font-size="35.0" fill="#C82505" transform="matrix(1.00, 0.00, -0.00, -1.00, -0.9, 51.8)">E</text><text xml:space="preserve" font-family="Helvetica-Bold,Helvetica" font-weight="bold" font-size="35.0" fill="#C82505" transform="matrix(1.00, 0.00, -0.00, -1.00, 22.4, 51.8)">L</text><text xml:space="preserve" font-family="Helvetica-Bold,Helvetica" font-weight="bold" font-size="35.0" fill="#C82505" transform="matrix(1.00, 0.00, -0.00, -1.00, 43.8, 51.8)">E</text><text xml:space="preserve" font-family="Helvetica-Bold,Helvetica" font-weight="bold" font-size="35.0" fill="#C82505" transform="matrix(1.00, 0.00, -0.00, -1.00, 67.1, 51.8)">M</text><text xml:space="preserve" font-family="Helvetica-Bold,Helvetica" font-weight="bold" font-size="35.0" fill="#C82505" transform="matrix(1.00, 0.00, -0.00, -1.00, 96.3, 51.8)">E</text><text xml:space="preserve" font-family="Helvetica-Bold,Helvetica" font-weight="bold" font-size="35.0" fill="#C82505" transform="matrix(1.00, 0.00, -0.00, -1.00, 119.6, 51.8)">N</text><text xml:space="preserve" font-family="Helvetica-Bold,Helvetica" font-weight="bold" font-size="35.0" fill="#C82505" transform="matrix(1.00, 0.00, -0.00, -1.00, 144.9, 51.8)">T</text><text xml:space="preserve" font-family="Helvetica-Bold,Helvetica" font-weight="bold" font-size="35.0" fill="#C82505" transform="matrix(1.00, 0.00, -0.00, -1.00, 166.3, 51.8)">S</text><text xml:space="preserve" font-family="Helvetica-Bold,Helvetica" font-weight="bold" font-size="35.0" fill="#74F6F4" transform="matrix(1.00, 0.00, -0.00, -1.00, 189.6, 51.8)"> </text><text xml:space="preserve" font-family="Helvetica-Bold,Helvetica" font-weight="bold" font-size="35.0" fill="#74F6F4" transform="matrix(1.00, 0.00, -0.00, -1.00, 199.4, 51.8)">-</text><text xml:space="preserve" font-family="Helvetica-Bold,Helvetica" font-weight="bold" font-size="35.0" fill="#74F6F4" transform="matrix(1.00, 0.00, -0.00, -1.00, 211.0, 51.8)"> </text><text xml:space="preserve" font-family="Helvetica-Bold,Helvetica" font-weight="bold" font-size="35.0" fill="#74F6F4" transform="matrix(1.00, 0.00, -0.00, -1.00, 220.7, 51.8)">W</text><text xml:space="preserve" font-family="Helvetica-Bold,Helvetica" font-weight="bold" font-size="35.0" fill="#74F6F4" transform="matrix(1.00, 0.00, -0.00, -1.00, 253.8, 51.8)">h</text><text xml:space="preserve" font-family="Helvetica-Bold,Helvetica" font-weight="bold" font-size="35.0" fill="#74F6F4" transform="matrix(1.00, 0.00, -0.00, -1.00, 275.1, 51.8)">a</text><text xml:space="preserve" font-family="Helvetica-Bold,Helvetica" font-weight="bold" font-size="35.0" fill="#74F6F4" transform="matrix(1.00, 0.00, -0.00, -1.00, 294.6, 51.8)">t</text><text xml:space="preserve" font-family="Helvetica-Bold,Helvetica" font-weight="bold" font-size="35.0" fill="#74F6F4" transform="matrix(1.00, 0.00, -0.00, -1.00, 306.3, 51.8)"> </text><text xml:space="preserve" font-family="Helvetica-Bold,Helvetica" font-weight="bold" font-size="35.0" fill="#74F6F4" transform="matrix(1.00, 0.00, -0.00, -1.00, 316.0, 51.8)">h</text><text xml:space="preserve" font-family="Helvetica-Bold,Helvetica" font-weight="bold" font-size="35.0" fill="#74F6F4" transform="matrix(1.00, 0.00, -0.00, -1.00, 337.3, 51.8)">a</text><text xml:space="preserve" font-family="Helvetica-Bold,Helvetica" font-weight="bold" font-size="35.0" fill="#74F6F4" transform="matrix(1.00, 0.00, -0.00, -1.00, 356.8, 51.8)">v</text><text xml:space="preserve" font-family="Helvetica-Bold,Helvetica" font-weight="bold" font-size="35.0" fill="#74F6F4" transform="matrix(1.00, 0.00, -0.00, -1.00, 376.3, 51.8)">e</text><text xml:space="preserve" font-family="Helvetica-Bold,Helvetica" font-weight="bold" font-size="35.0" fill="#74F6F4" transform="matrix(1.00, 0.00, -0.00, -1.00, 395.8, 51.8)"> </text><text xml:space="preserve" font-family="Helvetica-Bold,Helvetica" font-weight="bold" font-size="35.0" fill="#74F6F4" transform="matrix(1.00, 0.00, -0.00, -1.00, 405.5, 51.8)">y</text><text xml:space="preserve" font-family="Helvetica-Bold,Helvetica" font-weight="bold" font-size="35.0" fill="#74F6F4" transform="matrix(1.00, 0.00, -0.00, -1.00, 425.0, 51.8)">o</text><text xml:space="preserve" font-family="Helvetica-Bold,Helvetica" font-weight="bold" font-size="35.0" fill="#74F6F4" transform="matrix(1.00, 0.00, -0.00, -1.00, 446.3, 51.8)">u</text><text xml:space="preserve" font-family="Helvetica-Bold,Helvetica" font-weight="bold" font-size="35.0" fill="#74F6F4" transform="matrix(1.00, 0.00, -0.00, -1.00, 467.7, 51.8)"> </text><text xml:space="preserve" font-family="Helvetica-Bold,Helvetica" font-weight="bold" font-size="35.0" fill="#74F6F4" transform="matrix(1.00, 0.00, -0.00, -1.00, 477.4, 51.8)">l</text><text xml:space="preserve" font-family="Helvetica-Bold,Helvetica" font-weight="bold" font-size="35.0" fill="#74F6F4" transform="matrix(1.00, 0.00, -0.00, -1.00, 487.1, 51.8)">e</text><text xml:space="preserve" font-family="Helvetica-Bold,Helvetica" font-weight="bold" font-size="35.0" fill="#74F6F4" transform="matrix(1.00, 0.00, -0.00, -1.00, 506.6, 51.8)">a</text><text xml:space="preserve" font-family="Helvetica-Bold,Helvetica" font-weight="bold" font-size="35.0" fill="#74F6F4" transform="matrix(1.00, 0.00, -0.00, -1.00, 526.1, 51.8)">r</text><text xml:space="preserve" font-family="Helvetica-Bold,Helvetica" font-weight="bold" font-size="35.0" fill="#74F6F4" transform="matrix(1.00, 0.00, -0.00, -1.00, 539.7, 51.8)">n</text><text xml:space="preserve" font-family="Helvetica-Bold,Helvetica" font-weight="bold" font-size="35.0" fill="#74F6F4" transform="matrix(1.00, 0.00, -0.00, -1.00, 561.1, 51.8)">e</text><text xml:space="preserve" font-family="Helvetica-Bold,Helvetica" font-weight="bold" font-size="35.0" fill="#74F6F4" transform="matrix(1.00, 0.00, -0.00, -1.00, 580.5, 51.8)">d</text><text xml:space="preserve" font-family="Helvetica-Bold,Helvetica" font-weight="bold" font-size="35.0" fill="#74F6F4" transform="matrix(1.00, 0.00, -0.00, -1.00, 601.9, 51.8)"> </text><text xml:space="preserve" font-family="Helvetica-Bold,Helvetica" font-weight="bold" font-size="35.0" fill="#74F6F4" transform="matrix(1.00, 0.00, -0.00, -1.00, 611.6, 51.8)">f</text><text xml:space="preserve" font-family="Helvetica-Bold,Helvetica" font-weight="bold" font-size="35.0" fill="#74F6F4" transform="matrix(1.00, 0.00, -0.00, -1.00, 623.3, 51.8)">r</text><text xml:space="preserve" font-family="Helvetica-Bold,Helvetica" font-weight="bold" font-size="35.0" fill="#74F6F4" transform="matrix(1.00, 0.00, -0.00, -1.00, 636.9, 51.8)">o</text><text xml:space="preserve" font-family="Helvetica-Bold,Helvetica" font-weight="bold" font-size="35.0" fill="#74F6F4" transform="matrix(1.00, 0.00, -0.00, -1.00, 658.3, 51.8)">m</text><text xml:space="preserve" font-family="Helvetica-Bold,Helvetica" font-weight="bold" font-size="35.0" fill="#74F6F4" transform="matrix(1.00, 0.00, -0.00, -1.00, 689.4, 51.8)"> </text><text xml:space="preserve" font-family="Helvetica-Bold,Helvetica" font-weight="bold" font-size="35.0" fill="#74F6F4" transform="matrix(1.00, 0.00, -0.00, -1.00, 699.1, 51.8)">r</text><text xml:space="preserve" font-family="Helvetica-Bold,Helvetica" font-weight="bold" font-size="35.0" fill="#74F6F4" transform="matrix(1.00, 0.00, -0.00, -1.00, 712.8, 51.8)">e</text><text xml:space="preserve" font-family="Helvetica-Bold,Helvetica" font-weight="bold" font-size="35.0" fill="#74F6F4" transform="matrix(1.00, 0.00, -0.00, -1.00, 732.2, 51.8)">s</text><text xml:space="preserve" font-family="Helvetica-Bold,Helvetica" font-weight="bold" font-size="35.0" fill="#74F6F4" transform="matrix(1.00, 0.00, -0.00, -1.00, 751.7, 51.8)">e</text><text xml:space="preserve" font-family="Helvetica-Bold,Helvetica" font-weight="bold" font-size="35.0" fill="#74F6F4" transform="matrix(1.00, 0.00, -0.00, -1.00, 771.2, 51.8)">a</text><text xml:space="preserve" font-family="Helvetica-Bold,Helvetica" font-weight="bold" font-size="35.0" fill="#74F6F4" transform="matrix(1.00, 0.00, -0.00, -1.00, 790.7, 51.8)">r</text><text xml:space="preserve" font-family="Helvetica-Bold,Helvetica" font-weight="bold" font-size="35.0" fill="#74F6F4" transform="matrix(1.00, 0.00, -0.00, -1.00, 804.3, 51.8)">c</text><text xml:space="preserve" font-family="Helvetica-Bold,Helvetica" font-weight="bold" font-size="35.0" fill="#74F6F4" transform="matrix(1.00, 0.00, -0.00, -1.00, 823.8, 51.8)">h</text><text xml:space="preserve" font-family="Helvetica-Bold,Helvetica" font-weight="bold" font-size="35.0" fill="#74F6F4" transform="matrix(1.00, 0.00, -0.00, -1.00, 845.1, 51.8)">i</text><text xml:space="preserve" font-family="Helvetica-Bold,Helvetica" font-weight="bold" font-size="35.0" fill="#74F6F4" transform="matrix(1.00, 0.00, -0.00, -1.00, 854.8, 51.8)">n</text><text xml:space="preserve" font-family="Helvetica-Bold,Helvetica" font-weight="bold" font-size="35.0" fill="#74F6F4" transform="matrix(1.00, 0.00, -0.00, -1.00, 876.2, 51.8)">g</text><text xml:space="preserve" font-family="Helvetica-Bold,Helvetica" font-weight="bold" font-size="35.0" fill="#74F6F4" transform="matrix(1.00, 0.00, -0.00, -1.00, 897.6, 51.8)"> </text><text xml:space="preserve" font-family="Helvetica-Bold,Helvetica" font-weight="bold" font-size="35.0" fill="#74F6F4" transform="matrix(1.00, 0.00, -0.00, -1.00, -0.9, 9.8)">i</text><text xml:space="preserve" font-family="Helvetica-Bold,Helvetica" font-weight="bold" font-size="35.0" fill="#74F6F4" transform="matrix(1.00, 0.00, -0.00, -1.00, 8.8, 9.8)">n</text><text xml:space="preserve" font-family="Helvetica-Bold,Helvetica" font-weight="bold" font-size="35.0" fill="#74F6F4" transform="matrix(1.00, 0.00, -0.00, -1.00, 30.2, 9.8)"> </text><text xml:space="preserve" font-family="Helvetica-Bold,Helvetica" font-weight="bold" font-size="35.0" fill="#74F6F4" transform="matrix(1.00, 0.00, -0.00, -1.00, 39.9, 9.8)">p</text><text xml:space="preserve" font-family="Helvetica-Bold,Helvetica" font-weight="bold" font-size="35.0" fill="#74F6F4" transform="matrix(1.00, 0.00, -0.00, -1.00, 61.2, 9.8)">a</text><text xml:space="preserve" font-family="Helvetica-Bold,Helvetica" font-weight="bold" font-size="35.0" fill="#74F6F4" transform="matrix(1.00, 0.00, -0.00, -1.00, 80.7, 9.8)">i</text><text xml:space="preserve" font-family="Helvetica-Bold,Helvetica" font-weight="bold" font-size="35.0" fill="#74F6F4" transform="matrix(1.00, 0.00, -0.00, -1.00, 90.4, 9.8)">r</text><text xml:space="preserve" font-family="Helvetica-Bold,Helvetica" font-weight="bold" font-size="35.0" fill="#74F6F4" transform="matrix(1.00, 0.00, -0.00, -1.00, 104.0, 9.8)">s</text><text xml:space="preserve" font-family="Helvetica-Bold,Helvetica" font-weight="bold" font-size="35.0" fill="#74F6F4" transform="matrix(1.00, 0.00, -0.00, -1.00, 123.5, 9.8)">?</text></g></svg>