<?xml version="1.0" encoding="UTF-8" standalone="no"?><svg xmlns="http://www.w3.org/2000/svg" xmlns:xlink="http://www.w3.org/1999/xlink" clip-rule="evenodd" stroke-miterlimit="10" viewBox="0 0 820 64"><desc>SVG generated by Keynote</desc><defs></defs><g transform="matrix(1.00, 0.00, -0.00, -1.00, 0.0, 64.0)"><text xml:space="preserve" font-family="LucidaGrande,Lucida Grande" font-size="19.6" fill="#FEFFFE" transform="matrix(1.00, 0.00, -0.00, -1.00, 0.1, 45.4)">‣</text><text xml:space="preserve" font-family="Helvetica,Helvetica" font-size="28.0" fill="#FEFFFE" transform="matrix(1.00, 0.00, -0.00, -1.00, 13.6, 42.2)">Y</text><text xml:space="preserve" font-family="Helvetica,Helvetica" font-size="28.0" fill="#FEFFFE" transform="matrix(1.00, 0.00, -0.00, -1.00, 29.7, 42.2)">o</text><text xml:space="preserve" font-family="Helvetica,Helvetica" font-size="28.0" fill="#FEFFFE" transform="matrix(1.00, 0.00, -0.00, -1.00, 45.3, 42.2)">u</text><text xml:space="preserve" font-family="Helvetica,Helvetica" font-size="28.0" fill="#FEFFFE" transform="matrix(1.00, 0.00, -0.00, -1.00, 60.9, 42.2)"> </text><text xml:space="preserve" font-family="Helvetica,Helvetica" font-size="28.0" fill="#FEFFFE" transform="matrix(1.00, 0.00, -0.00, -1.00, 68.6, 42.2)">c</text><text xml:space="preserve" font-family="Helvetica,Helvetica" font-size="28.0" fill="#FEFFFE" transform="matrix(1.00, 0.00, -0.00, -1.00, 82.6, 42.2)">a</text><text xml:space="preserve" font-family="Helvetica,Helvetica" font-size="28.0" fill="#FEFFFE" transform="matrix(1.00, 0.00, -0.00, -1.00, 98.2, 42.2)">n</text><text xml:space="preserve" font-family="Helvetica,Helvetica" font-size="28.0" fill="#FEFFFE" transform="matrix(1.00, 0.00, -0.00, -1.00, 113.8, 42.2)"> </text><text xml:space="preserve" font-family="Helvetica,Helvetica" font-size="28.0" fill="#FEFFFE" transform="matrix(1.00, 0.00, -0.00, -1.00, 121.6, 42.2)">u</text><text xml:space="preserve" font-family="Helvetica,Helvetica" font-size="28.0" fill="#FEFFFE" transform="matrix(1.00, 0.00, -0.00, -1.00, 137.1, 42.2)">s</text><text xml:space="preserve" font-family="Helvetica,Helvetica" font-size="28.0" fill="#FEFFFE" transform="matrix(1.00, 0.00, -0.00, -1.00, 151.1, 42.2)">e</text><text xml:space="preserve" font-family="Helvetica,Helvetica" font-size="28.0" fill="#FEFFFE" transform="matrix(1.00, 0.00, -0.00, -1.00, 166.7, 42.2)"> </text><text xml:space="preserve" font-family="Helvetica,Helvetica" font-size="28.0" fill="#FEFFFE" transform="matrix(1.00, 0.00, -0.00, -1.00, 174.5, 42.2)">t</text><text xml:space="preserve" font-family="Helvetica,Helvetica" font-size="28.0" fill="#FEFFFE" transform="matrix(1.00, 0.00, -0.00, -1.00, 182.3, 42.2)">h</text><text xml:space="preserve" font-family="Helvetica,Helvetica" font-size="28.0" fill="#FEFFFE" transform="matrix(1.00, 0.00, -0.00, -1.00, 197.9, 42.2)">e</text><text xml:space="preserve" font-family="Helvetica,Helvetica" font-size="28.0" fill="#FEFFFE" transform="matrix(1.00, 0.00, -0.00, -1.00, 213.4, 42.2)"> </text><text xml:space="preserve" font-family="Helvetica,Helvetica" font-size="28.0" fill="#FEFFFE" transform="matrix(1.00, 0.00, -0.00, -1.00, 221.2, 42.2)">p</text><text xml:space="preserve" font-family="Helvetica,Helvetica" font-size="28.0" fill="#FEFFFE" transform="matrix(1.00, 0.00, -0.00, -1.00, 236.8, 42.2)">h</text><text xml:space="preserve" font-family="Helvetica,Helvetica" font-size="28.0" fill="#FEFFFE" transform="matrix(1.00, 0.00, -0.00, -1.00, 252.4, 42.2)">o</text><text xml:space="preserve" font-family="Helvetica,Helvetica" font-size="28.0" fill="#FEFFFE" transform="matrix(1.00, 0.00, -0.00, -1.00, 267.9, 42.2)">n</text><text xml:space="preserve" font-family="Helvetica,Helvetica" font-size="28.0" fill="#FEFFFE" transform="matrix(1.00, 0.00, -0.00, -1.00, 283.5, 42.2)">e</text><text xml:space="preserve" font-family="Helvetica,Helvetica" font-size="28.0" fill="#FEFFFE" transform="matrix(1.00, 0.00, -0.00, -1.00, 299.1, 42.2)"> </text><text xml:space="preserve" font-family="Helvetica,Helvetica" font-size="28.0" fill="#FEFFFE" transform="matrix(1.00, 0.00, -0.00, -1.00, 306.9, 42.2)">i</text><text xml:space="preserve" font-family="Helvetica,Helvetica" font-size="28.0" fill="#FEFFFE" transform="matrix(1.00, 0.00, -0.00, -1.00, 313.1, 42.2)">c</text><text xml:space="preserve" font-family="Helvetica,Helvetica" font-size="28.0" fill="#FEFFFE" transform="matrix(1.00, 0.00, -0.00, -1.00, 327.1, 42.2)">o</text><text xml:space="preserve" font-family="Helvetica,Helvetica" font-size="28.0" fill="#FEFFFE" transform="matrix(1.00, 0.00, -0.00, -1.00, 342.7, 42.2)">n</text><text xml:space="preserve" font-family="Helvetica,Helvetica" font-size="28.0" fill="#FEFFFE" transform="matrix(1.00, 0.00, -0.00, -1.00, 358.2, 42.2)"> </text><text xml:space="preserve" font-family="Helvetica,Helvetica" font-size="28.0" fill="#FEFFFE" transform="matrix(1.00, 0.00, -0.00, -1.00, 366.0, 42.2)">t</text><text xml:space="preserve" font-family="Helvetica,Helvetica" font-size="28.0" fill="#FEFFFE" transform="matrix(1.00, 0.00, -0.00, -1.00, 373.8, 42.2)">o</text><text xml:space="preserve" font-family="Helvetica,Helvetica" font-size="28.0" fill="#FEFFFE" transform="matrix(1.00, 0.00, -0.00, -1.00, 389.4, 42.2)"> </text><text xml:space="preserve" font-family="Helvetica,Helvetica" font-size="28.0" fill="#FEFFFE" transform="matrix(1.00, 0.00, -0.00, -1.00, 397.1, 42.2)">s</text><text xml:space="preserve" font-family="Helvetica,Helvetica" font-size="28.0" fill="#FEFFFE" transform="matrix(1.00, 0.00, -0.00, -1.00, 411.1, 42.2)">i</text><text xml:space="preserve" font-family="Helvetica,Helvetica" font-size="28.0" fill="#FEFFFE" transform="matrix(1.00, 0.00, -0.00, -1.00, 417.4, 42.2)">m</text><text xml:space="preserve" font-family="Helvetica,Helvetica" font-size="28.0" fill="#FEFFFE" transform="matrix(1.00, 0.00, -0.00, -1.00, 440.7, 42.2)">u</text><text xml:space="preserve" font-family="Helvetica,Helvetica" font-size="28.0" fill="#FEFFFE" transform="matrix(1.00, 0.00, -0.00, -1.00, 456.3, 42.2)">l</text><text xml:space="preserve" font-family="Helvetica,Helvetica" font-size="28.0" fill="#FEFFFE" transform="matrix(1.00, 0.00, -0.00, -1.00, 462.5, 42.2)">a</text><text xml:space="preserve" font-family="Helvetica,Helvetica" font-size="28.0" fill="#FEFFFE" transform="matrix(1.00, 0.00, -0.00, -1.00, 478.1, 42.2)">t</text><text xml:space="preserve" font-family="Helvetica,Helvetica" font-size="28.0" fill="#FEFFFE" transform="matrix(1.00, 0.00, -0.00, -1.00, 485.9, 42.2)">e</text><text xml:space="preserve" font-family="Helvetica,Helvetica" font-size="28.0" fill="#FEFFFE" transform="matrix(1.00, 0.00, -0.00, -1.00, 501.4, 42.2)"> </text><text xml:space="preserve" font-family="Helvetica,Helvetica" font-size="28.0" fill="#FEFFFE" transform="matrix(1.00, 0.00, -0.00, -1.00, 509.2, 42.2)">a</text><text xml:space="preserve" font-family="Helvetica,Helvetica" font-size="28.0" fill="#FEFFFE" transform="matrix(1.00, 0.00, -0.00, -1.00, 524.8, 42.2)"> </text><text xml:space="preserve" font-family="Helvetica,Helvetica" font-size="28.0" fill="#FEFFFE" transform="matrix(1.00, 0.00, -0.00, -1.00, 532.6, 42.2)">m</text><text xml:space="preserve" font-family="Helvetica,Helvetica" font-size="28.0" fill="#FEFFFE" transform="matrix(1.00, 0.00, -0.00, -1.00, 555.9, 42.2)">o</text><text xml:space="preserve" font-family="Helvetica,Helvetica" font-size="28.0" fill="#FEFFFE" transform="matrix(1.00, 0.00, -0.00, -1.00, 571.5, 42.2)">b</text><text xml:space="preserve" font-family="Helvetica,Helvetica" font-size="28.0" fill="#FEFFFE" transform="matrix(1.00, 0.00, -0.00, -1.00, 587.0, 42.2)">i</text><text xml:space="preserve" font-family="Helvetica,Helvetica" font-size="28.0" fill="#FEFFFE" transform="matrix(1.00, 0.00, -0.00, -1.00, 593.3, 42.2)">l</text><text xml:space="preserve" font-family="Helvetica,Helvetica" font-size="28.0" fill="#FEFFFE" transform="matrix(1.00, 0.00, -0.00, -1.00, 599.5, 42.2)">e</text><text xml:space="preserve" font-family="Helvetica,Helvetica" font-size="28.0" fill="#FEFFFE" transform="matrix(1.00, 0.00, -0.00, -1.00, 615.1, 42.2)"> </text><text xml:space="preserve" font-family="Helvetica,Helvetica" font-size="28.0" fill="#FEFFFE" transform="matrix(1.00, 0.00, -0.00, -1.00, 622.8, 42.2)">v</text><text xml:space="preserve" font-family="Helvetica,Helvetica" font-size="28.0" fill="#FEFFFE" transform="matrix(1.00, 0.00, -0.00, -1.00, 636.8, 42.2)">i</text><text xml:space="preserve" font-family="Helvetica,Helvetica" font-size="28.0" fill="#FEFFFE" transform="matrix(1.00, 0.00, -0.00, -1.00, 643.1, 42.2)">e</text><text xml:space="preserve" font-family="Helvetica,Helvetica" font-size="28.0" fill="#FEFFFE" transform="matrix(1.00, 0.00, -0.00, -1.00, 658.6, 42.2)">w</text><text xml:space="preserve" font-family="Helvetica,Helvetica" font-size="28.0" fill="#FEFFFE" transform="matrix(1.00, 0.00, -0.00, -1.00, 678.9, 42.2)"> </text><text xml:space="preserve" font-family="Helvetica,Helvetica" font-size="28.0" fill="#FEFFFE" transform="matrix(1.00, 0.00, -0.00, -1.00, 686.6, 42.2)">a</text><text xml:space="preserve" font-family="Helvetica,Helvetica" font-size="28.0" fill="#FEFFFE" transform="matrix(1.00, 0.00, -0.00, -1.00, 702.2, 42.2)">n</text><text xml:space="preserve" font-family="Helvetica,Helvetica" font-size="28.0" fill="#FEFFFE" transform="matrix(1.00, 0.00, -0.00, -1.00, 717.8, 42.2)">d</text><text xml:space="preserve" font-family="Helvetica,Helvetica" font-size="28.0" fill="#FEFFFE" transform="matrix(1.00, 0.00, -0.00, -1.00, 733.4, 42.2)"> </text><text xml:space="preserve" font-family="Helvetica,Helvetica" font-size="28.0" fill="#FEFFFE" transform="matrix(1.00, 0.00, -0.00, -1.00, 741.2, 42.2)">s</text><text xml:space="preserve" font-family="Helvetica,Helvetica" font-size="28.0" fill="#FEFFFE" transform="matrix(1.00, 0.00, -0.00, -1.00, 755.2, 42.2)">p</text><text xml:space="preserve" font-family="Helvetica,Helvetica" font-size="28.0" fill="#FEFFFE" transform="matrix(1.00, 0.00, -0.00, -1.00, 770.7, 42.2)">e</text><text xml:space="preserve" font-family="Helvetica,Helvetica" font-size="28.0" fill="#FEFFFE" transform="matrix(1.00, 0.00, -0.00, -1.00, 786.3, 42.2)">e</text><text xml:space="preserve" font-family="Helvetica,Helvetica" font-size="28.0" fill="#FEFFFE" transform="matrix(1.00, 0.00, -0.00, -1.00, 801.9, 42.2)">d</text><text xml:space="preserve" font-family="Helvetica,Helvetica" font-size="28.0" fill="#FEFFFE" transform="matrix(1.00, 0.00, -0.00, -1.00, 817.5, 42.2)"> </text><text xml:space="preserve" font-family="Helvetica,Helvetica" font-size="28.0" fill="#FEFFFE" transform="matrix(1.00, 0.00, -0.00, -1.00, 13.6, 8.2)">t</text><text xml:space="preserve" font-family="Helvetica,Helvetica" font-size="28.0" fill="#FEFFFE" transform="matrix(1.00, 0.00, -0.00, -1.00, 21.4, 8.2)">h</text><text xml:space="preserve" font-family="Helvetica,Helvetica" font-size="28.0" fill="#FEFFFE" transform="matrix(1.00, 0.00, -0.00, -1.00, 37.0, 8.2)">r</text><text xml:space="preserve" font-family="Helvetica,Helvetica" font-size="28.0" fill="#FEFFFE" transform="matrix(1.00, 0.00, -0.00, -1.00, 46.3, 8.2)">o</text><text xml:space="preserve" font-family="Helvetica,Helvetica" font-size="28.0" fill="#FEFFFE" transform="matrix(1.00, 0.00, -0.00, -1.00, 61.9, 8.2)">t</text><text xml:space="preserve" font-family="Helvetica,Helvetica" font-size="28.0" fill="#FEFFFE" transform="matrix(1.00, 0.00, -0.00, -1.00, 69.6, 8.2)">t</text><text xml:space="preserve" font-family="Helvetica,Helvetica" font-size="28.0" fill="#FEFFFE" transform="matrix(1.00, 0.00, -0.00, -1.00, 77.4, 8.2)">l</text><text xml:space="preserve" font-family="Helvetica,Helvetica" font-size="28.0" fill="#FEFFFE" transform="matrix(1.00, 0.00, -0.00, -1.00, 83.6, 8.2)">i</text><text xml:space="preserve" font-family="Helvetica,Helvetica" font-size="28.0" fill="#FEFFFE" transform="matrix(1.00, 0.00, -0.00, -1.00, 89.9, 8.2)">n</text><text xml:space="preserve" font-family="Helvetica,Helvetica" font-size="28.0" fill="#FEFFFE" transform="matrix(1.00, 0.00, -0.00, -1.00, 105.4, 8.2)">g</text></g></svg>