<?xml version="1.0" encoding="UTF-8" standalone="no"?><svg xmlns="http://www.w3.org/2000/svg" xmlns:xlink="http://www.w3.org/1999/xlink" clip-rule="evenodd" stroke-miterlimit="10" viewBox="0 0 404 108"><desc>SVG generated by Keynote</desc><defs></defs><g transform="matrix(1.00, 0.00, -0.00, -1.00, 0.0, 108.0)"><image xlink:href="553ADF62AAC4542FC590C04147486CE5.png" width="401.00" height="105.00" transform="matrix(1.00, 0.00, -0.00, -1.00, 2.0, 106.0)"></image><text xml:space="preserve" font-family="Helvetica-Bold,Helvetica" font-weight="bold" font-size="48.0" fill="#74F6F4" transform="matrix(1.00, 0.00, -0.00, -1.00, 32.5, 42.2)">S</text><text xml:space="preserve" font-family="Helvetica-Bold,Helvetica" font-weight="bold" font-size="48.0" fill="#74F6F4" transform="matrix(1.00, 0.00, -0.00, -1.00, 63.6, 42.2)">O</text><text xml:space="preserve" font-family="Helvetica-Bold,Helvetica" font-weight="bold" font-size="48.0" fill="#74F6F4" transform="matrix(1.00, 0.00, -0.00, -1.00, 100.0, 42.2)">U</text><text xml:space="preserve" font-family="Helvetica-Bold,Helvetica" font-weight="bold" font-size="48.0" fill="#74F6F4" transform="matrix(1.00, 0.00, -0.00, -1.00, 133.7, 42.2)">R</text><text xml:space="preserve" font-family="Helvetica-Bold,Helvetica" font-weight="bold" font-size="48.0" fill="#74F6F4" transform="matrix(1.00, 0.00, -0.00, -1.00, 167.4, 42.2)">C</text><text xml:space="preserve" font-family="Helvetica-Bold,Helvetica" font-weight="bold" font-size="48.0" fill="#74F6F4" transform="matrix(1.00, 0.00, -0.00, -1.00, 201.1, 42.2)">E</text><text xml:space="preserve" font-family="Helvetica-Bold,Helvetica" font-weight="bold" font-size="48.0" fill="#74F6F4" transform="matrix(1.00, 0.00, -0.00, -1.00, 232.1, 42.2)">S</text><text xml:space="preserve" font-family="Helvetica-Bold,Helvetica" font-weight="bold" font-size="48.0" fill="#74F6F4" transform="matrix(1.00, 0.00, -0.00, -1.00, 263.2, 42.2)"> </text><text xml:space="preserve" font-family="Helvetica-Bold,Helvetica" font-weight="bold" font-size="48.0" fill="#74F6F4" transform="matrix(1.00, 0.00, -0.00, -1.00, 275.6, 42.2)">T</text><text xml:space="preserve" font-family="Helvetica-Bold,Helvetica" font-weight="bold" font-size="48.0" fill="#74F6F4" transform="matrix(1.00, 0.00, -0.00, -1.00, 300.4, 42.2)">A</text><text xml:space="preserve" font-family="Helvetica-Bold,Helvetica" font-weight="bold" font-size="48.0" fill="#74F6F4" transform="matrix(1.00, 0.00, -0.00, -1.00, 334.1, 42.2)">B</text></g></svg>