<?xml version="1.0" encoding="UTF-8" standalone="no"?><svg xmlns="http://www.w3.org/2000/svg" xmlns:xlink="http://www.w3.org/1999/xlink" clip-rule="evenodd" stroke-miterlimit="10" viewBox="0 0 413 109"><desc>SVG generated by Keynote</desc><defs></defs><g transform="matrix(1.00, 0.00, -0.00, -1.00, 0.0, 109.0)"><image xlink:href="8E7B481E390CF609150D71DAF4F496B8.png" width="409.00" height="106.00" transform="matrix(1.00, 0.00, -0.00, -1.00, 2.0, 107.0)"></image><text xml:space="preserve" font-family="Helvetica-Bold,Helvetica" font-weight="bold" font-size="48.0" fill="#74F6F4" transform="matrix(1.00, 0.00, -0.00, -1.00, 30.5, 42.8)">N</text><text xml:space="preserve" font-family="Helvetica-Bold,Helvetica" font-weight="bold" font-size="48.0" fill="#74F6F4" transform="matrix(1.00, 0.00, -0.00, -1.00, 64.2, 42.8)">E</text><text xml:space="preserve" font-family="Helvetica-Bold,Helvetica" font-weight="bold" font-size="48.0" fill="#74F6F4" transform="matrix(1.00, 0.00, -0.00, -1.00, 95.3, 42.8)">T</text><text xml:space="preserve" font-family="Helvetica-Bold,Helvetica" font-weight="bold" font-size="48.0" fill="#74F6F4" transform="matrix(1.00, 0.00, -0.00, -1.00, 123.7, 42.8)">W</text><text xml:space="preserve" font-family="Helvetica-Bold,Helvetica" font-weight="bold" font-size="48.0" fill="#74F6F4" transform="matrix(1.00, 0.00, -0.00, -1.00, 168.0, 42.8)">O</text><text xml:space="preserve" font-family="Helvetica-Bold,Helvetica" font-weight="bold" font-size="48.0" fill="#74F6F4" transform="matrix(1.00, 0.00, -0.00, -1.00, 204.4, 42.8)">R</text><text xml:space="preserve" font-family="Helvetica-Bold,Helvetica" font-weight="bold" font-size="48.0" fill="#74F6F4" transform="matrix(1.00, 0.00, -0.00, -1.00, 238.1, 42.8)">K</text><text xml:space="preserve" font-family="Helvetica-Bold,Helvetica" font-weight="bold" font-size="48.0" fill="#74F6F4" transform="matrix(1.00, 0.00, -0.00, -1.00, 271.8, 42.8)"> </text><text xml:space="preserve" font-family="Helvetica-Bold,Helvetica" font-weight="bold" font-size="48.0" fill="#74F6F4" transform="matrix(1.00, 0.00, -0.00, -1.00, 284.2, 42.8)">T</text><text xml:space="preserve" font-family="Helvetica-Bold,Helvetica" font-weight="bold" font-size="48.0" fill="#74F6F4" transform="matrix(1.00, 0.00, -0.00, -1.00, 309.1, 42.8)">A</text><text xml:space="preserve" font-family="Helvetica-Bold,Helvetica" font-weight="bold" font-size="48.0" fill="#74F6F4" transform="matrix(1.00, 0.00, -0.00, -1.00, 342.8, 42.8)">B</text></g></svg>