<?xml version="1.0" encoding="UTF-8" standalone="no"?><svg xmlns="http://www.w3.org/2000/svg" xmlns:xlink="http://www.w3.org/1999/xlink" clip-rule="evenodd" stroke-miterlimit="10" viewBox="0 0 380 92"><desc>SVG generated by Keynote</desc><defs></defs><g transform="matrix(1.00, 0.00, -0.00, -1.00, 0.0, 92.0)"><image xlink:href="A43C538CE0E71E5CA17334DE72E95A48.png" width="377.00" height="89.00" transform="matrix(1.00, 0.00, -0.00, -1.00, 2.0, 90.0)"></image><text xml:space="preserve" font-family="Helvetica-Bold,Helvetica" font-weight="bold" font-size="48.0" fill="#74F6F4" transform="matrix(1.00, 0.00, -0.00, -1.00, 19.5, 46.2)">E</text><text xml:space="preserve" font-family="Helvetica-Bold,Helvetica" font-weight="bold" font-size="48.0" fill="#74F6F4" transform="matrix(1.00, 0.00, -0.00, -1.00, 50.6, 46.2)">L</text><text xml:space="preserve" font-family="Helvetica-Bold,Helvetica" font-weight="bold" font-size="48.0" fill="#74F6F4" transform="matrix(1.00, 0.00, -0.00, -1.00, 78.9, 46.2)">E</text><text xml:space="preserve" font-family="Helvetica-Bold,Helvetica" font-weight="bold" font-size="48.0" fill="#74F6F4" transform="matrix(1.00, 0.00, -0.00, -1.00, 110.0, 46.2)">M</text><text xml:space="preserve" font-family="Helvetica-Bold,Helvetica" font-weight="bold" font-size="48.0" fill="#74F6F4" transform="matrix(1.00, 0.00, -0.00, -1.00, 149.0, 46.2)">E</text><text xml:space="preserve" font-family="Helvetica-Bold,Helvetica" font-weight="bold" font-size="48.0" fill="#74F6F4" transform="matrix(1.00, 0.00, -0.00, -1.00, 180.1, 46.2)">N</text><text xml:space="preserve" font-family="Helvetica-Bold,Helvetica" font-weight="bold" font-size="48.0" fill="#74F6F4" transform="matrix(1.00, 0.00, -0.00, -1.00, 213.8, 46.2)">T</text><text xml:space="preserve" font-family="Helvetica-Bold,Helvetica" font-weight="bold" font-size="48.0" fill="#74F6F4" transform="matrix(1.00, 0.00, -0.00, -1.00, 242.1, 46.2)"> </text><text xml:space="preserve" font-family="Helvetica-Bold,Helvetica" font-weight="bold" font-size="48.0" fill="#74F6F4" transform="matrix(1.00, 0.00, -0.00, -1.00, 254.5, 46.2)">T</text><text xml:space="preserve" font-family="Helvetica-Bold,Helvetica" font-weight="bold" font-size="48.0" fill="#74F6F4" transform="matrix(1.00, 0.00, -0.00, -1.00, 279.3, 46.2)">A</text><text xml:space="preserve" font-family="Helvetica-Bold,Helvetica" font-weight="bold" font-size="48.0" fill="#74F6F4" transform="matrix(1.00, 0.00, -0.00, -1.00, 313.0, 46.2)">B</text></g></svg>