<?xml version="1.0" encoding="UTF-8" standalone="no"?><svg xmlns="http://www.w3.org/2000/svg" xmlns:xlink="http://www.w3.org/1999/xlink" clip-rule="evenodd" stroke-miterlimit="10" viewBox="0 0 389 95"><desc>SVG generated by Keynote</desc><defs></defs><g transform="matrix(1.00, 0.00, -0.00, -1.00, 0.0, 95.0)"><image xlink:href="582F7FEC22E56C820F4749AF7F49C307.png" width="387.00" height="92.00" transform="matrix(1.00, 0.00, -0.00, -1.00, 1.0, 93.0)"></image><text xml:space="preserve" font-family="Helvetica-Bold,Helvetica" font-weight="bold" font-size="48.0" fill="#74F6F4" transform="matrix(1.00, 0.00, -0.00, -1.00, 20.5, 47.8)">C</text><text xml:space="preserve" font-family="Helvetica-Bold,Helvetica" font-weight="bold" font-size="48.0" fill="#74F6F4" transform="matrix(1.00, 0.00, -0.00, -1.00, 54.2, 47.8)">O</text><text xml:space="preserve" font-family="Helvetica-Bold,Helvetica" font-weight="bold" font-size="48.0" fill="#74F6F4" transform="matrix(1.00, 0.00, -0.00, -1.00, 90.6, 47.8)">N</text><text xml:space="preserve" font-family="Helvetica-Bold,Helvetica" font-weight="bold" font-size="48.0" fill="#74F6F4" transform="matrix(1.00, 0.00, -0.00, -1.00, 124.3, 47.8)">S</text><text xml:space="preserve" font-family="Helvetica-Bold,Helvetica" font-weight="bold" font-size="48.0" fill="#74F6F4" transform="matrix(1.00, 0.00, -0.00, -1.00, 155.4, 47.8)">O</text><text xml:space="preserve" font-family="Helvetica-Bold,Helvetica" font-weight="bold" font-size="48.0" fill="#74F6F4" transform="matrix(1.00, 0.00, -0.00, -1.00, 191.8, 47.8)">L</text><text xml:space="preserve" font-family="Helvetica-Bold,Helvetica" font-weight="bold" font-size="48.0" fill="#74F6F4" transform="matrix(1.00, 0.00, -0.00, -1.00, 220.2, 47.8)">E</text><text xml:space="preserve" font-family="Helvetica-Bold,Helvetica" font-weight="bold" font-size="48.0" fill="#74F6F4" transform="matrix(1.00, 0.00, -0.00, -1.00, 251.2, 47.8)"> </text><text xml:space="preserve" font-family="Helvetica-Bold,Helvetica" font-weight="bold" font-size="48.0" fill="#74F6F4" transform="matrix(1.00, 0.00, -0.00, -1.00, 263.6, 47.8)">T</text><text xml:space="preserve" font-family="Helvetica-Bold,Helvetica" font-weight="bold" font-size="48.0" fill="#74F6F4" transform="matrix(1.00, 0.00, -0.00, -1.00, 288.4, 47.8)">A</text><text xml:space="preserve" font-family="Helvetica-Bold,Helvetica" font-weight="bold" font-size="48.0" fill="#74F6F4" transform="matrix(1.00, 0.00, -0.00, -1.00, 322.1, 47.8)">B</text></g></svg>