<?xml version="1.0" encoding="UTF-8" standalone="no"?><svg xmlns="http://www.w3.org/2000/svg" xmlns:xlink="http://www.w3.org/1999/xlink" clip-rule="evenodd" stroke-miterlimit="10" viewBox="0 0 183 24"><desc>SVG generated by Keynote</desc><defs></defs><g transform="matrix(1.00, 0.00, -0.00, -1.00, 0.0, 24.0)"><text xml:space="preserve" font-family="Helvetica,Helvetica" font-size="22.0" fill="#FEFFFE" transform="matrix(1.00, 0.00, -0.00, -1.00, 1.5, 6.2)">T</text><text xml:space="preserve" font-family="Helvetica,Helvetica" font-size="22.0" fill="#FEFFFE" transform="matrix(1.00, 0.00, -0.00, -1.00, 12.5, 6.2)">o</text><text xml:space="preserve" font-family="Helvetica,Helvetica" font-size="22.0" fill="#FEFFFE" transform="matrix(1.00, 0.00, -0.00, -1.00, 24.8, 6.2)"> </text><text xml:space="preserve" font-family="Helvetica,Helvetica" font-size="22.0" fill="#FEFFFE" transform="matrix(1.00, 0.00, -0.00, -1.00, 30.9, 6.2)">o</text><text xml:space="preserve" font-family="Helvetica,Helvetica" font-size="22.0" fill="#FEFFFE" transform="matrix(1.00, 0.00, -0.00, -1.00, 43.1, 6.2)">p</text><text xml:space="preserve" font-family="Helvetica,Helvetica" font-size="22.0" fill="#FEFFFE" transform="matrix(1.00, 0.00, -0.00, -1.00, 55.4, 6.2)">e</text><text xml:space="preserve" font-family="Helvetica,Helvetica" font-size="22.0" fill="#FEFFFE" transform="matrix(1.00, 0.00, -0.00, -1.00, 67.6, 6.2)">n</text><text xml:space="preserve" font-family="Helvetica,Helvetica" font-size="22.0" fill="#FEFFFE" transform="matrix(1.00, 0.00, -0.00, -1.00, 79.8, 6.2)"> </text><text xml:space="preserve" font-family="Helvetica,Helvetica" font-size="22.0" fill="#FEFFFE" transform="matrix(1.00, 0.00, -0.00, -1.00, 85.9, 6.2)">D</text><text xml:space="preserve" font-family="Helvetica,Helvetica" font-size="22.0" fill="#FEFFFE" transform="matrix(1.00, 0.00, -0.00, -1.00, 101.8, 6.2)">e</text><text xml:space="preserve" font-family="Helvetica,Helvetica" font-size="22.0" fill="#FEFFFE" transform="matrix(1.00, 0.00, -0.00, -1.00, 114.1, 6.2)">v</text><text xml:space="preserve" font-family="Helvetica,Helvetica" font-size="22.0" fill="#FEFFFE" transform="matrix(1.00, 0.00, -0.00, -1.00, 125.1, 6.2)">T</text><text xml:space="preserve" font-family="Helvetica,Helvetica" font-size="22.0" fill="#FEFFFE" transform="matrix(1.00, 0.00, -0.00, -1.00, 136.1, 6.2)">o</text><text xml:space="preserve" font-family="Helvetica,Helvetica" font-size="22.0" fill="#FEFFFE" transform="matrix(1.00, 0.00, -0.00, -1.00, 148.3, 6.2)">o</text><text xml:space="preserve" font-family="Helvetica,Helvetica" font-size="22.0" fill="#FEFFFE" transform="matrix(1.00, 0.00, -0.00, -1.00, 160.6, 6.2)">l</text><text xml:space="preserve" font-family="Helvetica,Helvetica" font-size="22.0" fill="#FEFFFE" transform="matrix(1.00, 0.00, -0.00, -1.00, 165.4, 6.2)">s</text><text xml:space="preserve" font-family="Helvetica,Helvetica" font-size="22.0" fill="#FEFFFE" transform="matrix(1.00, 0.00, -0.00, -1.00, 176.4, 6.2)">:</text></g></svg>