<?xml version="1.0" encoding="UTF-8" standalone="no"?><svg xmlns="http://www.w3.org/2000/svg" xmlns:xlink="http://www.w3.org/1999/xlink" clip-rule="evenodd" stroke-miterlimit="10" viewBox="0 0 658 25"><desc>SVG generated by Keynote</desc><defs></defs><g transform="matrix(1.00, 0.00, -0.00, -1.00, 0.0, 25.0)"><text xml:space="preserve" font-family="LucidaGrande,Lucida Grande" font-size="15.4" fill="#FEFFFE" transform="matrix(1.00, 0.00, -0.00, -1.00, 0.5, 8.4)">‣</text><text xml:space="preserve" font-family="Helvetica,Helvetica" font-size="22.0" fill="#FEFFFE" transform="matrix(1.00, 0.00, -0.00, -1.00, 14.1, 6.2)">C</text><text xml:space="preserve" font-family="Helvetica,Helvetica" font-size="22.0" fill="#FEFFFE" transform="matrix(1.00, 0.00, -0.00, -1.00, 30.0, 6.2)">m</text><text xml:space="preserve" font-family="Helvetica,Helvetica" font-size="22.0" fill="#FEFFFE" transform="matrix(1.00, 0.00, -0.00, -1.00, 48.3, 6.2)">d</text><text xml:space="preserve" font-family="Helvetica,Helvetica" font-size="22.0" fill="#FEFFFE" transform="matrix(1.00, 0.00, -0.00, -1.00, 60.5, 6.2)">+</text><text xml:space="preserve" font-family="Helvetica,Helvetica" font-size="22.0" fill="#FEFFFE" transform="matrix(1.00, 0.00, -0.00, -1.00, 73.4, 6.2)">O</text><text xml:space="preserve" font-family="Helvetica,Helvetica" font-size="22.0" fill="#FEFFFE" transform="matrix(1.00, 0.00, -0.00, -1.00, 90.5, 6.2)">p</text><text xml:space="preserve" font-family="Helvetica,Helvetica" font-size="22.0" fill="#FEFFFE" transform="matrix(1.00, 0.00, -0.00, -1.00, 102.7, 6.2)">t</text><text xml:space="preserve" font-family="Helvetica,Helvetica" font-size="22.0" fill="#FEFFFE" transform="matrix(1.00, 0.00, -0.00, -1.00, 108.8, 6.2)">+</text><text xml:space="preserve" font-family="Helvetica,Helvetica" font-size="22.0" fill="#FEFFFE" transform="matrix(1.00, 0.00, -0.00, -1.00, 121.7, 6.2)">I</text><text xml:space="preserve" font-family="Helvetica,Helvetica" font-size="22.0" fill="#FEFFFE" transform="matrix(1.00, 0.00, -0.00, -1.00, 127.8, 6.2)"> </text><text xml:space="preserve" font-family="Helvetica,Helvetica" font-size="22.0" fill="#FEFFFE" transform="matrix(1.00, 0.00, -0.00, -1.00, 133.9, 6.2)">t</text><text xml:space="preserve" font-family="Helvetica,Helvetica" font-size="22.0" fill="#FEFFFE" transform="matrix(1.00, 0.00, -0.00, -1.00, 140.0, 6.2)">o</text><text xml:space="preserve" font-family="Helvetica,Helvetica" font-size="22.0" fill="#FEFFFE" transform="matrix(1.00, 0.00, -0.00, -1.00, 152.2, 6.2)"> </text><text xml:space="preserve" font-family="Helvetica,Helvetica" font-size="22.0" fill="#FEFFFE" transform="matrix(1.00, 0.00, -0.00, -1.00, 158.4, 6.2)">o</text><text xml:space="preserve" font-family="Helvetica,Helvetica" font-size="22.0" fill="#FEFFFE" transform="matrix(1.00, 0.00, -0.00, -1.00, 170.6, 6.2)">p</text><text xml:space="preserve" font-family="Helvetica,Helvetica" font-size="22.0" fill="#FEFFFE" transform="matrix(1.00, 0.00, -0.00, -1.00, 182.8, 6.2)">e</text><text xml:space="preserve" font-family="Helvetica,Helvetica" font-size="22.0" fill="#FEFFFE" transform="matrix(1.00, 0.00, -0.00, -1.00, 195.1, 6.2)">n</text><text xml:space="preserve" font-family="Helvetica,Helvetica" font-size="22.0" fill="#FEFFFE" transform="matrix(1.00, 0.00, -0.00, -1.00, 207.3, 6.2)"> </text><text xml:space="preserve" font-family="Helvetica,Helvetica" font-size="22.0" fill="#FEFFFE" transform="matrix(1.00, 0.00, -0.00, -1.00, 213.4, 6.2)">t</text><text xml:space="preserve" font-family="Helvetica,Helvetica" font-size="22.0" fill="#FEFFFE" transform="matrix(1.00, 0.00, -0.00, -1.00, 219.5, 6.2)">h</text><text xml:space="preserve" font-family="Helvetica,Helvetica" font-size="22.0" fill="#FEFFFE" transform="matrix(1.00, 0.00, -0.00, -1.00, 231.8, 6.2)">e</text><text xml:space="preserve" font-family="Helvetica,Helvetica" font-size="22.0" fill="#FEFFFE" transform="matrix(1.00, 0.00, -0.00, -1.00, 244.0, 6.2)"> </text><text xml:space="preserve" font-family="Helvetica,Helvetica" font-size="22.0" fill="#FEFFFE" transform="matrix(1.00, 0.00, -0.00, -1.00, 250.1, 6.2)">D</text><text xml:space="preserve" font-family="Helvetica,Helvetica" font-size="22.0" fill="#FEFFFE" transform="matrix(1.00, 0.00, -0.00, -1.00, 266.0, 6.2)">e</text><text xml:space="preserve" font-family="Helvetica,Helvetica" font-size="22.0" fill="#FEFFFE" transform="matrix(1.00, 0.00, -0.00, -1.00, 278.2, 6.2)">v</text><text xml:space="preserve" font-family="Helvetica,Helvetica" font-size="22.0" fill="#FEFFFE" transform="matrix(1.00, 0.00, -0.00, -1.00, 289.2, 6.2)">T</text><text xml:space="preserve" font-family="Helvetica,Helvetica" font-size="22.0" fill="#FEFFFE" transform="matrix(1.00, 0.00, -0.00, -1.00, 300.2, 6.2)">o</text><text xml:space="preserve" font-family="Helvetica,Helvetica" font-size="22.0" fill="#FEFFFE" transform="matrix(1.00, 0.00, -0.00, -1.00, 312.5, 6.2)">o</text><text xml:space="preserve" font-family="Helvetica,Helvetica" font-size="22.0" fill="#FEFFFE" transform="matrix(1.00, 0.00, -0.00, -1.00, 324.7, 6.2)">l</text><text xml:space="preserve" font-family="Helvetica,Helvetica" font-size="22.0" fill="#FEFFFE" transform="matrix(1.00, 0.00, -0.00, -1.00, 329.6, 6.2)">s</text><text xml:space="preserve" font-family="Helvetica,Helvetica" font-size="22.0" fill="#FEFFFE" transform="matrix(1.00, 0.00, -0.00, -1.00, 340.6, 6.2)"> </text><text xml:space="preserve" font-family="Helvetica,Helvetica" font-size="22.0" fill="#A6AAA8" transform="matrix(1.00, 0.00, -0.00, -1.00, 346.7, 6.2)">(</text><text xml:space="preserve" font-family="Helvetica,Helvetica" font-size="22.0" fill="#A6AAA8" transform="matrix(1.00, 0.00, -0.00, -1.00, 354.0, 6.2)">o</text><text xml:space="preserve" font-family="Helvetica,Helvetica" font-size="22.0" fill="#A6AAA8" transform="matrix(1.00, 0.00, -0.00, -1.00, 366.3, 6.2)">r</text><text xml:space="preserve" font-family="Helvetica,Helvetica" font-size="22.0" fill="#A6AAA8" transform="matrix(1.00, 0.00, -0.00, -1.00, 373.6, 6.2)"> </text><text xml:space="preserve" font-family="Helvetica,Helvetica" font-size="22.0" fill="#A6AAA8" transform="matrix(1.00, 0.00, -0.00, -1.00, 379.7, 6.2)">r</text><text xml:space="preserve" font-family="Helvetica,Helvetica" font-size="22.0" fill="#A6AAA8" transform="matrix(1.00, 0.00, -0.00, -1.00, 387.0, 6.2)">i</text><text xml:space="preserve" font-family="Helvetica,Helvetica" font-size="22.0" fill="#A6AAA8" transform="matrix(1.00, 0.00, -0.00, -1.00, 391.9, 6.2)">g</text><text xml:space="preserve" font-family="Helvetica,Helvetica" font-size="22.0" fill="#A6AAA8" transform="matrix(1.00, 0.00, -0.00, -1.00, 404.2, 6.2)">h</text><text xml:space="preserve" font-family="Helvetica,Helvetica" font-size="22.0" fill="#A6AAA8" transform="matrix(1.00, 0.00, -0.00, -1.00, 416.4, 6.2)">t</text><text xml:space="preserve" font-family="Helvetica,Helvetica" font-size="22.0" fill="#A6AAA8" transform="matrix(1.00, 0.00, -0.00, -1.00, 422.5, 6.2)"> </text><text xml:space="preserve" font-family="Helvetica,Helvetica" font-size="22.0" fill="#A6AAA8" transform="matrix(1.00, 0.00, -0.00, -1.00, 428.6, 6.2)">c</text><text xml:space="preserve" font-family="Helvetica,Helvetica" font-size="22.0" fill="#A6AAA8" transform="matrix(1.00, 0.00, -0.00, -1.00, 439.6, 6.2)">l</text><text xml:space="preserve" font-family="Helvetica,Helvetica" font-size="22.0" fill="#A6AAA8" transform="matrix(1.00, 0.00, -0.00, -1.00, 444.5, 6.2)">i</text><text xml:space="preserve" font-family="Helvetica,Helvetica" font-size="22.0" fill="#A6AAA8" transform="matrix(1.00, 0.00, -0.00, -1.00, 449.4, 6.2)">c</text><text xml:space="preserve" font-family="Helvetica,Helvetica" font-size="22.0" fill="#A6AAA8" transform="matrix(1.00, 0.00, -0.00, -1.00, 460.4, 6.2)">k</text><text xml:space="preserve" font-family="Helvetica,Helvetica" font-size="22.0" fill="#A6AAA8" transform="matrix(1.00, 0.00, -0.00, -1.00, 471.4, 6.2)"> </text><text xml:space="preserve" font-family="Helvetica,Helvetica" font-size="22.0" fill="#A6AAA8" transform="matrix(1.00, 0.00, -0.00, -1.00, 477.5, 6.2)">&gt;</text><text xml:space="preserve" font-family="Helvetica,Helvetica" font-size="22.0" fill="#A6AAA8" transform="matrix(1.00, 0.00, -0.00, -1.00, 490.4, 6.2)"> </text><text xml:space="preserve" font-family="Helvetica,Helvetica" font-size="22.0" fill="#A6AAA8" transform="matrix(1.00, 0.00, -0.00, -1.00, 496.5, 6.2)">i</text><text xml:space="preserve" font-family="Helvetica,Helvetica" font-size="22.0" fill="#A6AAA8" transform="matrix(1.00, 0.00, -0.00, -1.00, 501.4, 6.2)">n</text><text xml:space="preserve" font-family="Helvetica,Helvetica" font-size="22.0" fill="#A6AAA8" transform="matrix(1.00, 0.00, -0.00, -1.00, 513.6, 6.2)">s</text><text xml:space="preserve" font-family="Helvetica,Helvetica" font-size="22.0" fill="#A6AAA8" transform="matrix(1.00, 0.00, -0.00, -1.00, 524.6, 6.2)">p</text><text xml:space="preserve" font-family="Helvetica,Helvetica" font-size="22.0" fill="#A6AAA8" transform="matrix(1.00, 0.00, -0.00, -1.00, 536.8, 6.2)">e</text><text xml:space="preserve" font-family="Helvetica,Helvetica" font-size="22.0" fill="#A6AAA8" transform="matrix(1.00, 0.00, -0.00, -1.00, 549.1, 6.2)">c</text><text xml:space="preserve" font-family="Helvetica,Helvetica" font-size="22.0" fill="#A6AAA8" transform="matrix(1.00, 0.00, -0.00, -1.00, 560.1, 6.2)">t</text><text xml:space="preserve" font-family="Helvetica,Helvetica" font-size="22.0" fill="#A6AAA8" transform="matrix(1.00, 0.00, -0.00, -1.00, 566.2, 6.2)"> </text><text xml:space="preserve" font-family="Helvetica,Helvetica" font-size="22.0" fill="#A6AAA8" transform="matrix(1.00, 0.00, -0.00, -1.00, 572.3, 6.2)">e</text><text xml:space="preserve" font-family="Helvetica,Helvetica" font-size="22.0" fill="#A6AAA8" transform="matrix(1.00, 0.00, -0.00, -1.00, 584.5, 6.2)">l</text><text xml:space="preserve" font-family="Helvetica,Helvetica" font-size="22.0" fill="#A6AAA8" transform="matrix(1.00, 0.00, -0.00, -1.00, 589.4, 6.2)">e</text><text xml:space="preserve" font-family="Helvetica,Helvetica" font-size="22.0" fill="#A6AAA8" transform="matrix(1.00, 0.00, -0.00, -1.00, 601.7, 6.2)">m</text><text xml:space="preserve" font-family="Helvetica,Helvetica" font-size="22.0" fill="#A6AAA8" transform="matrix(1.00, 0.00, -0.00, -1.00, 620.0, 6.2)">e</text><text xml:space="preserve" font-family="Helvetica,Helvetica" font-size="22.0" fill="#A6AAA8" transform="matrix(1.00, 0.00, -0.00, -1.00, 632.2, 6.2)">n</text><text xml:space="preserve" font-family="Helvetica,Helvetica" font-size="22.0" fill="#A6AAA8" transform="matrix(1.00, 0.00, -0.00, -1.00, 644.5, 6.2)">t</text><text xml:space="preserve" font-family="Helvetica,Helvetica" font-size="22.0" fill="#A6AAA8" transform="matrix(1.00, 0.00, -0.00, -1.00, 650.6, 6.2)">)</text></g></svg>