<?xml version="1.0" encoding="UTF-8" standalone="no"?><svg xmlns="http://www.w3.org/2000/svg" xmlns:xlink="http://www.w3.org/1999/xlink" clip-rule="evenodd" stroke-miterlimit="10" viewBox="0 0 865 32"><desc>SVG generated by Keynote</desc><defs></defs><g transform="matrix(1.00, 0.00, -0.00, -1.00, 0.0, 32.0)"><text xml:space="preserve" font-family="Helvetica-Bold,Helvetica" font-weight="bold" font-size="29.0" fill="#C82505" transform="matrix(1.00, 0.00, -0.00, -1.00, -0.8, 7.8)">N</text><text xml:space="preserve" font-family="Helvetica-Bold,Helvetica" font-weight="bold" font-size="29.0" fill="#C82505" transform="matrix(1.00, 0.00, -0.00, -1.00, 20.1, 7.8)">E</text><text xml:space="preserve" font-family="Helvetica-Bold,Helvetica" font-weight="bold" font-size="29.0" fill="#C82505" transform="matrix(1.00, 0.00, -0.00, -1.00, 39.4, 7.8)">T</text><text xml:space="preserve" font-family="Helvetica-Bold,Helvetica" font-weight="bold" font-size="29.0" fill="#C82505" transform="matrix(1.00, 0.00, -0.00, -1.00, 57.2, 7.8)">W</text><text xml:space="preserve" font-family="Helvetica-Bold,Helvetica" font-weight="bold" font-size="29.0" fill="#C82505" transform="matrix(1.00, 0.00, -0.00, -1.00, 84.5, 7.8)">O</text><text xml:space="preserve" font-family="Helvetica-Bold,Helvetica" font-weight="bold" font-size="29.0" fill="#C82505" transform="matrix(1.00, 0.00, -0.00, -1.00, 107.1, 7.8)">R</text><text xml:space="preserve" font-family="Helvetica-Bold,Helvetica" font-weight="bold" font-size="29.0" fill="#C82505" transform="matrix(1.00, 0.00, -0.00, -1.00, 128.0, 7.8)">K</text><text xml:space="preserve" font-family="Helvetica-Bold,Helvetica" font-weight="bold" font-size="29.0" fill="#67D6D2" transform="matrix(1.00, 0.00, -0.00, -1.00, 149.0, 7.8)"> </text><text xml:space="preserve" font-family="Helvetica-Bold,Helvetica" font-weight="bold" font-size="29.0" fill="#67D6D2" transform="matrix(1.00, 0.00, -0.00, -1.00, 157.0, 7.8)">-</text><text xml:space="preserve" font-family="Helvetica-Bold,Helvetica" font-weight="bold" font-size="29.0" fill="#67D6D2" transform="matrix(1.00, 0.00, -0.00, -1.00, 166.7, 7.8)"> </text><text xml:space="preserve" font-family="Helvetica-Bold,Helvetica" font-weight="bold" font-size="29.0" fill="#67D6D2" transform="matrix(1.00, 0.00, -0.00, -1.00, 174.7, 7.8)">W</text><text xml:space="preserve" font-family="Helvetica-Bold,Helvetica" font-weight="bold" font-size="29.0" fill="#67D6D2" transform="matrix(1.00, 0.00, -0.00, -1.00, 202.1, 7.8)">h</text><text xml:space="preserve" font-family="Helvetica-Bold,Helvetica" font-weight="bold" font-size="29.0" fill="#67D6D2" transform="matrix(1.00, 0.00, -0.00, -1.00, 219.8, 7.8)">a</text><text xml:space="preserve" font-family="Helvetica-Bold,Helvetica" font-weight="bold" font-size="29.0" fill="#67D6D2" transform="matrix(1.00, 0.00, -0.00, -1.00, 235.9, 7.8)">t</text><text xml:space="preserve" font-family="Helvetica-Bold,Helvetica" font-weight="bold" font-size="29.0" fill="#67D6D2" transform="matrix(1.00, 0.00, -0.00, -1.00, 245.6, 7.8)"> </text><text xml:space="preserve" font-family="Helvetica-Bold,Helvetica" font-weight="bold" font-size="29.0" fill="#67D6D2" transform="matrix(1.00, 0.00, -0.00, -1.00, 253.6, 7.8)">h</text><text xml:space="preserve" font-family="Helvetica-Bold,Helvetica" font-weight="bold" font-size="29.0" fill="#67D6D2" transform="matrix(1.00, 0.00, -0.00, -1.00, 271.4, 7.8)">a</text><text xml:space="preserve" font-family="Helvetica-Bold,Helvetica" font-weight="bold" font-size="29.0" fill="#67D6D2" transform="matrix(1.00, 0.00, -0.00, -1.00, 287.5, 7.8)">v</text><text xml:space="preserve" font-family="Helvetica-Bold,Helvetica" font-weight="bold" font-size="29.0" fill="#67D6D2" transform="matrix(1.00, 0.00, -0.00, -1.00, 303.6, 7.8)">e</text><text xml:space="preserve" font-family="Helvetica-Bold,Helvetica" font-weight="bold" font-size="29.0" fill="#67D6D2" transform="matrix(1.00, 0.00, -0.00, -1.00, 319.8, 7.8)"> </text><text xml:space="preserve" font-family="Helvetica-Bold,Helvetica" font-weight="bold" font-size="29.0" fill="#67D6D2" transform="matrix(1.00, 0.00, -0.00, -1.00, 327.8, 7.8)">y</text><text xml:space="preserve" font-family="Helvetica-Bold,Helvetica" font-weight="bold" font-size="29.0" fill="#67D6D2" transform="matrix(1.00, 0.00, -0.00, -1.00, 343.9, 7.8)">o</text><text xml:space="preserve" font-family="Helvetica-Bold,Helvetica" font-weight="bold" font-size="29.0" fill="#67D6D2" transform="matrix(1.00, 0.00, -0.00, -1.00, 361.7, 7.8)">u</text><text xml:space="preserve" font-family="Helvetica-Bold,Helvetica" font-weight="bold" font-size="29.0" fill="#67D6D2" transform="matrix(1.00, 0.00, -0.00, -1.00, 379.4, 7.8)"> </text><text xml:space="preserve" font-family="Helvetica-Bold,Helvetica" font-weight="bold" font-size="29.0" fill="#67D6D2" transform="matrix(1.00, 0.00, -0.00, -1.00, 387.4, 7.8)">l</text><text xml:space="preserve" font-family="Helvetica-Bold,Helvetica" font-weight="bold" font-size="29.0" fill="#67D6D2" transform="matrix(1.00, 0.00, -0.00, -1.00, 395.5, 7.8)">e</text><text xml:space="preserve" font-family="Helvetica-Bold,Helvetica" font-weight="bold" font-size="29.0" fill="#67D6D2" transform="matrix(1.00, 0.00, -0.00, -1.00, 411.6, 7.8)">a</text><text xml:space="preserve" font-family="Helvetica-Bold,Helvetica" font-weight="bold" font-size="29.0" fill="#67D6D2" transform="matrix(1.00, 0.00, -0.00, -1.00, 427.7, 7.8)">r</text><text xml:space="preserve" font-family="Helvetica-Bold,Helvetica" font-weight="bold" font-size="29.0" fill="#67D6D2" transform="matrix(1.00, 0.00, -0.00, -1.00, 439.0, 7.8)">n</text><text xml:space="preserve" font-family="Helvetica-Bold,Helvetica" font-weight="bold" font-size="29.0" fill="#67D6D2" transform="matrix(1.00, 0.00, -0.00, -1.00, 456.7, 7.8)">e</text><text xml:space="preserve" font-family="Helvetica-Bold,Helvetica" font-weight="bold" font-size="29.0" fill="#67D6D2" transform="matrix(1.00, 0.00, -0.00, -1.00, 472.9, 7.8)">d</text><text xml:space="preserve" font-family="Helvetica-Bold,Helvetica" font-weight="bold" font-size="29.0" fill="#67D6D2" transform="matrix(1.00, 0.00, -0.00, -1.00, 490.6, 7.8)"> </text><text xml:space="preserve" font-family="Helvetica-Bold,Helvetica" font-weight="bold" font-size="29.0" fill="#67D6D2" transform="matrix(1.00, 0.00, -0.00, -1.00, 498.6, 7.8)">f</text><text xml:space="preserve" font-family="Helvetica-Bold,Helvetica" font-weight="bold" font-size="29.0" fill="#67D6D2" transform="matrix(1.00, 0.00, -0.00, -1.00, 508.3, 7.8)">r</text><text xml:space="preserve" font-family="Helvetica-Bold,Helvetica" font-weight="bold" font-size="29.0" fill="#67D6D2" transform="matrix(1.00, 0.00, -0.00, -1.00, 519.6, 7.8)">o</text><text xml:space="preserve" font-family="Helvetica-Bold,Helvetica" font-weight="bold" font-size="29.0" fill="#67D6D2" transform="matrix(1.00, 0.00, -0.00, -1.00, 537.3, 7.8)">m</text><text xml:space="preserve" font-family="Helvetica-Bold,Helvetica" font-weight="bold" font-size="29.0" fill="#67D6D2" transform="matrix(1.00, 0.00, -0.00, -1.00, 563.1, 7.8)"> </text><text xml:space="preserve" font-family="Helvetica-Bold,Helvetica" font-weight="bold" font-size="29.0" fill="#67D6D2" transform="matrix(1.00, 0.00, -0.00, -1.00, 571.1, 7.8)">r</text><text xml:space="preserve" font-family="Helvetica-Bold,Helvetica" font-weight="bold" font-size="29.0" fill="#67D6D2" transform="matrix(1.00, 0.00, -0.00, -1.00, 582.4, 7.8)">e</text><text xml:space="preserve" font-family="Helvetica-Bold,Helvetica" font-weight="bold" font-size="29.0" fill="#67D6D2" transform="matrix(1.00, 0.00, -0.00, -1.00, 598.6, 7.8)">s</text><text xml:space="preserve" font-family="Helvetica-Bold,Helvetica" font-weight="bold" font-size="29.0" fill="#67D6D2" transform="matrix(1.00, 0.00, -0.00, -1.00, 614.7, 7.8)">e</text><text xml:space="preserve" font-family="Helvetica-Bold,Helvetica" font-weight="bold" font-size="29.0" fill="#67D6D2" transform="matrix(1.00, 0.00, -0.00, -1.00, 630.8, 7.8)">a</text><text xml:space="preserve" font-family="Helvetica-Bold,Helvetica" font-weight="bold" font-size="29.0" fill="#67D6D2" transform="matrix(1.00, 0.00, -0.00, -1.00, 647.0, 7.8)">r</text><text xml:space="preserve" font-family="Helvetica-Bold,Helvetica" font-weight="bold" font-size="29.0" fill="#67D6D2" transform="matrix(1.00, 0.00, -0.00, -1.00, 658.2, 7.8)">c</text><text xml:space="preserve" font-family="Helvetica-Bold,Helvetica" font-weight="bold" font-size="29.0" fill="#67D6D2" transform="matrix(1.00, 0.00, -0.00, -1.00, 674.4, 7.8)">h</text><text xml:space="preserve" font-family="Helvetica-Bold,Helvetica" font-weight="bold" font-size="29.0" fill="#67D6D2" transform="matrix(1.00, 0.00, -0.00, -1.00, 692.1, 7.8)">i</text><text xml:space="preserve" font-family="Helvetica-Bold,Helvetica" font-weight="bold" font-size="29.0" fill="#67D6D2" transform="matrix(1.00, 0.00, -0.00, -1.00, 700.1, 7.8)">n</text><text xml:space="preserve" font-family="Helvetica-Bold,Helvetica" font-weight="bold" font-size="29.0" fill="#67D6D2" transform="matrix(1.00, 0.00, -0.00, -1.00, 717.8, 7.8)">g</text><text xml:space="preserve" font-family="Helvetica-Bold,Helvetica" font-weight="bold" font-size="29.0" fill="#67D6D2" transform="matrix(1.00, 0.00, -0.00, -1.00, 735.6, 7.8)"> </text><text xml:space="preserve" font-family="Helvetica-Bold,Helvetica" font-weight="bold" font-size="29.0" fill="#67D6D2" transform="matrix(1.00, 0.00, -0.00, -1.00, 743.6, 7.8)">i</text><text xml:space="preserve" font-family="Helvetica-Bold,Helvetica" font-weight="bold" font-size="29.0" fill="#67D6D2" transform="matrix(1.00, 0.00, -0.00, -1.00, 751.7, 7.8)">n</text><text xml:space="preserve" font-family="Helvetica-Bold,Helvetica" font-weight="bold" font-size="29.0" fill="#67D6D2" transform="matrix(1.00, 0.00, -0.00, -1.00, 769.4, 7.8)"> </text><text xml:space="preserve" font-family="Helvetica-Bold,Helvetica" font-weight="bold" font-size="29.0" fill="#67D6D2" transform="matrix(1.00, 0.00, -0.00, -1.00, 777.4, 7.8)">p</text><text xml:space="preserve" font-family="Helvetica-Bold,Helvetica" font-weight="bold" font-size="29.0" fill="#67D6D2" transform="matrix(1.00, 0.00, -0.00, -1.00, 795.1, 7.8)">a</text><text xml:space="preserve" font-family="Helvetica-Bold,Helvetica" font-weight="bold" font-size="29.0" fill="#67D6D2" transform="matrix(1.00, 0.00, -0.00, -1.00, 811.3, 7.8)">i</text><text xml:space="preserve" font-family="Helvetica-Bold,Helvetica" font-weight="bold" font-size="29.0" fill="#67D6D2" transform="matrix(1.00, 0.00, -0.00, -1.00, 819.3, 7.8)">r</text><text xml:space="preserve" font-family="Helvetica-Bold,Helvetica" font-weight="bold" font-size="29.0" fill="#67D6D2" transform="matrix(1.00, 0.00, -0.00, -1.00, 830.6, 7.8)">s</text><text xml:space="preserve" font-family="Helvetica-Bold,Helvetica" font-weight="bold" font-size="29.0" fill="#67D6D2" transform="matrix(1.00, 0.00, -0.00, -1.00, 846.7, 7.8)">?</text></g></svg>