<?xml version="1.0" encoding="UTF-8" standalone="no"?><svg xmlns="http://www.w3.org/2000/svg" xmlns:xlink="http://www.w3.org/1999/xlink" clip-rule="evenodd" stroke-miterlimit="10" viewBox="0 0 384 102"><desc>SVG generated by Keynote</desc><defs></defs><g transform="matrix(1.00, 0.00, -0.00, -1.00, 0.0, 102.0)"><text xml:space="preserve" font-family="Helvetica-Bold,Helvetica" font-weight="bold" font-size="29.0" fill="#C82505" transform="matrix(1.00, 0.00, -0.00, -1.00, 0.2, 78.3)">S</text><text xml:space="preserve" font-family="Helvetica-Bold,Helvetica" font-weight="bold" font-size="29.0" fill="#C82505" transform="matrix(1.00, 0.00, -0.00, -1.00, 19.5, 78.3)">O</text><text xml:space="preserve" font-family="Helvetica-Bold,Helvetica" font-weight="bold" font-size="29.0" fill="#C82505" transform="matrix(1.00, 0.00, -0.00, -1.00, 42.1, 78.3)">U</text><text xml:space="preserve" font-family="Helvetica-Bold,Helvetica" font-weight="bold" font-size="29.0" fill="#C82505" transform="matrix(1.00, 0.00, -0.00, -1.00, 63.0, 78.3)">R</text><text xml:space="preserve" font-family="Helvetica-Bold,Helvetica" font-weight="bold" font-size="29.0" fill="#C82505" transform="matrix(1.00, 0.00, -0.00, -1.00, 83.9, 78.3)">C</text><text xml:space="preserve" font-family="Helvetica-Bold,Helvetica" font-weight="bold" font-size="29.0" fill="#C82505" transform="matrix(1.00, 0.00, -0.00, -1.00, 104.9, 78.3)">E</text><text xml:space="preserve" font-family="Helvetica-Bold,Helvetica" font-weight="bold" font-size="29.0" fill="#C82505" transform="matrix(1.00, 0.00, -0.00, -1.00, 124.2, 78.3)">S</text><text xml:space="preserve" font-family="Helvetica-Bold,Helvetica" font-weight="bold" font-size="29.0" fill="#67D6D2" transform="matrix(1.00, 0.00, -0.00, -1.00, 143.6, 78.3)"> </text><text xml:space="preserve" font-family="Helvetica-Bold,Helvetica" font-weight="bold" font-size="29.0" fill="#67D6D2" transform="matrix(1.00, 0.00, -0.00, -1.00, 151.6, 78.3)">-</text><text xml:space="preserve" font-family="Helvetica-Bold,Helvetica" font-weight="bold" font-size="29.0" fill="#67D6D2" transform="matrix(1.00, 0.00, -0.00, -1.00, 161.3, 78.3)"> </text><text xml:space="preserve" font-family="Helvetica-Bold,Helvetica" font-weight="bold" font-size="29.0" fill="#67D6D2" transform="matrix(1.00, 0.00, -0.00, -1.00, 169.3, 78.3)">W</text><text xml:space="preserve" font-family="Helvetica-Bold,Helvetica" font-weight="bold" font-size="29.0" fill="#67D6D2" transform="matrix(1.00, 0.00, -0.00, -1.00, 196.7, 78.3)">h</text><text xml:space="preserve" font-family="Helvetica-Bold,Helvetica" font-weight="bold" font-size="29.0" fill="#67D6D2" transform="matrix(1.00, 0.00, -0.00, -1.00, 214.4, 78.3)">a</text><text xml:space="preserve" font-family="Helvetica-Bold,Helvetica" font-weight="bold" font-size="29.0" fill="#67D6D2" transform="matrix(1.00, 0.00, -0.00, -1.00, 230.5, 78.3)">t</text><text xml:space="preserve" font-family="Helvetica-Bold,Helvetica" font-weight="bold" font-size="29.0" fill="#67D6D2" transform="matrix(1.00, 0.00, -0.00, -1.00, 240.2, 78.3)"> </text><text xml:space="preserve" font-family="Helvetica-Bold,Helvetica" font-weight="bold" font-size="29.0" fill="#67D6D2" transform="matrix(1.00, 0.00, -0.00, -1.00, 248.2, 78.3)">h</text><text xml:space="preserve" font-family="Helvetica-Bold,Helvetica" font-weight="bold" font-size="29.0" fill="#67D6D2" transform="matrix(1.00, 0.00, -0.00, -1.00, 266.0, 78.3)">a</text><text xml:space="preserve" font-family="Helvetica-Bold,Helvetica" font-weight="bold" font-size="29.0" fill="#67D6D2" transform="matrix(1.00, 0.00, -0.00, -1.00, 282.1, 78.3)">v</text><text xml:space="preserve" font-family="Helvetica-Bold,Helvetica" font-weight="bold" font-size="29.0" fill="#67D6D2" transform="matrix(1.00, 0.00, -0.00, -1.00, 298.2, 78.3)">e</text><text xml:space="preserve" font-family="Helvetica-Bold,Helvetica" font-weight="bold" font-size="29.0" fill="#67D6D2" transform="matrix(1.00, 0.00, -0.00, -1.00, 314.4, 78.3)"> </text><text xml:space="preserve" font-family="Helvetica-Bold,Helvetica" font-weight="bold" font-size="29.0" fill="#67D6D2" transform="matrix(1.00, 0.00, -0.00, -1.00, 322.4, 78.3)">y</text><text xml:space="preserve" font-family="Helvetica-Bold,Helvetica" font-weight="bold" font-size="29.0" fill="#67D6D2" transform="matrix(1.00, 0.00, -0.00, -1.00, 338.5, 78.3)">o</text><text xml:space="preserve" font-family="Helvetica-Bold,Helvetica" font-weight="bold" font-size="29.0" fill="#67D6D2" transform="matrix(1.00, 0.00, -0.00, -1.00, 356.3, 78.3)">u</text><text xml:space="preserve" font-family="Helvetica-Bold,Helvetica" font-weight="bold" font-size="29.0" fill="#67D6D2" transform="matrix(1.00, 0.00, -0.00, -1.00, 374.0, 78.3)"> </text><text xml:space="preserve" font-family="Helvetica-Bold,Helvetica" font-weight="bold" font-size="29.0" fill="#67D6D2" transform="matrix(1.00, 0.00, -0.00, -1.00, 0.2, 43.3)">l</text><text xml:space="preserve" font-family="Helvetica-Bold,Helvetica" font-weight="bold" font-size="29.0" fill="#67D6D2" transform="matrix(1.00, 0.00, -0.00, -1.00, 8.2, 43.3)">e</text><text xml:space="preserve" font-family="Helvetica-Bold,Helvetica" font-weight="bold" font-size="29.0" fill="#67D6D2" transform="matrix(1.00, 0.00, -0.00, -1.00, 24.3, 43.3)">a</text><text xml:space="preserve" font-family="Helvetica-Bold,Helvetica" font-weight="bold" font-size="29.0" fill="#67D6D2" transform="matrix(1.00, 0.00, -0.00, -1.00, 40.5, 43.3)">r</text><text xml:space="preserve" font-family="Helvetica-Bold,Helvetica" font-weight="bold" font-size="29.0" fill="#67D6D2" transform="matrix(1.00, 0.00, -0.00, -1.00, 51.8, 43.3)">n</text><text xml:space="preserve" font-family="Helvetica-Bold,Helvetica" font-weight="bold" font-size="29.0" fill="#67D6D2" transform="matrix(1.00, 0.00, -0.00, -1.00, 69.5, 43.3)">e</text><text xml:space="preserve" font-family="Helvetica-Bold,Helvetica" font-weight="bold" font-size="29.0" fill="#67D6D2" transform="matrix(1.00, 0.00, -0.00, -1.00, 85.6, 43.3)">d</text><text xml:space="preserve" font-family="Helvetica-Bold,Helvetica" font-weight="bold" font-size="29.0" fill="#67D6D2" transform="matrix(1.00, 0.00, -0.00, -1.00, 103.3, 43.3)"> </text><text xml:space="preserve" font-family="Helvetica-Bold,Helvetica" font-weight="bold" font-size="29.0" fill="#67D6D2" transform="matrix(1.00, 0.00, -0.00, -1.00, 111.4, 43.3)">f</text><text xml:space="preserve" font-family="Helvetica-Bold,Helvetica" font-weight="bold" font-size="29.0" fill="#67D6D2" transform="matrix(1.00, 0.00, -0.00, -1.00, 121.0, 43.3)">r</text><text xml:space="preserve" font-family="Helvetica-Bold,Helvetica" font-weight="bold" font-size="29.0" fill="#67D6D2" transform="matrix(1.00, 0.00, -0.00, -1.00, 132.3, 43.3)">o</text><text xml:space="preserve" font-family="Helvetica-Bold,Helvetica" font-weight="bold" font-size="29.0" fill="#67D6D2" transform="matrix(1.00, 0.00, -0.00, -1.00, 150.0, 43.3)">m</text><text xml:space="preserve" font-family="Helvetica-Bold,Helvetica" font-weight="bold" font-size="29.0" fill="#67D6D2" transform="matrix(1.00, 0.00, -0.00, -1.00, 175.8, 43.3)"> </text><text xml:space="preserve" font-family="Helvetica-Bold,Helvetica" font-weight="bold" font-size="29.0" fill="#67D6D2" transform="matrix(1.00, 0.00, -0.00, -1.00, 183.9, 43.3)">r</text><text xml:space="preserve" font-family="Helvetica-Bold,Helvetica" font-weight="bold" font-size="29.0" fill="#67D6D2" transform="matrix(1.00, 0.00, -0.00, -1.00, 195.2, 43.3)">e</text><text xml:space="preserve" font-family="Helvetica-Bold,Helvetica" font-weight="bold" font-size="29.0" fill="#67D6D2" transform="matrix(1.00, 0.00, -0.00, -1.00, 211.3, 43.3)">s</text><text xml:space="preserve" font-family="Helvetica-Bold,Helvetica" font-weight="bold" font-size="29.0" fill="#67D6D2" transform="matrix(1.00, 0.00, -0.00, -1.00, 227.4, 43.3)">e</text><text xml:space="preserve" font-family="Helvetica-Bold,Helvetica" font-weight="bold" font-size="29.0" fill="#67D6D2" transform="matrix(1.00, 0.00, -0.00, -1.00, 243.6, 43.3)">a</text><text xml:space="preserve" font-family="Helvetica-Bold,Helvetica" font-weight="bold" font-size="29.0" fill="#67D6D2" transform="matrix(1.00, 0.00, -0.00, -1.00, 259.7, 43.3)">r</text><text xml:space="preserve" font-family="Helvetica-Bold,Helvetica" font-weight="bold" font-size="29.0" fill="#67D6D2" transform="matrix(1.00, 0.00, -0.00, -1.00, 271.0, 43.3)">c</text><text xml:space="preserve" font-family="Helvetica-Bold,Helvetica" font-weight="bold" font-size="29.0" fill="#67D6D2" transform="matrix(1.00, 0.00, -0.00, -1.00, 287.1, 43.3)">h</text><text xml:space="preserve" font-family="Helvetica-Bold,Helvetica" font-weight="bold" font-size="29.0" fill="#67D6D2" transform="matrix(1.00, 0.00, -0.00, -1.00, 304.8, 43.3)">i</text><text xml:space="preserve" font-family="Helvetica-Bold,Helvetica" font-weight="bold" font-size="29.0" fill="#67D6D2" transform="matrix(1.00, 0.00, -0.00, -1.00, 312.9, 43.3)">n</text><text xml:space="preserve" font-family="Helvetica-Bold,Helvetica" font-weight="bold" font-size="29.0" fill="#67D6D2" transform="matrix(1.00, 0.00, -0.00, -1.00, 330.6, 43.3)">g</text><text xml:space="preserve" font-family="Helvetica-Bold,Helvetica" font-weight="bold" font-size="29.0" fill="#67D6D2" transform="matrix(1.00, 0.00, -0.00, -1.00, 348.3, 43.3)"> </text><text xml:space="preserve" font-family="Helvetica-Bold,Helvetica" font-weight="bold" font-size="29.0" fill="#67D6D2" transform="matrix(1.00, 0.00, -0.00, -1.00, 356.4, 43.3)">i</text><text xml:space="preserve" font-family="Helvetica-Bold,Helvetica" font-weight="bold" font-size="29.0" fill="#67D6D2" transform="matrix(1.00, 0.00, -0.00, -1.00, 364.4, 43.3)">n</text><text xml:space="preserve" font-family="Helvetica-Bold,Helvetica" font-weight="bold" font-size="29.0" fill="#67D6D2" transform="matrix(1.00, 0.00, -0.00, -1.00, 382.1, 43.3)"> </text><text xml:space="preserve" font-family="Helvetica-Bold,Helvetica" font-weight="bold" font-size="29.0" fill="#67D6D2" transform="matrix(1.00, 0.00, -0.00, -1.00, 0.2, 8.3)">p</text><text xml:space="preserve" font-family="Helvetica-Bold,Helvetica" font-weight="bold" font-size="29.0" fill="#67D6D2" transform="matrix(1.00, 0.00, -0.00, -1.00, 17.9, 8.3)">a</text><text xml:space="preserve" font-family="Helvetica-Bold,Helvetica" font-weight="bold" font-size="29.0" fill="#67D6D2" transform="matrix(1.00, 0.00, -0.00, -1.00, 34.0, 8.3)">i</text><text xml:space="preserve" font-family="Helvetica-Bold,Helvetica" font-weight="bold" font-size="29.0" fill="#67D6D2" transform="matrix(1.00, 0.00, -0.00, -1.00, 42.0, 8.3)">r</text><text xml:space="preserve" font-family="Helvetica-Bold,Helvetica" font-weight="bold" font-size="29.0" fill="#67D6D2" transform="matrix(1.00, 0.00, -0.00, -1.00, 53.3, 8.3)">s</text><text xml:space="preserve" font-family="Helvetica-Bold,Helvetica" font-weight="bold" font-size="29.0" fill="#67D6D2" transform="matrix(1.00, 0.00, -0.00, -1.00, 69.4, 8.3)">?</text></g></svg>