<?xml version="1.0" encoding="UTF-8" standalone="no"?><svg xmlns="http://www.w3.org/2000/svg" xmlns:xlink="http://www.w3.org/1999/xlink" clip-rule="evenodd" stroke-miterlimit="10" viewBox="0 0 366 57"><desc>SVG generated by Keynote</desc><defs></defs><g transform="matrix(1.00, 0.00, -0.00, -1.00, 0.0, 57.0)"><text xml:space="preserve" font-family="Helvetica,Helvetica" font-size="17.0" fill="#5FC9C8" transform="matrix(1.00, 0.00, -0.00, -1.00, 1.2, 42.1)">/</text><text xml:space="preserve" font-family="Helvetica,Helvetica" font-size="17.0" fill="#5FC9C8" transform="matrix(1.00, 0.00, -0.00, -1.00, 5.9, 42.1)">/</text><text xml:space="preserve" font-family="Helvetica,Helvetica" font-size="17.0" fill="#5FC9C8" transform="matrix(1.00, 0.00, -0.00, -1.00, 10.6, 42.1)"> </text><text xml:space="preserve" font-family="Helvetica,Helvetica" font-size="17.0" fill="#5FC9C8" transform="matrix(1.00, 0.00, -0.00, -1.00, 15.3, 42.1)">n</text><text xml:space="preserve" font-family="Helvetica,Helvetica" font-size="17.0" fill="#5FC9C8" transform="matrix(1.00, 0.00, -0.00, -1.00, 24.8, 42.1)">o</text><text xml:space="preserve" font-family="Helvetica,Helvetica" font-size="17.0" fill="#5FC9C8" transform="matrix(1.00, 0.00, -0.00, -1.00, 34.2, 42.1)">t</text><text xml:space="preserve" font-family="Helvetica,Helvetica" font-size="17.0" fill="#5FC9C8" transform="matrix(1.00, 0.00, -0.00, -1.00, 39.0, 42.1)">e</text><text xml:space="preserve" font-family="Helvetica,Helvetica" font-size="17.0" fill="#5FC9C8" transform="matrix(1.00, 0.00, -0.00, -1.00, 48.4, 42.1)"> </text><text xml:space="preserve" font-family="Helvetica,Helvetica" font-size="17.0" fill="#5FC9C8" transform="matrix(1.00, 0.00, -0.00, -1.00, 53.1, 42.1)">y</text><text xml:space="preserve" font-family="Helvetica,Helvetica" font-size="17.0" fill="#5FC9C8" transform="matrix(1.00, 0.00, -0.00, -1.00, 61.6, 42.1)">o</text><text xml:space="preserve" font-family="Helvetica,Helvetica" font-size="17.0" fill="#5FC9C8" transform="matrix(1.00, 0.00, -0.00, -1.00, 71.1, 42.1)">u</text><text xml:space="preserve" font-family="Helvetica,Helvetica" font-size="17.0" fill="#5FC9C8" transform="matrix(1.00, 0.00, -0.00, -1.00, 80.5, 42.1)"> </text><text xml:space="preserve" font-family="Helvetica,Helvetica" font-size="17.0" fill="#5FC9C8" transform="matrix(1.00, 0.00, -0.00, -1.00, 85.3, 42.1)">w</text><text xml:space="preserve" font-family="Helvetica,Helvetica" font-size="17.0" fill="#5FC9C8" transform="matrix(1.00, 0.00, -0.00, -1.00, 97.5, 42.1)">i</text><text xml:space="preserve" font-family="Helvetica,Helvetica" font-size="17.0" fill="#5FC9C8" transform="matrix(1.00, 0.00, -0.00, -1.00, 101.3, 42.1)">l</text><text xml:space="preserve" font-family="Helvetica,Helvetica" font-size="17.0" fill="#5FC9C8" transform="matrix(1.00, 0.00, -0.00, -1.00, 105.1, 42.1)">l</text><text xml:space="preserve" font-family="Helvetica,Helvetica" font-size="17.0" fill="#5FC9C8" transform="matrix(1.00, 0.00, -0.00, -1.00, 108.9, 42.1)"> </text><text xml:space="preserve" font-family="Helvetica,Helvetica" font-size="17.0" fill="#5FC9C8" transform="matrix(1.00, 0.00, -0.00, -1.00, 113.6, 42.1)">h</text><text xml:space="preserve" font-family="Helvetica,Helvetica" font-size="17.0" fill="#5FC9C8" transform="matrix(1.00, 0.00, -0.00, -1.00, 123.1, 42.1)">a</text><text xml:space="preserve" font-family="Helvetica,Helvetica" font-size="17.0" fill="#5FC9C8" transform="matrix(1.00, 0.00, -0.00, -1.00, 132.5, 42.1)">v</text><text xml:space="preserve" font-family="Helvetica,Helvetica" font-size="17.0" fill="#5FC9C8" transform="matrix(1.00, 0.00, -0.00, -1.00, 141.0, 42.1)">e</text><text xml:space="preserve" font-family="Helvetica,Helvetica" font-size="17.0" fill="#5FC9C8" transform="matrix(1.00, 0.00, -0.00, -1.00, 150.5, 42.1)"> </text><text xml:space="preserve" font-family="Helvetica,Helvetica" font-size="17.0" fill="#5FC9C8" transform="matrix(1.00, 0.00, -0.00, -1.00, 155.2, 42.1)">t</text><text xml:space="preserve" font-family="Helvetica,Helvetica" font-size="17.0" fill="#5FC9C8" transform="matrix(1.00, 0.00, -0.00, -1.00, 159.9, 42.1)">o</text><text xml:space="preserve" font-family="Helvetica,Helvetica" font-size="17.0" fill="#5FC9C8" transform="matrix(1.00, 0.00, -0.00, -1.00, 169.4, 42.1)"> </text><text xml:space="preserve" font-family="Helvetica,Helvetica" font-size="17.0" fill="#5FC9C8" transform="matrix(1.00, 0.00, -0.00, -1.00, 174.1, 42.1)">u</text><text xml:space="preserve" font-family="Helvetica,Helvetica" font-size="17.0" fill="#5FC9C8" transform="matrix(1.00, 0.00, -0.00, -1.00, 183.6, 42.1)">s</text><text xml:space="preserve" font-family="Helvetica,Helvetica" font-size="17.0" fill="#5FC9C8" transform="matrix(1.00, 0.00, -0.00, -1.00, 192.1, 42.1)">e</text><text xml:space="preserve" font-family="Helvetica,Helvetica" font-size="17.0" fill="#5FC9C8" transform="matrix(1.00, 0.00, -0.00, -1.00, 201.5, 42.1)"> </text><text xml:space="preserve" font-family="Helvetica,Helvetica" font-size="17.0" fill="#5FC9C8" transform="matrix(1.00, 0.00, -0.00, -1.00, 206.2, 42.1)">S</text><text xml:space="preserve" font-family="Helvetica,Helvetica" font-size="17.0" fill="#5FC9C8" transform="matrix(1.00, 0.00, -0.00, -1.00, 217.6, 42.1)">H</text><text xml:space="preserve" font-family="Helvetica,Helvetica" font-size="17.0" fill="#5FC9C8" transform="matrix(1.00, 0.00, -0.00, -1.00, 229.9, 42.1)">I</text><text xml:space="preserve" font-family="Helvetica,Helvetica" font-size="17.0" fill="#5FC9C8" transform="matrix(1.00, 0.00, -0.00, -1.00, 234.6, 42.1)">F</text><text xml:space="preserve" font-family="Helvetica,Helvetica" font-size="17.0" fill="#5FC9C8" transform="matrix(1.00, 0.00, -0.00, -1.00, 245.0, 42.1)">T</text><text xml:space="preserve" font-family="Helvetica,Helvetica" font-size="17.0" fill="#5FC9C8" transform="matrix(1.00, 0.00, -0.00, -1.00, 255.0, 42.1)"> </text><text xml:space="preserve" font-family="Helvetica,Helvetica" font-size="17.0" fill="#5FC9C8" transform="matrix(1.00, 0.00, -0.00, -1.00, 259.8, 42.1)">+</text><text xml:space="preserve" font-family="Helvetica,Helvetica" font-size="17.0" fill="#5FC9C8" transform="matrix(1.00, 0.00, -0.00, -1.00, 269.7, 42.1)"> </text><text xml:space="preserve" font-family="Helvetica,Helvetica" font-size="17.0" fill="#5FC9C8" transform="matrix(1.00, 0.00, -0.00, -1.00, 274.4, 42.1)">R</text><text xml:space="preserve" font-family="Helvetica,Helvetica" font-size="17.0" fill="#5FC9C8" transform="matrix(1.00, 0.00, -0.00, -1.00, 286.7, 42.1)">E</text><text xml:space="preserve" font-family="Helvetica,Helvetica" font-size="17.0" fill="#5FC9C8" transform="matrix(1.00, 0.00, -0.00, -1.00, 298.0, 42.1)">T</text><text xml:space="preserve" font-family="Helvetica,Helvetica" font-size="17.0" fill="#5FC9C8" transform="matrix(1.00, 0.00, -0.00, -1.00, 308.4, 42.1)">U</text><text xml:space="preserve" font-family="Helvetica,Helvetica" font-size="17.0" fill="#5FC9C8" transform="matrix(1.00, 0.00, -0.00, -1.00, 320.7, 42.1)">R</text><text xml:space="preserve" font-family="Helvetica,Helvetica" font-size="17.0" fill="#5FC9C8" transform="matrix(1.00, 0.00, -0.00, -1.00, 333.0, 42.1)">N</text><text xml:space="preserve" font-family="Helvetica,Helvetica" font-size="17.0" fill="#5FC9C8" transform="matrix(1.00, 0.00, -0.00, -1.00, 345.2, 42.1)"> </text><text xml:space="preserve" font-family="Helvetica,Helvetica" font-size="17.0" fill="#5FC9C8" transform="matrix(1.00, 0.00, -0.00, -1.00, 350.0, 42.1)">t</text><text xml:space="preserve" font-family="Helvetica,Helvetica" font-size="17.0" fill="#5FC9C8" transform="matrix(1.00, 0.00, -0.00, -1.00, 354.7, 42.1)">o</text><text xml:space="preserve" font-family="Helvetica,Helvetica" font-size="17.0" fill="#5FC9C8" transform="matrix(1.00, 0.00, -0.00, -1.00, 364.1, 42.1)"> </text><text xml:space="preserve" font-family="Helvetica,Helvetica" font-size="17.0" fill="#5FC9C8" transform="matrix(1.00, 0.00, -0.00, -1.00, 1.2, 22.1)">c</text><text xml:space="preserve" font-family="Helvetica,Helvetica" font-size="17.0" fill="#5FC9C8" transform="matrix(1.00, 0.00, -0.00, -1.00, 9.7, 22.1)">r</text><text xml:space="preserve" font-family="Helvetica,Helvetica" font-size="17.0" fill="#5FC9C8" transform="matrix(1.00, 0.00, -0.00, -1.00, 15.3, 22.1)">e</text><text xml:space="preserve" font-family="Helvetica,Helvetica" font-size="17.0" fill="#5FC9C8" transform="matrix(1.00, 0.00, -0.00, -1.00, 24.8, 22.1)">a</text><text xml:space="preserve" font-family="Helvetica,Helvetica" font-size="17.0" fill="#5FC9C8" transform="matrix(1.00, 0.00, -0.00, -1.00, 34.2, 22.1)">t</text><text xml:space="preserve" font-family="Helvetica,Helvetica" font-size="17.0" fill="#5FC9C8" transform="matrix(1.00, 0.00, -0.00, -1.00, 39.0, 22.1)">e</text><text xml:space="preserve" font-family="Helvetica,Helvetica" font-size="17.0" fill="#5FC9C8" transform="matrix(1.00, 0.00, -0.00, -1.00, 48.4, 22.1)"> </text><text xml:space="preserve" font-family="Helvetica,Helvetica" font-size="17.0" fill="#5FC9C8" transform="matrix(1.00, 0.00, -0.00, -1.00, 53.1, 22.1)">a</text><text xml:space="preserve" font-family="Helvetica,Helvetica" font-size="17.0" fill="#5FC9C8" transform="matrix(1.00, 0.00, -0.00, -1.00, 62.6, 22.1)"> </text><text xml:space="preserve" font-family="Helvetica,Helvetica" font-size="17.0" fill="#5FC9C8" transform="matrix(1.00, 0.00, -0.00, -1.00, 67.3, 22.1)">n</text><text xml:space="preserve" font-family="Helvetica,Helvetica" font-size="17.0" fill="#5FC9C8" transform="matrix(1.00, 0.00, -0.00, -1.00, 76.8, 22.1)">e</text><text xml:space="preserve" font-family="Helvetica,Helvetica" font-size="17.0" fill="#5FC9C8" transform="matrix(1.00, 0.00, -0.00, -1.00, 86.2, 22.1)">w</text><text xml:space="preserve" font-family="Helvetica,Helvetica" font-size="17.0" fill="#5FC9C8" transform="matrix(1.00, 0.00, -0.00, -1.00, 98.5, 22.1)"> </text><text xml:space="preserve" font-family="Helvetica,Helvetica" font-size="17.0" fill="#5FC9C8" transform="matrix(1.00, 0.00, -0.00, -1.00, 103.2, 22.1)">l</text><text xml:space="preserve" font-family="Helvetica,Helvetica" font-size="17.0" fill="#5FC9C8" transform="matrix(1.00, 0.00, -0.00, -1.00, 107.0, 22.1)">i</text><text xml:space="preserve" font-family="Helvetica,Helvetica" font-size="17.0" fill="#5FC9C8" transform="matrix(1.00, 0.00, -0.00, -1.00, 110.8, 22.1)">n</text><text xml:space="preserve" font-family="Helvetica,Helvetica" font-size="17.0" fill="#5FC9C8" transform="matrix(1.00, 0.00, -0.00, -1.00, 120.2, 22.1)">e</text><text xml:space="preserve" font-family="Helvetica,Helvetica" font-size="17.0" fill="#5FC9C8" transform="matrix(1.00, 0.00, -0.00, -1.00, 129.7, 22.1)"> </text><text xml:space="preserve" font-family="Helvetica,Helvetica" font-size="17.0" fill="#5FC9C8" transform="matrix(1.00, 0.00, -0.00, -1.00, 134.4, 22.1)">w</text><text xml:space="preserve" font-family="Helvetica,Helvetica" font-size="17.0" fill="#5FC9C8" transform="matrix(1.00, 0.00, -0.00, -1.00, 146.7, 22.1)">h</text><text xml:space="preserve" font-family="Helvetica,Helvetica" font-size="17.0" fill="#5FC9C8" transform="matrix(1.00, 0.00, -0.00, -1.00, 156.2, 22.1)">e</text><text xml:space="preserve" font-family="Helvetica,Helvetica" font-size="17.0" fill="#5FC9C8" transform="matrix(1.00, 0.00, -0.00, -1.00, 165.6, 22.1)">n</text><text xml:space="preserve" font-family="Helvetica,Helvetica" font-size="17.0" fill="#5FC9C8" transform="matrix(1.00, 0.00, -0.00, -1.00, 175.1, 22.1)"> </text><text xml:space="preserve" font-family="Helvetica,Helvetica" font-size="17.0" fill="#5FC9C8" transform="matrix(1.00, 0.00, -0.00, -1.00, 179.8, 22.1)">w</text><text xml:space="preserve" font-family="Helvetica,Helvetica" font-size="17.0" fill="#5FC9C8" transform="matrix(1.00, 0.00, -0.00, -1.00, 192.1, 22.1)">o</text><text xml:space="preserve" font-family="Helvetica,Helvetica" font-size="17.0" fill="#5FC9C8" transform="matrix(1.00, 0.00, -0.00, -1.00, 201.5, 22.1)">r</text><text xml:space="preserve" font-family="Helvetica,Helvetica" font-size="17.0" fill="#5FC9C8" transform="matrix(1.00, 0.00, -0.00, -1.00, 207.2, 22.1)">k</text><text xml:space="preserve" font-family="Helvetica,Helvetica" font-size="17.0" fill="#5FC9C8" transform="matrix(1.00, 0.00, -0.00, -1.00, 215.7, 22.1)">i</text><text xml:space="preserve" font-family="Helvetica,Helvetica" font-size="17.0" fill="#5FC9C8" transform="matrix(1.00, 0.00, -0.00, -1.00, 219.5, 22.1)">n</text><text xml:space="preserve" font-family="Helvetica,Helvetica" font-size="17.0" fill="#5FC9C8" transform="matrix(1.00, 0.00, -0.00, -1.00, 228.9, 22.1)">g</text><text xml:space="preserve" font-family="Helvetica,Helvetica" font-size="17.0" fill="#5FC9C8" transform="matrix(1.00, 0.00, -0.00, -1.00, 238.4, 22.1)"> </text><text xml:space="preserve" font-family="Helvetica,Helvetica" font-size="17.0" fill="#5FC9C8" transform="matrix(1.00, 0.00, -0.00, -1.00, 243.1, 22.1)">i</text><text xml:space="preserve" font-family="Helvetica,Helvetica" font-size="17.0" fill="#5FC9C8" transform="matrix(1.00, 0.00, -0.00, -1.00, 246.9, 22.1)">n</text><text xml:space="preserve" font-family="Helvetica,Helvetica" font-size="17.0" fill="#5FC9C8" transform="matrix(1.00, 0.00, -0.00, -1.00, 256.4, 22.1)"> </text><text xml:space="preserve" font-family="Helvetica,Helvetica" font-size="17.0" fill="#5FC9C8" transform="matrix(1.00, 0.00, -0.00, -1.00, 261.1, 22.1)">t</text><text xml:space="preserve" font-family="Helvetica,Helvetica" font-size="17.0" fill="#5FC9C8" transform="matrix(1.00, 0.00, -0.00, -1.00, 265.8, 22.1)">h</text><text xml:space="preserve" font-family="Helvetica,Helvetica" font-size="17.0" fill="#5FC9C8" transform="matrix(1.00, 0.00, -0.00, -1.00, 275.2, 22.1)">e</text><text xml:space="preserve" font-family="Helvetica,Helvetica" font-size="17.0" fill="#5FC9C8" transform="matrix(1.00, 0.00, -0.00, -1.00, 284.7, 22.1)"> </text><text xml:space="preserve" font-family="Helvetica,Helvetica" font-size="17.0" fill="#5FC9C8" transform="matrix(1.00, 0.00, -0.00, -1.00, 289.4, 22.1)">c</text><text xml:space="preserve" font-family="Helvetica,Helvetica" font-size="17.0" fill="#5FC9C8" transform="matrix(1.00, 0.00, -0.00, -1.00, 297.9, 22.1)">o</text><text xml:space="preserve" font-family="Helvetica,Helvetica" font-size="17.0" fill="#5FC9C8" transform="matrix(1.00, 0.00, -0.00, -1.00, 307.4, 22.1)">n</text><text xml:space="preserve" font-family="Helvetica,Helvetica" font-size="17.0" fill="#5FC9C8" transform="matrix(1.00, 0.00, -0.00, -1.00, 316.8, 22.1)">s</text><text xml:space="preserve" font-family="Helvetica,Helvetica" font-size="17.0" fill="#5FC9C8" transform="matrix(1.00, 0.00, -0.00, -1.00, 325.3, 22.1)">o</text><text xml:space="preserve" font-family="Helvetica,Helvetica" font-size="17.0" fill="#5FC9C8" transform="matrix(1.00, 0.00, -0.00, -1.00, 334.8, 22.1)">l</text><text xml:space="preserve" font-family="Helvetica,Helvetica" font-size="17.0" fill="#5FC9C8" transform="matrix(1.00, 0.00, -0.00, -1.00, 338.6, 22.1)">e</text><text xml:space="preserve" font-family="Helvetica,Helvetica" font-size="17.0" fill="#5FC9C8" transform="matrix(1.00, 0.00, -0.00, -1.00, 348.0, 22.1)"> </text><text xml:space="preserve" font-family="Helvetica,Helvetica" font-size="17.0" fill="#5FC9C8" transform="matrix(1.00, 0.00, -0.00, -1.00, 1.2, 2.1)">b</text><text xml:space="preserve" font-family="Helvetica,Helvetica" font-size="17.0" fill="#5FC9C8" transform="matrix(1.00, 0.00, -0.00, -1.00, 10.6, 2.1)">e</text><text xml:space="preserve" font-family="Helvetica,Helvetica" font-size="17.0" fill="#5FC9C8" transform="matrix(1.00, 0.00, -0.00, -1.00, 20.1, 2.1)">c</text><text xml:space="preserve" font-family="Helvetica,Helvetica" font-size="17.0" fill="#5FC9C8" transform="matrix(1.00, 0.00, -0.00, -1.00, 28.6, 2.1)">a</text><text xml:space="preserve" font-family="Helvetica,Helvetica" font-size="17.0" fill="#5FC9C8" transform="matrix(1.00, 0.00, -0.00, -1.00, 38.0, 2.1)">u</text><text xml:space="preserve" font-family="Helvetica,Helvetica" font-size="17.0" fill="#5FC9C8" transform="matrix(1.00, 0.00, -0.00, -1.00, 47.5, 2.1)">s</text><text xml:space="preserve" font-family="Helvetica,Helvetica" font-size="17.0" fill="#5FC9C8" transform="matrix(1.00, 0.00, -0.00, -1.00, 56.0, 2.1)">e</text><text xml:space="preserve" font-family="Helvetica,Helvetica" font-size="17.0" fill="#5FC9C8" transform="matrix(1.00, 0.00, -0.00, -1.00, 65.4, 2.1)"> </text><text xml:space="preserve" font-family="Helvetica,Helvetica" font-size="17.0" fill="#5FC9C8" transform="matrix(1.00, 0.00, -0.00, -1.00, 70.2, 2.1)">R</text><text xml:space="preserve" font-family="Helvetica,Helvetica" font-size="17.0" fill="#5FC9C8" transform="matrix(1.00, 0.00, -0.00, -1.00, 82.4, 2.1)">E</text><text xml:space="preserve" font-family="Helvetica,Helvetica" font-size="17.0" fill="#5FC9C8" transform="matrix(1.00, 0.00, -0.00, -1.00, 93.8, 2.1)">T</text><text xml:space="preserve" font-family="Helvetica,Helvetica" font-size="17.0" fill="#5FC9C8" transform="matrix(1.00, 0.00, -0.00, -1.00, 104.2, 2.1)">U</text><text xml:space="preserve" font-family="Helvetica,Helvetica" font-size="17.0" fill="#5FC9C8" transform="matrix(1.00, 0.00, -0.00, -1.00, 116.4, 2.1)">R</text><text xml:space="preserve" font-family="Helvetica,Helvetica" font-size="17.0" fill="#5FC9C8" transform="matrix(1.00, 0.00, -0.00, -1.00, 128.7, 2.1)">N</text><text xml:space="preserve" font-family="Helvetica,Helvetica" font-size="17.0" fill="#5FC9C8" transform="matrix(1.00, 0.00, -0.00, -1.00, 141.0, 2.1)"> </text><text xml:space="preserve" font-family="Helvetica,Helvetica" font-size="17.0" fill="#5FC9C8" transform="matrix(1.00, 0.00, -0.00, -1.00, 145.7, 2.1)">w</text><text xml:space="preserve" font-family="Helvetica,Helvetica" font-size="17.0" fill="#5FC9C8" transform="matrix(1.00, 0.00, -0.00, -1.00, 158.0, 2.1)">i</text><text xml:space="preserve" font-family="Helvetica,Helvetica" font-size="17.0" fill="#5FC9C8" transform="matrix(1.00, 0.00, -0.00, -1.00, 161.8, 2.1)">l</text><text xml:space="preserve" font-family="Helvetica,Helvetica" font-size="17.0" fill="#5FC9C8" transform="matrix(1.00, 0.00, -0.00, -1.00, 165.6, 2.1)">l</text><text xml:space="preserve" font-family="Helvetica,Helvetica" font-size="17.0" fill="#5FC9C8" transform="matrix(1.00, 0.00, -0.00, -1.00, 169.4, 2.1)"> </text><text xml:space="preserve" font-family="Helvetica,Helvetica" font-size="17.0" fill="#5FC9C8" transform="matrix(1.00, 0.00, -0.00, -1.00, 174.1, 2.1)">e</text><text xml:space="preserve" font-family="Helvetica,Helvetica" font-size="17.0" fill="#5FC9C8" transform="matrix(1.00, 0.00, -0.00, -1.00, 183.5, 2.1)">x</text><text xml:space="preserve" font-family="Helvetica,Helvetica" font-size="17.0" fill="#5FC9C8" transform="matrix(1.00, 0.00, -0.00, -1.00, 192.0, 2.1)">e</text><text xml:space="preserve" font-family="Helvetica,Helvetica" font-size="17.0" fill="#5FC9C8" transform="matrix(1.00, 0.00, -0.00, -1.00, 201.5, 2.1)">c</text><text xml:space="preserve" font-family="Helvetica,Helvetica" font-size="17.0" fill="#5FC9C8" transform="matrix(1.00, 0.00, -0.00, -1.00, 210.0, 2.1)">u</text><text xml:space="preserve" font-family="Helvetica,Helvetica" font-size="17.0" fill="#5FC9C8" transform="matrix(1.00, 0.00, -0.00, -1.00, 219.4, 2.1)">t</text><text xml:space="preserve" font-family="Helvetica,Helvetica" font-size="17.0" fill="#5FC9C8" transform="matrix(1.00, 0.00, -0.00, -1.00, 224.2, 2.1)">e</text><text xml:space="preserve" font-family="Helvetica,Helvetica" font-size="17.0" fill="#5FC9C8" transform="matrix(1.00, 0.00, -0.00, -1.00, 233.6, 2.1)"> </text><text xml:space="preserve" font-family="Helvetica,Helvetica" font-size="17.0" fill="#5FC9C8" transform="matrix(1.00, 0.00, -0.00, -1.00, 238.3, 2.1)">t</text><text xml:space="preserve" font-family="Helvetica,Helvetica" font-size="17.0" fill="#5FC9C8" transform="matrix(1.00, 0.00, -0.00, -1.00, 243.1, 2.1)">h</text><text xml:space="preserve" font-family="Helvetica,Helvetica" font-size="17.0" fill="#5FC9C8" transform="matrix(1.00, 0.00, -0.00, -1.00, 252.5, 2.1)">a</text><text xml:space="preserve" font-family="Helvetica,Helvetica" font-size="17.0" fill="#5FC9C8" transform="matrix(1.00, 0.00, -0.00, -1.00, 262.0, 2.1)">t</text><text xml:space="preserve" font-family="Helvetica,Helvetica" font-size="17.0" fill="#5FC9C8" transform="matrix(1.00, 0.00, -0.00, -1.00, 266.7, 2.1)"> </text><text xml:space="preserve" font-family="Helvetica,Helvetica" font-size="17.0" fill="#5FC9C8" transform="matrix(1.00, 0.00, -0.00, -1.00, 271.4, 2.1)">l</text><text xml:space="preserve" font-family="Helvetica,Helvetica" font-size="17.0" fill="#5FC9C8" transform="matrix(1.00, 0.00, -0.00, -1.00, 275.2, 2.1)">i</text><text xml:space="preserve" font-family="Helvetica,Helvetica" font-size="17.0" fill="#5FC9C8" transform="matrix(1.00, 0.00, -0.00, -1.00, 279.0, 2.1)">n</text><text xml:space="preserve" font-family="Helvetica,Helvetica" font-size="17.0" fill="#5FC9C8" transform="matrix(1.00, 0.00, -0.00, -1.00, 288.4, 2.1)">e</text></g></svg>