<?xml version="1.0" encoding="UTF-8" standalone="no"?><svg xmlns="http://www.w3.org/2000/svg" xmlns:xlink="http://www.w3.org/1999/xlink" clip-rule="evenodd" stroke-miterlimit="10" viewBox="0 0 232 30"><desc>SVG generated by Keynote</desc><defs></defs><g transform="matrix(1.00, 0.00, -0.00, -1.00, 0.0, 30.0)"><text xml:space="preserve" font-family="Helvetica-Bold,Helvetica" font-weight="bold" font-size="33.0" fill="#C82505" transform="matrix(1.00, 0.00, -0.00, -1.00, 0.3, 3.5)">C</text><text xml:space="preserve" font-family="Helvetica-Bold,Helvetica" font-weight="bold" font-size="33.0" fill="#C82505" transform="matrix(1.00, 0.00, -0.00, -1.00, 23.5, 3.5)">O</text><text xml:space="preserve" font-family="Helvetica-Bold,Helvetica" font-weight="bold" font-size="33.0" fill="#C82505" transform="matrix(1.00, 0.00, -0.00, -1.00, 48.5, 3.5)">N</text><text xml:space="preserve" font-family="Helvetica-Bold,Helvetica" font-weight="bold" font-size="33.0" fill="#C82505" transform="matrix(1.00, 0.00, -0.00, -1.00, 71.7, 3.5)">S</text><text xml:space="preserve" font-family="Helvetica-Bold,Helvetica" font-weight="bold" font-size="33.0" fill="#C82505" transform="matrix(1.00, 0.00, -0.00, -1.00, 93.0, 3.5)">O</text><text xml:space="preserve" font-family="Helvetica-Bold,Helvetica" font-weight="bold" font-size="33.0" fill="#C82505" transform="matrix(1.00, 0.00, -0.00, -1.00, 118.0, 3.5)">L</text><text xml:space="preserve" font-family="Helvetica-Bold,Helvetica" font-weight="bold" font-size="33.0" fill="#C82505" transform="matrix(1.00, 0.00, -0.00, -1.00, 137.5, 3.5)">E</text><text xml:space="preserve" font-family="Helvetica-Bold,Helvetica" font-weight="bold" font-size="33.0" fill="#C82505" transform="matrix(1.00, 0.00, -0.00, -1.00, 158.9, 3.5)"> </text><text xml:space="preserve" font-family="Helvetica-Bold,Helvetica" font-weight="bold" font-size="33.0" fill="#C82505" transform="matrix(1.00, 0.00, -0.00, -1.00, 167.4, 3.5)">T</text><text xml:space="preserve" font-family="Helvetica-Bold,Helvetica" font-weight="bold" font-size="33.0" fill="#C82505" transform="matrix(1.00, 0.00, -0.00, -1.00, 184.5, 3.5)">A</text><text xml:space="preserve" font-family="Helvetica-Bold,Helvetica" font-weight="bold" font-size="33.0" fill="#C82505" transform="matrix(1.00, 0.00, -0.00, -1.00, 207.7, 3.5)">B</text></g></svg>