<?xml version="1.0" encoding="UTF-8" standalone="no"?><svg xmlns="http://www.w3.org/2000/svg" xmlns:xlink="http://www.w3.org/1999/xlink" clip-rule="evenodd" stroke-miterlimit="10" viewBox="0 0 427 21"><desc>SVG generated by Keynote</desc><defs></defs><g transform="matrix(1.00, 0.00, -0.00, -1.00, 0.0, 21.0)"><text xml:space="preserve" font-family="Helvetica,Helvetica" font-size="18.0" fill="#5FC9C8" transform="matrix(1.00, 0.00, -0.00, -1.00, 1.5, 6.0)">t</text><text xml:space="preserve" font-family="Helvetica,Helvetica" font-size="18.0" fill="#5FC9C8" transform="matrix(1.00, 0.00, -0.00, -1.00, 6.5, 6.0)">i</text><text xml:space="preserve" font-family="Helvetica,Helvetica" font-size="18.0" fill="#5FC9C8" transform="matrix(1.00, 0.00, -0.00, -1.00, 10.5, 6.0)">t</text><text xml:space="preserve" font-family="Helvetica,Helvetica" font-size="18.0" fill="#5FC9C8" transform="matrix(1.00, 0.00, -0.00, -1.00, 15.5, 6.0)">l</text><text xml:space="preserve" font-family="Helvetica,Helvetica" font-size="18.0" fill="#5FC9C8" transform="matrix(1.00, 0.00, -0.00, -1.00, 19.5, 6.0)">e</text><text xml:space="preserve" font-family="Helvetica,Helvetica" font-size="18.0" fill="#5FC9C8" transform="matrix(1.00, 0.00, -0.00, -1.00, 29.5, 6.0)">.</text><text xml:space="preserve" font-family="Helvetica,Helvetica" font-size="18.0" fill="#5FC9C8" transform="matrix(1.00, 0.00, -0.00, -1.00, 34.5, 6.0)">a</text><text xml:space="preserve" font-family="Helvetica,Helvetica" font-size="18.0" fill="#5FC9C8" transform="matrix(1.00, 0.00, -0.00, -1.00, 44.6, 6.0)">d</text><text xml:space="preserve" font-family="Helvetica,Helvetica" font-size="18.0" fill="#5FC9C8" transform="matrix(1.00, 0.00, -0.00, -1.00, 54.6, 6.0)">d</text><text xml:space="preserve" font-family="Helvetica,Helvetica" font-size="18.0" fill="#5FC9C8" transform="matrix(1.00, 0.00, -0.00, -1.00, 64.6, 6.0)">E</text><text xml:space="preserve" font-family="Helvetica,Helvetica" font-size="18.0" fill="#5FC9C8" transform="matrix(1.00, 0.00, -0.00, -1.00, 76.6, 6.0)">v</text><text xml:space="preserve" font-family="Helvetica,Helvetica" font-size="18.0" fill="#5FC9C8" transform="matrix(1.00, 0.00, -0.00, -1.00, 85.6, 6.0)">e</text><text xml:space="preserve" font-family="Helvetica,Helvetica" font-size="18.0" fill="#5FC9C8" transform="matrix(1.00, 0.00, -0.00, -1.00, 95.6, 6.0)">n</text><text xml:space="preserve" font-family="Helvetica,Helvetica" font-size="18.0" fill="#5FC9C8" transform="matrix(1.00, 0.00, -0.00, -1.00, 105.6, 6.0)">t</text><text xml:space="preserve" font-family="Helvetica,Helvetica" font-size="18.0" fill="#5FC9C8" transform="matrix(1.00, 0.00, -0.00, -1.00, 110.6, 6.0)">L</text><text xml:space="preserve" font-family="Helvetica,Helvetica" font-size="18.0" fill="#5FC9C8" transform="matrix(1.00, 0.00, -0.00, -1.00, 120.6, 6.0)">i</text><text xml:space="preserve" font-family="Helvetica,Helvetica" font-size="18.0" fill="#5FC9C8" transform="matrix(1.00, 0.00, -0.00, -1.00, 124.6, 6.0)">s</text><text xml:space="preserve" font-family="Helvetica,Helvetica" font-size="18.0" fill="#5FC9C8" transform="matrix(1.00, 0.00, -0.00, -1.00, 133.6, 6.0)">t</text><text xml:space="preserve" font-family="Helvetica,Helvetica" font-size="18.0" fill="#5FC9C8" transform="matrix(1.00, 0.00, -0.00, -1.00, 138.6, 6.0)">e</text><text xml:space="preserve" font-family="Helvetica,Helvetica" font-size="18.0" fill="#5FC9C8" transform="matrix(1.00, 0.00, -0.00, -1.00, 148.6, 6.0)">n</text><text xml:space="preserve" font-family="Helvetica,Helvetica" font-size="18.0" fill="#5FC9C8" transform="matrix(1.00, 0.00, -0.00, -1.00, 158.7, 6.0)">e</text><text xml:space="preserve" font-family="Helvetica,Helvetica" font-size="18.0" fill="#5FC9C8" transform="matrix(1.00, 0.00, -0.00, -1.00, 168.7, 6.0)">r</text><text xml:space="preserve" font-family="Helvetica,Helvetica" font-size="18.0" fill="#5FC9C8" transform="matrix(1.00, 0.00, -0.00, -1.00, 174.7, 6.0)">(</text><text xml:space="preserve" font-family="Helvetica,Helvetica" font-size="18.0" fill="#5FC9C8" transform="matrix(1.00, 0.00, -0.00, -1.00, 180.7, 6.0)">'</text><text xml:space="preserve" font-family="Helvetica,Helvetica" font-size="18.0" fill="#5FC9C8" transform="matrix(1.00, 0.00, -0.00, -1.00, 184.1, 6.0)">m</text><text xml:space="preserve" font-family="Helvetica,Helvetica" font-size="18.0" fill="#5FC9C8" transform="matrix(1.00, 0.00, -0.00, -1.00, 199.1, 6.0)">o</text><text xml:space="preserve" font-family="Helvetica,Helvetica" font-size="18.0" fill="#5FC9C8" transform="matrix(1.00, 0.00, -0.00, -1.00, 209.1, 6.0)">u</text><text xml:space="preserve" font-family="Helvetica,Helvetica" font-size="18.0" fill="#5FC9C8" transform="matrix(1.00, 0.00, -0.00, -1.00, 219.1, 6.0)">s</text><text xml:space="preserve" font-family="Helvetica,Helvetica" font-size="18.0" fill="#5FC9C8" transform="matrix(1.00, 0.00, -0.00, -1.00, 228.1, 6.0)">e</text><text xml:space="preserve" font-family="Helvetica,Helvetica" font-size="18.0" fill="#5FC9C8" transform="matrix(1.00, 0.00, -0.00, -1.00, 238.1, 6.0)">o</text><text xml:space="preserve" font-family="Helvetica,Helvetica" font-size="18.0" fill="#5FC9C8" transform="matrix(1.00, 0.00, -0.00, -1.00, 248.2, 6.0)">v</text><text xml:space="preserve" font-family="Helvetica,Helvetica" font-size="18.0" fill="#5FC9C8" transform="matrix(1.00, 0.00, -0.00, -1.00, 257.2, 6.0)">e</text><text xml:space="preserve" font-family="Helvetica,Helvetica" font-size="18.0" fill="#5FC9C8" transform="matrix(1.00, 0.00, -0.00, -1.00, 267.2, 6.0)">r</text><text xml:space="preserve" font-family="Helvetica,Helvetica" font-size="18.0" fill="#5FC9C8" transform="matrix(1.00, 0.00, -0.00, -1.00, 273.2, 6.0)">'</text><text xml:space="preserve" font-family="Helvetica,Helvetica" font-size="18.0" fill="#5FC9C8" transform="matrix(1.00, 0.00, -0.00, -1.00, 276.6, 6.0)">,</text><text xml:space="preserve" font-family="Helvetica,Helvetica" font-size="18.0" fill="#5FC9C8" transform="matrix(1.00, 0.00, -0.00, -1.00, 281.6, 6.0)"> </text><text xml:space="preserve" font-family="Helvetica,Helvetica" font-size="18.0" fill="#5FC9C8" transform="matrix(1.00, 0.00, -0.00, -1.00, 286.6, 6.0)">d</text><text xml:space="preserve" font-family="Helvetica,Helvetica" font-size="18.0" fill="#5FC9C8" transform="matrix(1.00, 0.00, -0.00, -1.00, 296.6, 6.0)">i</text><text xml:space="preserve" font-family="Helvetica,Helvetica" font-size="18.0" fill="#5FC9C8" transform="matrix(1.00, 0.00, -0.00, -1.00, 300.6, 6.0)">s</text><text xml:space="preserve" font-family="Helvetica,Helvetica" font-size="18.0" fill="#5FC9C8" transform="matrix(1.00, 0.00, -0.00, -1.00, 309.6, 6.0)">p</text><text xml:space="preserve" font-family="Helvetica,Helvetica" font-size="18.0" fill="#5FC9C8" transform="matrix(1.00, 0.00, -0.00, -1.00, 319.6, 6.0)">l</text><text xml:space="preserve" font-family="Helvetica,Helvetica" font-size="18.0" fill="#5FC9C8" transform="matrix(1.00, 0.00, -0.00, -1.00, 323.6, 6.0)">a</text><text xml:space="preserve" font-family="Helvetica,Helvetica" font-size="18.0" fill="#5FC9C8" transform="matrix(1.00, 0.00, -0.00, -1.00, 333.6, 6.0)">y</text><text xml:space="preserve" font-family="Helvetica,Helvetica" font-size="18.0" fill="#5FC9C8" transform="matrix(1.00, 0.00, -0.00, -1.00, 342.6, 6.0)">M</text><text xml:space="preserve" font-family="Helvetica,Helvetica" font-size="18.0" fill="#5FC9C8" transform="matrix(1.00, 0.00, -0.00, -1.00, 357.6, 6.0)">e</text><text xml:space="preserve" font-family="Helvetica,Helvetica" font-size="18.0" fill="#5FC9C8" transform="matrix(1.00, 0.00, -0.00, -1.00, 367.6, 6.0)">s</text><text xml:space="preserve" font-family="Helvetica,Helvetica" font-size="18.0" fill="#5FC9C8" transform="matrix(1.00, 0.00, -0.00, -1.00, 376.6, 6.0)">s</text><text xml:space="preserve" font-family="Helvetica,Helvetica" font-size="18.0" fill="#5FC9C8" transform="matrix(1.00, 0.00, -0.00, -1.00, 385.6, 6.0)">a</text><text xml:space="preserve" font-family="Helvetica,Helvetica" font-size="18.0" fill="#5FC9C8" transform="matrix(1.00, 0.00, -0.00, -1.00, 395.7, 6.0)">g</text><text xml:space="preserve" font-family="Helvetica,Helvetica" font-size="18.0" fill="#5FC9C8" transform="matrix(1.00, 0.00, -0.00, -1.00, 405.7, 6.0)">e</text><text xml:space="preserve" font-family="Helvetica,Helvetica" font-size="18.0" fill="#5FC9C8" transform="matrix(1.00, 0.00, -0.00, -1.00, 415.7, 6.0)">)</text><text xml:space="preserve" font-family="Helvetica,Helvetica" font-size="18.0" fill="#5FC9C8" transform="matrix(1.00, 0.00, -0.00, -1.00, 421.7, 6.0)">;</text></g></svg>