<?xml version="1.0" encoding="UTF-8" standalone="no"?><svg xmlns="http://www.w3.org/2000/svg" xmlns:xlink="http://www.w3.org/1999/xlink" clip-rule="evenodd" stroke-miterlimit="10" viewBox="0 0 650 21"><desc>SVG generated by Keynote</desc><defs></defs><g transform="matrix(1.00, 0.00, -0.00, -1.00, 0.0, 21.0)"><text xml:space="preserve" font-family="Helvetica-Bold,Helvetica" font-weight="bold" font-size="19.0" fill="#5FCAC8" transform="matrix(1.00, 0.00, -0.00, -1.00, 0.5, 5.2)">4</text><text xml:space="preserve" font-family="Helvetica-Bold,Helvetica" font-weight="bold" font-size="19.0" fill="#5FCAC8" transform="matrix(1.00, 0.00, -0.00, -1.00, 11.1, 5.2)">.</text><text xml:space="preserve" font-family="Helvetica-Bold,Helvetica" font-weight="bold" font-size="19.0" fill="#5FCAC8" transform="matrix(1.00, 0.00, -0.00, -1.00, 46.4, 5.2)">A</text><text xml:space="preserve" font-family="Helvetica-Bold,Helvetica" font-weight="bold" font-size="19.0" fill="#5FCAC8" transform="matrix(1.00, 0.00, -0.00, -1.00, 58.3, 5.2)">T</text><text xml:space="preserve" font-family="Helvetica-Bold,Helvetica" font-weight="bold" font-size="19.0" fill="#5FCAC8" transform="matrix(1.00, 0.00, -0.00, -1.00, 69.5, 5.2)">T</text><text xml:space="preserve" font-family="Helvetica-Bold,Helvetica" font-weight="bold" font-size="19.0" fill="#5FCAC8" transform="matrix(1.00, 0.00, -0.00, -1.00, 79.4, 5.2)">A</text><text xml:space="preserve" font-family="Helvetica-Bold,Helvetica" font-weight="bold" font-size="19.0" fill="#5FCAC8" transform="matrix(1.00, 0.00, -0.00, -1.00, 92.7, 5.2)">C</text><text xml:space="preserve" font-family="Helvetica-Bold,Helvetica" font-weight="bold" font-size="19.0" fill="#5FCAC8" transform="matrix(1.00, 0.00, -0.00, -1.00, 106.0, 5.2)">H</text><text xml:space="preserve" font-family="Helvetica-Bold,Helvetica" font-weight="bold" font-size="19.0" fill="#5FCAC8" transform="matrix(1.00, 0.00, -0.00, -1.00, 119.4, 5.2)"> </text><text xml:space="preserve" font-family="Helvetica-Bold,Helvetica" font-weight="bold" font-size="19.0" fill="#5FCAC8" transform="matrix(1.00, 0.00, -0.00, -1.00, 123.6, 5.2)">A</text><text xml:space="preserve" font-family="Helvetica-Bold,Helvetica" font-weight="bold" font-size="19.0" fill="#5FCAC8" transform="matrix(1.00, 0.00, -0.00, -1.00, 136.9, 5.2)">N</text><text xml:space="preserve" font-family="Helvetica-Bold,Helvetica" font-weight="bold" font-size="19.0" fill="#5FCAC8" transform="matrix(1.00, 0.00, -0.00, -1.00, 150.3, 5.2)"> </text><text xml:space="preserve" font-family="Helvetica-Bold,Helvetica" font-weight="bold" font-size="19.0" fill="#C82505" transform="matrix(1.00, 0.00, -0.00, -1.00, 155.2, 5.2)">E</text><text xml:space="preserve" font-family="Helvetica-Bold,Helvetica" font-weight="bold" font-size="19.0" fill="#C82505" transform="matrix(1.00, 0.00, -0.00, -1.00, 167.5, 5.2)">V</text><text xml:space="preserve" font-family="Helvetica-Bold,Helvetica" font-weight="bold" font-size="19.0" fill="#C82505" transform="matrix(1.00, 0.00, -0.00, -1.00, 179.7, 5.2)">E</text><text xml:space="preserve" font-family="Helvetica-Bold,Helvetica" font-weight="bold" font-size="19.0" fill="#C82505" transform="matrix(1.00, 0.00, -0.00, -1.00, 192.0, 5.2)">N</text><text xml:space="preserve" font-family="Helvetica-Bold,Helvetica" font-weight="bold" font-size="19.0" fill="#C82505" transform="matrix(1.00, 0.00, -0.00, -1.00, 205.4, 5.2)">T</text><text xml:space="preserve" font-family="Helvetica-Bold,Helvetica" font-weight="bold" font-size="19.0" fill="#C82505" transform="matrix(1.00, 0.00, -0.00, -1.00, 216.6, 5.2)"> </text><text xml:space="preserve" font-family="Helvetica-Bold,Helvetica" font-weight="bold" font-size="19.0" fill="#C82505" transform="matrix(1.00, 0.00, -0.00, -1.00, 221.5, 5.2)">L</text><text xml:space="preserve" font-family="Helvetica-Bold,Helvetica" font-weight="bold" font-size="19.0" fill="#C82505" transform="matrix(1.00, 0.00, -0.00, -1.00, 232.7, 5.2)">I</text><text xml:space="preserve" font-family="Helvetica-Bold,Helvetica" font-weight="bold" font-size="19.0" fill="#C82505" transform="matrix(1.00, 0.00, -0.00, -1.00, 237.6, 5.2)">S</text><text xml:space="preserve" font-family="Helvetica-Bold,Helvetica" font-weight="bold" font-size="19.0" fill="#C82505" transform="matrix(1.00, 0.00, -0.00, -1.00, 249.9, 5.2)">T</text><text xml:space="preserve" font-family="Helvetica-Bold,Helvetica" font-weight="bold" font-size="19.0" fill="#C82505" transform="matrix(1.00, 0.00, -0.00, -1.00, 261.2, 5.2)">E</text><text xml:space="preserve" font-family="Helvetica-Bold,Helvetica" font-weight="bold" font-size="19.0" fill="#C82505" transform="matrix(1.00, 0.00, -0.00, -1.00, 273.4, 5.2)">N</text><text xml:space="preserve" font-family="Helvetica-Bold,Helvetica" font-weight="bold" font-size="19.0" fill="#C82505" transform="matrix(1.00, 0.00, -0.00, -1.00, 286.8, 5.2)">E</text><text xml:space="preserve" font-family="Helvetica-Bold,Helvetica" font-weight="bold" font-size="19.0" fill="#C82505" transform="matrix(1.00, 0.00, -0.00, -1.00, 299.1, 5.2)">R</text><text xml:space="preserve" font-family="Helvetica-Bold,Helvetica" font-weight="bold" font-size="19.0" fill="#5FCAC8" transform="matrix(1.00, 0.00, -0.00, -1.00, 312.4, 5.2)"> </text><text xml:space="preserve" font-family="Helvetica-Bold,Helvetica" font-weight="bold" font-size="19.0" fill="#5FCAC8" transform="matrix(1.00, 0.00, -0.00, -1.00, 317.3, 5.2)">T</text><text xml:space="preserve" font-family="Helvetica-Bold,Helvetica" font-weight="bold" font-size="19.0" fill="#5FCAC8" transform="matrix(1.00, 0.00, -0.00, -1.00, 328.5, 5.2)">H</text><text xml:space="preserve" font-family="Helvetica-Bold,Helvetica" font-weight="bold" font-size="19.0" fill="#5FCAC8" transform="matrix(1.00, 0.00, -0.00, -1.00, 341.9, 5.2)">A</text><text xml:space="preserve" font-family="Helvetica-Bold,Helvetica" font-weight="bold" font-size="19.0" fill="#5FCAC8" transform="matrix(1.00, 0.00, -0.00, -1.00, 353.8, 5.2)">T</text><text xml:space="preserve" font-family="Helvetica-Bold,Helvetica" font-weight="bold" font-size="19.0" fill="#5FCAC8" transform="matrix(1.00, 0.00, -0.00, -1.00, 365.0, 5.2)"> </text><text xml:space="preserve" font-family="Helvetica-Bold,Helvetica" font-weight="bold" font-size="19.0" fill="#5FCAC8" transform="matrix(1.00, 0.00, -0.00, -1.00, 369.9, 5.2)">W</text><text xml:space="preserve" font-family="Helvetica-Bold,Helvetica" font-weight="bold" font-size="19.0" fill="#5FCAC8" transform="matrix(1.00, 0.00, -0.00, -1.00, 387.5, 5.2)">I</text><text xml:space="preserve" font-family="Helvetica-Bold,Helvetica" font-weight="bold" font-size="19.0" fill="#5FCAC8" transform="matrix(1.00, 0.00, -0.00, -1.00, 392.4, 5.2)">L</text><text xml:space="preserve" font-family="Helvetica-Bold,Helvetica" font-weight="bold" font-size="19.0" fill="#5FCAC8" transform="matrix(1.00, 0.00, -0.00, -1.00, 403.6, 5.2)">L</text><text xml:space="preserve" font-family="Helvetica-Bold,Helvetica" font-weight="bold" font-size="19.0" fill="#5FCAC8" transform="matrix(1.00, 0.00, -0.00, -1.00, 414.5, 5.2)"> </text><text xml:space="preserve" font-family="Helvetica-Bold,Helvetica" font-weight="bold" font-size="19.0" fill="#5FCAC8" transform="matrix(1.00, 0.00, -0.00, -1.00, 419.4, 5.2)">T</text><text xml:space="preserve" font-family="Helvetica-Bold,Helvetica" font-weight="bold" font-size="19.0" fill="#5FCAC8" transform="matrix(1.00, 0.00, -0.00, -1.00, 430.6, 5.2)">R</text><text xml:space="preserve" font-family="Helvetica-Bold,Helvetica" font-weight="bold" font-size="19.0" fill="#5FCAC8" transform="matrix(1.00, 0.00, -0.00, -1.00, 443.9, 5.2)">I</text><text xml:space="preserve" font-family="Helvetica-Bold,Helvetica" font-weight="bold" font-size="19.0" fill="#5FCAC8" transform="matrix(1.00, 0.00, -0.00, -1.00, 448.8, 5.2)">G</text><text xml:space="preserve" font-family="Helvetica-Bold,Helvetica" font-weight="bold" font-size="19.0" fill="#5FCAC8" transform="matrix(1.00, 0.00, -0.00, -1.00, 463.2, 5.2)">G</text><text xml:space="preserve" font-family="Helvetica-Bold,Helvetica" font-weight="bold" font-size="19.0" fill="#5FCAC8" transform="matrix(1.00, 0.00, -0.00, -1.00, 477.6, 5.2)">E</text><text xml:space="preserve" font-family="Helvetica-Bold,Helvetica" font-weight="bold" font-size="19.0" fill="#5FCAC8" transform="matrix(1.00, 0.00, -0.00, -1.00, 489.9, 5.2)">R</text><text xml:space="preserve" font-family="Helvetica-Bold,Helvetica" font-weight="bold" font-size="19.0" fill="#5FCAC8" transform="matrix(1.00, 0.00, -0.00, -1.00, 503.3, 5.2)"> </text><text xml:space="preserve" font-family="Helvetica-Bold,Helvetica" font-weight="bold" font-size="19.0" fill="#5FCAC8" transform="matrix(1.00, 0.00, -0.00, -1.00, 508.2, 5.2)">O</text><text xml:space="preserve" font-family="Helvetica-Bold,Helvetica" font-weight="bold" font-size="19.0" fill="#5FCAC8" transform="matrix(1.00, 0.00, -0.00, -1.00, 522.5, 5.2)">U</text><text xml:space="preserve" font-family="Helvetica-Bold,Helvetica" font-weight="bold" font-size="19.0" fill="#5FCAC8" transform="matrix(1.00, 0.00, -0.00, -1.00, 535.9, 5.2)">R</text><text xml:space="preserve" font-family="Helvetica-Bold,Helvetica" font-weight="bold" font-size="19.0" fill="#5FCAC8" transform="matrix(1.00, 0.00, -0.00, -1.00, 549.2, 5.2)"> </text><text xml:space="preserve" font-family="Helvetica-Bold,Helvetica" font-weight="bold" font-size="19.0" fill="#5FCAC8" transform="matrix(1.00, 0.00, -0.00, -1.00, 554.1, 5.2)">F</text><text xml:space="preserve" font-family="Helvetica-Bold,Helvetica" font-weight="bold" font-size="19.0" fill="#5FCAC8" transform="matrix(1.00, 0.00, -0.00, -1.00, 565.3, 5.2)">U</text><text xml:space="preserve" font-family="Helvetica-Bold,Helvetica" font-weight="bold" font-size="19.0" fill="#5FCAC8" transform="matrix(1.00, 0.00, -0.00, -1.00, 578.7, 5.2)">N</text><text xml:space="preserve" font-family="Helvetica-Bold,Helvetica" font-weight="bold" font-size="19.0" fill="#5FCAC8" transform="matrix(1.00, 0.00, -0.00, -1.00, 592.0, 5.2)">C</text><text xml:space="preserve" font-family="Helvetica-Bold,Helvetica" font-weight="bold" font-size="19.0" fill="#5FCAC8" transform="matrix(1.00, 0.00, -0.00, -1.00, 605.3, 5.2)">T</text><text xml:space="preserve" font-family="Helvetica-Bold,Helvetica" font-weight="bold" font-size="19.0" fill="#5FCAC8" transform="matrix(1.00, 0.00, -0.00, -1.00, 616.6, 5.2)">I</text><text xml:space="preserve" font-family="Helvetica-Bold,Helvetica" font-weight="bold" font-size="19.0" fill="#5FCAC8" transform="matrix(1.00, 0.00, -0.00, -1.00, 621.5, 5.2)">O</text><text xml:space="preserve" font-family="Helvetica-Bold,Helvetica" font-weight="bold" font-size="19.0" fill="#5FCAC8" transform="matrix(1.00, 0.00, -0.00, -1.00, 635.9, 5.2)">N</text></g></svg>