<?xml version="1.0" encoding="UTF-8" standalone="no"?><svg xmlns="http://www.w3.org/2000/svg" xmlns:xlink="http://www.w3.org/1999/xlink" clip-rule="evenodd" stroke-miterlimit="10" viewBox="0 0 360 31"><desc>SVG generated by Keynote</desc><defs></defs><g transform="matrix(1.00, 0.00, -0.00, -1.00, 0.0, 31.0)"><text xml:space="preserve" font-family="LucidaGrande,Lucida Grande" font-size="20.3" fill="#FEFFFE" transform="matrix(1.00, 0.00, -0.00, -1.00, 0.2, 11.6)">‣</text><text xml:space="preserve" font-family="Helvetica,Helvetica" font-size="29.0" fill="#FEFFFE" transform="matrix(1.00, 0.00, -0.00, -1.00, 13.8, 8.4)">J</text><text xml:space="preserve" font-family="Helvetica,Helvetica" font-size="29.0" fill="#FEFFFE" transform="matrix(1.00, 0.00, -0.00, -1.00, 28.3, 8.4)">a</text><text xml:space="preserve" font-family="Helvetica,Helvetica" font-size="29.0" fill="#FEFFFE" transform="matrix(1.00, 0.00, -0.00, -1.00, 44.4, 8.4)">v</text><text xml:space="preserve" font-family="Helvetica,Helvetica" font-size="29.0" fill="#FEFFFE" transform="matrix(1.00, 0.00, -0.00, -1.00, 58.9, 8.4)">a</text><text xml:space="preserve" font-family="Helvetica,Helvetica" font-size="29.0" fill="#FEFFFE" transform="matrix(1.00, 0.00, -0.00, -1.00, 75.0, 8.4)">s</text><text xml:space="preserve" font-family="Helvetica,Helvetica" font-size="29.0" fill="#FEFFFE" transform="matrix(1.00, 0.00, -0.00, -1.00, 89.5, 8.4)">c</text><text xml:space="preserve" font-family="Helvetica,Helvetica" font-size="29.0" fill="#FEFFFE" transform="matrix(1.00, 0.00, -0.00, -1.00, 104.0, 8.4)">r</text><text xml:space="preserve" font-family="Helvetica,Helvetica" font-size="29.0" fill="#FEFFFE" transform="matrix(1.00, 0.00, -0.00, -1.00, 113.7, 8.4)">i</text><text xml:space="preserve" font-family="Helvetica,Helvetica" font-size="29.0" fill="#FEFFFE" transform="matrix(1.00, 0.00, -0.00, -1.00, 120.2, 8.4)">p</text><text xml:space="preserve" font-family="Helvetica,Helvetica" font-size="29.0" fill="#FEFFFE" transform="matrix(1.00, 0.00, -0.00, -1.00, 136.3, 8.4)">t</text><text xml:space="preserve" font-family="Helvetica,Helvetica" font-size="29.0" fill="#FEFFFE" transform="matrix(1.00, 0.00, -0.00, -1.00, 144.3, 8.4)"> </text><text xml:space="preserve" font-family="Helvetica,Helvetica" font-size="29.0" fill="#FEFFFE" transform="matrix(1.00, 0.00, -0.00, -1.00, 152.4, 8.4)">e</text><text xml:space="preserve" font-family="Helvetica,Helvetica" font-size="29.0" fill="#FEFFFE" transform="matrix(1.00, 0.00, -0.00, -1.00, 168.5, 8.4)">r</text><text xml:space="preserve" font-family="Helvetica,Helvetica" font-size="29.0" fill="#FEFFFE" transform="matrix(1.00, 0.00, -0.00, -1.00, 178.2, 8.4)">r</text><text xml:space="preserve" font-family="Helvetica,Helvetica" font-size="29.0" fill="#FEFFFE" transform="matrix(1.00, 0.00, -0.00, -1.00, 187.8, 8.4)">o</text><text xml:space="preserve" font-family="Helvetica,Helvetica" font-size="29.0" fill="#FEFFFE" transform="matrix(1.00, 0.00, -0.00, -1.00, 204.0, 8.4)">r</text><text xml:space="preserve" font-family="Helvetica,Helvetica" font-size="29.0" fill="#FEFFFE" transform="matrix(1.00, 0.00, -0.00, -1.00, 213.6, 8.4)">s</text><text xml:space="preserve" font-family="Helvetica,Helvetica" font-size="29.0" fill="#FEFFFE" transform="matrix(1.00, 0.00, -0.00, -1.00, 228.1, 8.4)"> </text><text xml:space="preserve" font-family="Helvetica,Helvetica" font-size="29.0" fill="#FEFFFE" transform="matrix(1.00, 0.00, -0.00, -1.00, 236.2, 8.4)">p</text><text xml:space="preserve" font-family="Helvetica,Helvetica" font-size="29.0" fill="#FEFFFE" transform="matrix(1.00, 0.00, -0.00, -1.00, 252.3, 8.4)">r</text><text xml:space="preserve" font-family="Helvetica,Helvetica" font-size="29.0" fill="#FEFFFE" transform="matrix(1.00, 0.00, -0.00, -1.00, 262.0, 8.4)">i</text><text xml:space="preserve" font-family="Helvetica,Helvetica" font-size="29.0" fill="#FEFFFE" transform="matrix(1.00, 0.00, -0.00, -1.00, 268.4, 8.4)">n</text><text xml:space="preserve" font-family="Helvetica,Helvetica" font-size="29.0" fill="#FEFFFE" transform="matrix(1.00, 0.00, -0.00, -1.00, 284.6, 8.4)">t</text><text xml:space="preserve" font-family="Helvetica,Helvetica" font-size="29.0" fill="#FEFFFE" transform="matrix(1.00, 0.00, -0.00, -1.00, 292.6, 8.4)"> </text><text xml:space="preserve" font-family="Helvetica,Helvetica" font-size="29.0" fill="#FEFFFE" transform="matrix(1.00, 0.00, -0.00, -1.00, 300.7, 8.4)">h</text><text xml:space="preserve" font-family="Helvetica,Helvetica" font-size="29.0" fill="#FEFFFE" transform="matrix(1.00, 0.00, -0.00, -1.00, 316.8, 8.4)">e</text><text xml:space="preserve" font-family="Helvetica,Helvetica" font-size="29.0" fill="#FEFFFE" transform="matrix(1.00, 0.00, -0.00, -1.00, 332.9, 8.4)">r</text><text xml:space="preserve" font-family="Helvetica,Helvetica" font-size="29.0" fill="#FEFFFE" transform="matrix(1.00, 0.00, -0.00, -1.00, 342.6, 8.4)">e</text></g></svg>