<?xml version="1.0" encoding="UTF-8" standalone="no"?><svg xmlns="http://www.w3.org/2000/svg" xmlns:xlink="http://www.w3.org/1999/xlink" clip-rule="evenodd" stroke-miterlimit="10" viewBox="0 0 839 32"><desc>SVG generated by Keynote</desc><defs></defs><g transform="matrix(1.00, 0.00, -0.00, -1.00, 0.0, 32.0)"><text xml:space="preserve" font-family="LucidaGrande,Lucida Grande" font-size="20.3" fill="#FEFFFE" transform="matrix(1.00, 0.00, -0.00, -1.00, 0.2, 11.6)">‣</text><text xml:space="preserve" font-family="Helvetica,Helvetica" font-size="29.0" fill="#FEFFFE" transform="matrix(1.00, 0.00, -0.00, -1.00, 13.8, 8.4)">C</text><text xml:space="preserve" font-family="Helvetica,Helvetica" font-size="29.0" fill="#FEFFFE" transform="matrix(1.00, 0.00, -0.00, -1.00, 34.7, 8.4)">o</text><text xml:space="preserve" font-family="Helvetica,Helvetica" font-size="29.0" fill="#FEFFFE" transform="matrix(1.00, 0.00, -0.00, -1.00, 50.9, 8.4)">n</text><text xml:space="preserve" font-family="Helvetica,Helvetica" font-size="29.0" fill="#FEFFFE" transform="matrix(1.00, 0.00, -0.00, -1.00, 67.0, 8.4)">n</text><text xml:space="preserve" font-family="Helvetica,Helvetica" font-size="29.0" fill="#FEFFFE" transform="matrix(1.00, 0.00, -0.00, -1.00, 83.1, 8.4)">e</text><text xml:space="preserve" font-family="Helvetica,Helvetica" font-size="29.0" fill="#FEFFFE" transform="matrix(1.00, 0.00, -0.00, -1.00, 99.3, 8.4)">c</text><text xml:space="preserve" font-family="Helvetica,Helvetica" font-size="29.0" fill="#FEFFFE" transform="matrix(1.00, 0.00, -0.00, -1.00, 113.8, 8.4)">t</text><text xml:space="preserve" font-family="Helvetica,Helvetica" font-size="29.0" fill="#FEFFFE" transform="matrix(1.00, 0.00, -0.00, -1.00, 121.8, 8.4)">e</text><text xml:space="preserve" font-family="Helvetica,Helvetica" font-size="29.0" fill="#FEFFFE" transform="matrix(1.00, 0.00, -0.00, -1.00, 138.0, 8.4)">d</text><text xml:space="preserve" font-family="Helvetica,Helvetica" font-size="29.0" fill="#FEFFFE" transform="matrix(1.00, 0.00, -0.00, -1.00, 154.1, 8.4)"> </text><text xml:space="preserve" font-family="Helvetica,Helvetica" font-size="29.0" fill="#FEFFFE" transform="matrix(1.00, 0.00, -0.00, -1.00, 162.1, 8.4)">u</text><text xml:space="preserve" font-family="Helvetica,Helvetica" font-size="29.0" fill="#FEFFFE" transform="matrix(1.00, 0.00, -0.00, -1.00, 178.3, 8.4)">s</text><text xml:space="preserve" font-family="Helvetica,Helvetica" font-size="29.0" fill="#FEFFFE" transform="matrix(1.00, 0.00, -0.00, -1.00, 192.8, 8.4)">i</text><text xml:space="preserve" font-family="Helvetica,Helvetica" font-size="29.0" fill="#FEFFFE" transform="matrix(1.00, 0.00, -0.00, -1.00, 199.2, 8.4)">n</text><text xml:space="preserve" font-family="Helvetica,Helvetica" font-size="29.0" fill="#FEFFFE" transform="matrix(1.00, 0.00, -0.00, -1.00, 215.4, 8.4)">g</text><text xml:space="preserve" font-family="Helvetica,Helvetica" font-size="29.0" fill="#FEFFFE" transform="matrix(1.00, 0.00, -0.00, -1.00, 231.5, 8.4)"> </text><text xml:space="preserve" font-family="Helvetica,Helvetica" font-size="29.0" fill="#FEFFFE" transform="matrix(1.00, 0.00, -0.00, -1.00, 239.5, 8.4)">t</text><text xml:space="preserve" font-family="Helvetica,Helvetica" font-size="29.0" fill="#FEFFFE" transform="matrix(1.00, 0.00, -0.00, -1.00, 247.6, 8.4)">h</text><text xml:space="preserve" font-family="Helvetica,Helvetica" font-size="29.0" fill="#FEFFFE" transform="matrix(1.00, 0.00, -0.00, -1.00, 263.7, 8.4)">e</text><text xml:space="preserve" font-family="Helvetica,Helvetica" font-size="29.0" fill="#FEFFFE" transform="matrix(1.00, 0.00, -0.00, -1.00, 279.9, 8.4)"> </text><text xml:space="preserve" font-family="Helvetica,Helvetica" font-size="29.0" fill="#FEFFFE" transform="matrix(1.00, 0.00, -0.00, -1.00, 287.9, 8.4)">d</text><text xml:space="preserve" font-family="Helvetica,Helvetica" font-size="29.0" fill="#FEFFFE" transform="matrix(1.00, 0.00, -0.00, -1.00, 304.0, 8.4)">o</text><text xml:space="preserve" font-family="Helvetica,Helvetica" font-size="29.0" fill="#FEFFFE" transform="matrix(1.00, 0.00, -0.00, -1.00, 320.2, 8.4)">c</text><text xml:space="preserve" font-family="Helvetica,Helvetica" font-size="29.0" fill="#FEFFFE" transform="matrix(1.00, 0.00, -0.00, -1.00, 334.7, 8.4)">u</text><text xml:space="preserve" font-family="Helvetica,Helvetica" font-size="29.0" fill="#FEFFFE" transform="matrix(1.00, 0.00, -0.00, -1.00, 350.8, 8.4)">m</text><text xml:space="preserve" font-family="Helvetica,Helvetica" font-size="29.0" fill="#FEFFFE" transform="matrix(1.00, 0.00, -0.00, -1.00, 375.0, 8.4)">e</text><text xml:space="preserve" font-family="Helvetica,Helvetica" font-size="29.0" fill="#FEFFFE" transform="matrix(1.00, 0.00, -0.00, -1.00, 391.1, 8.4)">n</text><text xml:space="preserve" font-family="Helvetica,Helvetica" font-size="29.0" fill="#FEFFFE" transform="matrix(1.00, 0.00, -0.00, -1.00, 407.2, 8.4)">t</text><text xml:space="preserve" font-family="Helvetica,Helvetica" font-size="29.0" fill="#FEFFFE" transform="matrix(1.00, 0.00, -0.00, -1.00, 415.3, 8.4)">,</text><text xml:space="preserve" font-family="Helvetica,Helvetica" font-size="29.0" fill="#FEFFFE" transform="matrix(1.00, 0.00, -0.00, -1.00, 423.3, 8.4)"> </text><text xml:space="preserve" font-family="Helvetica,Helvetica" font-size="29.0" fill="#FEFFFE" transform="matrix(1.00, 0.00, -0.00, -1.00, 431.4, 8.4)">w</text><text xml:space="preserve" font-family="Helvetica,Helvetica" font-size="29.0" fill="#FEFFFE" transform="matrix(1.00, 0.00, -0.00, -1.00, 452.3, 8.4)">i</text><text xml:space="preserve" font-family="Helvetica,Helvetica" font-size="29.0" fill="#FEFFFE" transform="matrix(1.00, 0.00, -0.00, -1.00, 458.8, 8.4)">n</text><text xml:space="preserve" font-family="Helvetica,Helvetica" font-size="29.0" fill="#FEFFFE" transform="matrix(1.00, 0.00, -0.00, -1.00, 474.9, 8.4)">d</text><text xml:space="preserve" font-family="Helvetica,Helvetica" font-size="29.0" fill="#FEFFFE" transform="matrix(1.00, 0.00, -0.00, -1.00, 491.1, 8.4)">o</text><text xml:space="preserve" font-family="Helvetica,Helvetica" font-size="29.0" fill="#FEFFFE" transform="matrix(1.00, 0.00, -0.00, -1.00, 507.2, 8.4)">w</text><text xml:space="preserve" font-family="Helvetica,Helvetica" font-size="29.0" fill="#FEFFFE" transform="matrix(1.00, 0.00, -0.00, -1.00, 528.1, 8.4)"> </text><text xml:space="preserve" font-family="Helvetica,Helvetica" font-size="29.0" fill="#FEFFFE" transform="matrix(1.00, 0.00, -0.00, -1.00, 536.2, 8.4)">a</text><text xml:space="preserve" font-family="Helvetica,Helvetica" font-size="29.0" fill="#FEFFFE" transform="matrix(1.00, 0.00, -0.00, -1.00, 552.3, 8.4)">n</text><text xml:space="preserve" font-family="Helvetica,Helvetica" font-size="29.0" fill="#FEFFFE" transform="matrix(1.00, 0.00, -0.00, -1.00, 568.5, 8.4)">d</text><text xml:space="preserve" font-family="Helvetica,Helvetica" font-size="29.0" fill="#FEFFFE" transform="matrix(1.00, 0.00, -0.00, -1.00, 584.6, 8.4)"> </text><text xml:space="preserve" font-family="Helvetica,Helvetica" font-size="29.0" fill="#FEFFFE" transform="matrix(1.00, 0.00, -0.00, -1.00, 592.6, 8.4)">o</text><text xml:space="preserve" font-family="Helvetica,Helvetica" font-size="29.0" fill="#FEFFFE" transform="matrix(1.00, 0.00, -0.00, -1.00, 608.8, 8.4)">t</text><text xml:space="preserve" font-family="Helvetica,Helvetica" font-size="29.0" fill="#FEFFFE" transform="matrix(1.00, 0.00, -0.00, -1.00, 616.8, 8.4)">h</text><text xml:space="preserve" font-family="Helvetica,Helvetica" font-size="29.0" fill="#FEFFFE" transform="matrix(1.00, 0.00, -0.00, -1.00, 633.0, 8.4)">e</text><text xml:space="preserve" font-family="Helvetica,Helvetica" font-size="29.0" fill="#FEFFFE" transform="matrix(1.00, 0.00, -0.00, -1.00, 649.1, 8.4)">r</text><text xml:space="preserve" font-family="Helvetica,Helvetica" font-size="29.0" fill="#FEFFFE" transform="matrix(1.00, 0.00, -0.00, -1.00, 658.8, 8.4)"> </text><text xml:space="preserve" font-family="Helvetica,Helvetica" font-size="29.0" fill="#FEFFFE" transform="matrix(1.00, 0.00, -0.00, -1.00, 666.8, 8.4)">b</text><text xml:space="preserve" font-family="Helvetica,Helvetica" font-size="29.0" fill="#FEFFFE" transform="matrix(1.00, 0.00, -0.00, -1.00, 682.9, 8.4)">r</text><text xml:space="preserve" font-family="Helvetica,Helvetica" font-size="29.0" fill="#FEFFFE" transform="matrix(1.00, 0.00, -0.00, -1.00, 692.6, 8.4)">o</text><text xml:space="preserve" font-family="Helvetica,Helvetica" font-size="29.0" fill="#FEFFFE" transform="matrix(1.00, 0.00, -0.00, -1.00, 708.7, 8.4)">w</text><text xml:space="preserve" font-family="Helvetica,Helvetica" font-size="29.0" fill="#FEFFFE" transform="matrix(1.00, 0.00, -0.00, -1.00, 729.7, 8.4)">s</text><text xml:space="preserve" font-family="Helvetica,Helvetica" font-size="29.0" fill="#FEFFFE" transform="matrix(1.00, 0.00, -0.00, -1.00, 744.2, 8.4)">e</text><text xml:space="preserve" font-family="Helvetica,Helvetica" font-size="29.0" fill="#FEFFFE" transform="matrix(1.00, 0.00, -0.00, -1.00, 760.3, 8.4)">r</text><text xml:space="preserve" font-family="Helvetica,Helvetica" font-size="29.0" fill="#FEFFFE" transform="matrix(1.00, 0.00, -0.00, -1.00, 770.0, 8.4)"> </text><text xml:space="preserve" font-family="Helvetica,Helvetica" font-size="29.0" fill="#FEFFFE" transform="matrix(1.00, 0.00, -0.00, -1.00, 776.4, 8.4)">A</text><text xml:space="preserve" font-family="Helvetica,Helvetica" font-size="29.0" fill="#FEFFFE" transform="matrix(1.00, 0.00, -0.00, -1.00, 795.8, 8.4)">P</text><text xml:space="preserve" font-family="Helvetica,Helvetica" font-size="29.0" fill="#FEFFFE" transform="matrix(1.00, 0.00, -0.00, -1.00, 815.1, 8.4)">I</text><text xml:space="preserve" font-family="Helvetica,Helvetica" font-size="29.0" fill="#FEFFFE" transform="matrix(1.00, 0.00, -0.00, -1.00, 823.2, 8.4)">s</text></g></svg>