<?xml version="1.0" encoding="UTF-8" standalone="no"?><svg xmlns="http://www.w3.org/2000/svg" xmlns:xlink="http://www.w3.org/1999/xlink" clip-rule="evenodd" stroke-miterlimit="10" viewBox="0 0 860 32"><desc>SVG generated by Keynote</desc><defs></defs><g transform="matrix(1.00, 0.00, -0.00, -1.00, 0.0, 32.0)"><text xml:space="preserve" font-family="Helvetica-Bold,Helvetica" font-weight="bold" font-size="29.0" fill="#C82505" transform="matrix(1.00, 0.00, -0.00, -1.00, 0.2, 8.4)">C</text><text xml:space="preserve" font-family="Helvetica-Bold,Helvetica" font-weight="bold" font-size="29.0" fill="#C82505" transform="matrix(1.00, 0.00, -0.00, -1.00, 21.2, 8.4)">O</text><text xml:space="preserve" font-family="Helvetica-Bold,Helvetica" font-weight="bold" font-size="29.0" fill="#C82505" transform="matrix(1.00, 0.00, -0.00, -1.00, 43.7, 8.4)">N</text><text xml:space="preserve" font-family="Helvetica-Bold,Helvetica" font-weight="bold" font-size="29.0" fill="#C82505" transform="matrix(1.00, 0.00, -0.00, -1.00, 64.7, 8.4)">S</text><text xml:space="preserve" font-family="Helvetica-Bold,Helvetica" font-weight="bold" font-size="29.0" fill="#C82505" transform="matrix(1.00, 0.00, -0.00, -1.00, 84.0, 8.4)">O</text><text xml:space="preserve" font-family="Helvetica-Bold,Helvetica" font-weight="bold" font-size="29.0" fill="#C82505" transform="matrix(1.00, 0.00, -0.00, -1.00, 106.6, 8.4)">L</text><text xml:space="preserve" font-family="Helvetica-Bold,Helvetica" font-weight="bold" font-size="29.0" fill="#C82505" transform="matrix(1.00, 0.00, -0.00, -1.00, 124.3, 8.4)">E</text><text xml:space="preserve" font-family="Helvetica-Bold,Helvetica" font-weight="bold" font-size="29.0" fill="#67D6D2" transform="matrix(1.00, 0.00, -0.00, -1.00, 143.6, 8.4)"> </text><text xml:space="preserve" font-family="Helvetica-Bold,Helvetica" font-weight="bold" font-size="29.0" fill="#67D6D2" transform="matrix(1.00, 0.00, -0.00, -1.00, 151.7, 8.4)">-</text><text xml:space="preserve" font-family="Helvetica-Bold,Helvetica" font-weight="bold" font-size="29.0" fill="#67D6D2" transform="matrix(1.00, 0.00, -0.00, -1.00, 161.4, 8.4)"> </text><text xml:space="preserve" font-family="Helvetica-Bold,Helvetica" font-weight="bold" font-size="29.0" fill="#67D6D2" transform="matrix(1.00, 0.00, -0.00, -1.00, 169.4, 8.4)">W</text><text xml:space="preserve" font-family="Helvetica-Bold,Helvetica" font-weight="bold" font-size="29.0" fill="#67D6D2" transform="matrix(1.00, 0.00, -0.00, -1.00, 196.8, 8.4)">h</text><text xml:space="preserve" font-family="Helvetica-Bold,Helvetica" font-weight="bold" font-size="29.0" fill="#67D6D2" transform="matrix(1.00, 0.00, -0.00, -1.00, 214.5, 8.4)">a</text><text xml:space="preserve" font-family="Helvetica-Bold,Helvetica" font-weight="bold" font-size="29.0" fill="#67D6D2" transform="matrix(1.00, 0.00, -0.00, -1.00, 230.6, 8.4)">t</text><text xml:space="preserve" font-family="Helvetica-Bold,Helvetica" font-weight="bold" font-size="29.0" fill="#67D6D2" transform="matrix(1.00, 0.00, -0.00, -1.00, 240.3, 8.4)"> </text><text xml:space="preserve" font-family="Helvetica-Bold,Helvetica" font-weight="bold" font-size="29.0" fill="#67D6D2" transform="matrix(1.00, 0.00, -0.00, -1.00, 248.3, 8.4)">h</text><text xml:space="preserve" font-family="Helvetica-Bold,Helvetica" font-weight="bold" font-size="29.0" fill="#67D6D2" transform="matrix(1.00, 0.00, -0.00, -1.00, 266.0, 8.4)">a</text><text xml:space="preserve" font-family="Helvetica-Bold,Helvetica" font-weight="bold" font-size="29.0" fill="#67D6D2" transform="matrix(1.00, 0.00, -0.00, -1.00, 282.2, 8.4)">v</text><text xml:space="preserve" font-family="Helvetica-Bold,Helvetica" font-weight="bold" font-size="29.0" fill="#67D6D2" transform="matrix(1.00, 0.00, -0.00, -1.00, 298.3, 8.4)">e</text><text xml:space="preserve" font-family="Helvetica-Bold,Helvetica" font-weight="bold" font-size="29.0" fill="#67D6D2" transform="matrix(1.00, 0.00, -0.00, -1.00, 314.4, 8.4)"> </text><text xml:space="preserve" font-family="Helvetica-Bold,Helvetica" font-weight="bold" font-size="29.0" fill="#67D6D2" transform="matrix(1.00, 0.00, -0.00, -1.00, 322.5, 8.4)">y</text><text xml:space="preserve" font-family="Helvetica-Bold,Helvetica" font-weight="bold" font-size="29.0" fill="#67D6D2" transform="matrix(1.00, 0.00, -0.00, -1.00, 338.6, 8.4)">o</text><text xml:space="preserve" font-family="Helvetica-Bold,Helvetica" font-weight="bold" font-size="29.0" fill="#67D6D2" transform="matrix(1.00, 0.00, -0.00, -1.00, 356.3, 8.4)">u</text><text xml:space="preserve" font-family="Helvetica-Bold,Helvetica" font-weight="bold" font-size="29.0" fill="#67D6D2" transform="matrix(1.00, 0.00, -0.00, -1.00, 374.0, 8.4)"> </text><text xml:space="preserve" font-family="Helvetica-Bold,Helvetica" font-weight="bold" font-size="29.0" fill="#67D6D2" transform="matrix(1.00, 0.00, -0.00, -1.00, 382.1, 8.4)">l</text><text xml:space="preserve" font-family="Helvetica-Bold,Helvetica" font-weight="bold" font-size="29.0" fill="#67D6D2" transform="matrix(1.00, 0.00, -0.00, -1.00, 390.1, 8.4)">e</text><text xml:space="preserve" font-family="Helvetica-Bold,Helvetica" font-weight="bold" font-size="29.0" fill="#67D6D2" transform="matrix(1.00, 0.00, -0.00, -1.00, 406.3, 8.4)">a</text><text xml:space="preserve" font-family="Helvetica-Bold,Helvetica" font-weight="bold" font-size="29.0" fill="#67D6D2" transform="matrix(1.00, 0.00, -0.00, -1.00, 422.4, 8.4)">r</text><text xml:space="preserve" font-family="Helvetica-Bold,Helvetica" font-weight="bold" font-size="29.0" fill="#67D6D2" transform="matrix(1.00, 0.00, -0.00, -1.00, 433.7, 8.4)">n</text><text xml:space="preserve" font-family="Helvetica-Bold,Helvetica" font-weight="bold" font-size="29.0" fill="#67D6D2" transform="matrix(1.00, 0.00, -0.00, -1.00, 451.4, 8.4)">e</text><text xml:space="preserve" font-family="Helvetica-Bold,Helvetica" font-weight="bold" font-size="29.0" fill="#67D6D2" transform="matrix(1.00, 0.00, -0.00, -1.00, 467.5, 8.4)">d</text><text xml:space="preserve" font-family="Helvetica-Bold,Helvetica" font-weight="bold" font-size="29.0" fill="#67D6D2" transform="matrix(1.00, 0.00, -0.00, -1.00, 485.2, 8.4)"> </text><text xml:space="preserve" font-family="Helvetica-Bold,Helvetica" font-weight="bold" font-size="29.0" fill="#67D6D2" transform="matrix(1.00, 0.00, -0.00, -1.00, 493.3, 8.4)">f</text><text xml:space="preserve" font-family="Helvetica-Bold,Helvetica" font-weight="bold" font-size="29.0" fill="#67D6D2" transform="matrix(1.00, 0.00, -0.00, -1.00, 503.0, 8.4)">r</text><text xml:space="preserve" font-family="Helvetica-Bold,Helvetica" font-weight="bold" font-size="29.0" fill="#67D6D2" transform="matrix(1.00, 0.00, -0.00, -1.00, 514.2, 8.4)">o</text><text xml:space="preserve" font-family="Helvetica-Bold,Helvetica" font-weight="bold" font-size="29.0" fill="#67D6D2" transform="matrix(1.00, 0.00, -0.00, -1.00, 532.0, 8.4)">m</text><text xml:space="preserve" font-family="Helvetica-Bold,Helvetica" font-weight="bold" font-size="29.0" fill="#67D6D2" transform="matrix(1.00, 0.00, -0.00, -1.00, 557.7, 8.4)"> </text><text xml:space="preserve" font-family="Helvetica-Bold,Helvetica" font-weight="bold" font-size="29.0" fill="#67D6D2" transform="matrix(1.00, 0.00, -0.00, -1.00, 565.8, 8.4)">r</text><text xml:space="preserve" font-family="Helvetica-Bold,Helvetica" font-weight="bold" font-size="29.0" fill="#67D6D2" transform="matrix(1.00, 0.00, -0.00, -1.00, 577.1, 8.4)">e</text><text xml:space="preserve" font-family="Helvetica-Bold,Helvetica" font-weight="bold" font-size="29.0" fill="#67D6D2" transform="matrix(1.00, 0.00, -0.00, -1.00, 593.2, 8.4)">s</text><text xml:space="preserve" font-family="Helvetica-Bold,Helvetica" font-weight="bold" font-size="29.0" fill="#67D6D2" transform="matrix(1.00, 0.00, -0.00, -1.00, 609.4, 8.4)">e</text><text xml:space="preserve" font-family="Helvetica-Bold,Helvetica" font-weight="bold" font-size="29.0" fill="#67D6D2" transform="matrix(1.00, 0.00, -0.00, -1.00, 625.5, 8.4)">a</text><text xml:space="preserve" font-family="Helvetica-Bold,Helvetica" font-weight="bold" font-size="29.0" fill="#67D6D2" transform="matrix(1.00, 0.00, -0.00, -1.00, 641.6, 8.4)">r</text><text xml:space="preserve" font-family="Helvetica-Bold,Helvetica" font-weight="bold" font-size="29.0" fill="#67D6D2" transform="matrix(1.00, 0.00, -0.00, -1.00, 652.9, 8.4)">c</text><text xml:space="preserve" font-family="Helvetica-Bold,Helvetica" font-weight="bold" font-size="29.0" fill="#67D6D2" transform="matrix(1.00, 0.00, -0.00, -1.00, 669.1, 8.4)">h</text><text xml:space="preserve" font-family="Helvetica-Bold,Helvetica" font-weight="bold" font-size="29.0" fill="#67D6D2" transform="matrix(1.00, 0.00, -0.00, -1.00, 686.8, 8.4)">i</text><text xml:space="preserve" font-family="Helvetica-Bold,Helvetica" font-weight="bold" font-size="29.0" fill="#67D6D2" transform="matrix(1.00, 0.00, -0.00, -1.00, 694.8, 8.4)">n</text><text xml:space="preserve" font-family="Helvetica-Bold,Helvetica" font-weight="bold" font-size="29.0" fill="#67D6D2" transform="matrix(1.00, 0.00, -0.00, -1.00, 712.5, 8.4)">g</text><text xml:space="preserve" font-family="Helvetica-Bold,Helvetica" font-weight="bold" font-size="29.0" fill="#67D6D2" transform="matrix(1.00, 0.00, -0.00, -1.00, 730.2, 8.4)"> </text><text xml:space="preserve" font-family="Helvetica-Bold,Helvetica" font-weight="bold" font-size="29.0" fill="#67D6D2" transform="matrix(1.00, 0.00, -0.00, -1.00, 738.3, 8.4)">i</text><text xml:space="preserve" font-family="Helvetica-Bold,Helvetica" font-weight="bold" font-size="29.0" fill="#67D6D2" transform="matrix(1.00, 0.00, -0.00, -1.00, 746.3, 8.4)">n</text><text xml:space="preserve" font-family="Helvetica-Bold,Helvetica" font-weight="bold" font-size="29.0" fill="#67D6D2" transform="matrix(1.00, 0.00, -0.00, -1.00, 764.0, 8.4)"> </text><text xml:space="preserve" font-family="Helvetica-Bold,Helvetica" font-weight="bold" font-size="29.0" fill="#67D6D2" transform="matrix(1.00, 0.00, -0.00, -1.00, 772.1, 8.4)">p</text><text xml:space="preserve" font-family="Helvetica-Bold,Helvetica" font-weight="bold" font-size="29.0" fill="#67D6D2" transform="matrix(1.00, 0.00, -0.00, -1.00, 789.8, 8.4)">a</text><text xml:space="preserve" font-family="Helvetica-Bold,Helvetica" font-weight="bold" font-size="29.0" fill="#67D6D2" transform="matrix(1.00, 0.00, -0.00, -1.00, 805.9, 8.4)">i</text><text xml:space="preserve" font-family="Helvetica-Bold,Helvetica" font-weight="bold" font-size="29.0" fill="#67D6D2" transform="matrix(1.00, 0.00, -0.00, -1.00, 814.0, 8.4)">r</text><text xml:space="preserve" font-family="Helvetica-Bold,Helvetica" font-weight="bold" font-size="29.0" fill="#67D6D2" transform="matrix(1.00, 0.00, -0.00, -1.00, 825.3, 8.4)">s</text><text xml:space="preserve" font-family="Helvetica-Bold,Helvetica" font-weight="bold" font-size="29.0" fill="#67D6D2" transform="matrix(1.00, 0.00, -0.00, -1.00, 841.4, 8.4)">?</text></g></svg>