<?xml version="1.0" encoding="UTF-8" standalone="no"?><svg xmlns="http://www.w3.org/2000/svg" xmlns:xlink="http://www.w3.org/1999/xlink" clip-rule="evenodd" stroke-miterlimit="10" viewBox="0 0 740 31"><desc>SVG generated by Keynote</desc><defs></defs><g transform="matrix(1.00, 0.00, -0.00, -1.00, 0.0, 31.0)"><text xml:space="preserve" font-family="LucidaGrande,Lucida Grande" font-size="20.3" fill="#FEFFFE" transform="matrix(1.00, 0.00, -0.00, -1.00, 0.2, 11.6)">‣</text><text xml:space="preserve" font-family="Helvetica,Helvetica" font-size="29.0" fill="#FEFFFE" transform="matrix(1.00, 0.00, -0.00, -1.00, 13.8, 8.4)">L</text><text xml:space="preserve" font-family="Helvetica,Helvetica" font-size="29.0" fill="#FEFFFE" transform="matrix(1.00, 0.00, -0.00, -1.00, 29.9, 8.4)">i</text><text xml:space="preserve" font-family="Helvetica,Helvetica" font-size="29.0" fill="#FEFFFE" transform="matrix(1.00, 0.00, -0.00, -1.00, 36.4, 8.4)">v</text><text xml:space="preserve" font-family="Helvetica,Helvetica" font-size="29.0" fill="#FEFFFE" transform="matrix(1.00, 0.00, -0.00, -1.00, 50.9, 8.4)">e</text><text xml:space="preserve" font-family="Helvetica,Helvetica" font-size="29.0" fill="#FEFFFE" transform="matrix(1.00, 0.00, -0.00, -1.00, 67.0, 8.4)"> </text><text xml:space="preserve" font-family="Helvetica,Helvetica" font-size="29.0" fill="#FEFFFE" transform="matrix(1.00, 0.00, -0.00, -1.00, 75.0, 8.4)">e</text><text xml:space="preserve" font-family="Helvetica,Helvetica" font-size="29.0" fill="#FEFFFE" transform="matrix(1.00, 0.00, -0.00, -1.00, 91.2, 8.4)">d</text><text xml:space="preserve" font-family="Helvetica,Helvetica" font-size="29.0" fill="#FEFFFE" transform="matrix(1.00, 0.00, -0.00, -1.00, 107.3, 8.4)">i</text><text xml:space="preserve" font-family="Helvetica,Helvetica" font-size="29.0" fill="#FEFFFE" transform="matrix(1.00, 0.00, -0.00, -1.00, 113.8, 8.4)">t</text><text xml:space="preserve" font-family="Helvetica,Helvetica" font-size="29.0" fill="#FEFFFE" transform="matrix(1.00, 0.00, -0.00, -1.00, 121.8, 8.4)">s</text><text xml:space="preserve" font-family="Helvetica,Helvetica" font-size="29.0" fill="#FEFFFE" transform="matrix(1.00, 0.00, -0.00, -1.00, 136.3, 8.4)"> </text><text xml:space="preserve" font-family="Helvetica,Helvetica" font-size="29.0" fill="#FEFFFE" transform="matrix(1.00, 0.00, -0.00, -1.00, 144.4, 8.4)">j</text><text xml:space="preserve" font-family="Helvetica,Helvetica" font-size="29.0" fill="#FEFFFE" transform="matrix(1.00, 0.00, -0.00, -1.00, 150.8, 8.4)">u</text><text xml:space="preserve" font-family="Helvetica,Helvetica" font-size="29.0" fill="#FEFFFE" transform="matrix(1.00, 0.00, -0.00, -1.00, 167.0, 8.4)">s</text><text xml:space="preserve" font-family="Helvetica,Helvetica" font-size="29.0" fill="#FEFFFE" transform="matrix(1.00, 0.00, -0.00, -1.00, 181.5, 8.4)">t</text><text xml:space="preserve" font-family="Helvetica,Helvetica" font-size="29.0" fill="#FEFFFE" transform="matrix(1.00, 0.00, -0.00, -1.00, 189.5, 8.4)"> </text><text xml:space="preserve" font-family="Helvetica,Helvetica" font-size="29.0" fill="#FEFFFE" transform="matrix(1.00, 0.00, -0.00, -1.00, 197.6, 8.4)">l</text><text xml:space="preserve" font-family="Helvetica,Helvetica" font-size="29.0" fill="#FEFFFE" transform="matrix(1.00, 0.00, -0.00, -1.00, 204.0, 8.4)">i</text><text xml:space="preserve" font-family="Helvetica,Helvetica" font-size="29.0" fill="#FEFFFE" transform="matrix(1.00, 0.00, -0.00, -1.00, 210.5, 8.4)">k</text><text xml:space="preserve" font-family="Helvetica,Helvetica" font-size="29.0" fill="#FEFFFE" transform="matrix(1.00, 0.00, -0.00, -1.00, 225.0, 8.4)">e</text><text xml:space="preserve" font-family="Helvetica,Helvetica" font-size="29.0" fill="#FEFFFE" transform="matrix(1.00, 0.00, -0.00, -1.00, 241.1, 8.4)"> </text><text xml:space="preserve" font-family="Helvetica,Helvetica" font-size="29.0" fill="#FEFFFE" transform="matrix(1.00, 0.00, -0.00, -1.00, 249.1, 8.4)">i</text><text xml:space="preserve" font-family="Helvetica,Helvetica" font-size="29.0" fill="#FEFFFE" transform="matrix(1.00, 0.00, -0.00, -1.00, 255.6, 8.4)">n</text><text xml:space="preserve" font-family="Helvetica,Helvetica" font-size="29.0" fill="#FEFFFE" transform="matrix(1.00, 0.00, -0.00, -1.00, 271.7, 8.4)"> </text><text xml:space="preserve" font-family="Helvetica,Helvetica" font-size="29.0" fill="#FEFFFE" transform="matrix(1.00, 0.00, -0.00, -1.00, 279.8, 8.4)">t</text><text xml:space="preserve" font-family="Helvetica,Helvetica" font-size="29.0" fill="#FEFFFE" transform="matrix(1.00, 0.00, -0.00, -1.00, 287.8, 8.4)">h</text><text xml:space="preserve" font-family="Helvetica,Helvetica" font-size="29.0" fill="#FEFFFE" transform="matrix(1.00, 0.00, -0.00, -1.00, 304.0, 8.4)">e</text><text xml:space="preserve" font-family="Helvetica,Helvetica" font-size="29.0" fill="#FEFFFE" transform="matrix(1.00, 0.00, -0.00, -1.00, 320.1, 8.4)"> </text><text xml:space="preserve" font-family="Helvetica,Helvetica" font-size="29.0" fill="#FEFFFE" transform="matrix(1.00, 0.00, -0.00, -1.00, 328.1, 8.4)">‘</text><text xml:space="preserve" font-family="Helvetica,Helvetica" font-size="29.0" fill="#FEFFFE" transform="matrix(1.00, 0.00, -0.00, -1.00, 334.6, 8.4)">E</text><text xml:space="preserve" font-family="Helvetica,Helvetica" font-size="29.0" fill="#FEFFFE" transform="matrix(1.00, 0.00, -0.00, -1.00, 353.9, 8.4)">l</text><text xml:space="preserve" font-family="Helvetica,Helvetica" font-size="29.0" fill="#FEFFFE" transform="matrix(1.00, 0.00, -0.00, -1.00, 360.4, 8.4)">e</text><text xml:space="preserve" font-family="Helvetica,Helvetica" font-size="29.0" fill="#FEFFFE" transform="matrix(1.00, 0.00, -0.00, -1.00, 376.5, 8.4)">m</text><text xml:space="preserve" font-family="Helvetica,Helvetica" font-size="29.0" fill="#FEFFFE" transform="matrix(1.00, 0.00, -0.00, -1.00, 400.7, 8.4)">e</text><text xml:space="preserve" font-family="Helvetica,Helvetica" font-size="29.0" fill="#FEFFFE" transform="matrix(1.00, 0.00, -0.00, -1.00, 416.8, 8.4)">n</text><text xml:space="preserve" font-family="Helvetica,Helvetica" font-size="29.0" fill="#FEFFFE" transform="matrix(1.00, 0.00, -0.00, -1.00, 432.9, 8.4)">t</text><text xml:space="preserve" font-family="Helvetica,Helvetica" font-size="29.0" fill="#FEFFFE" transform="matrix(1.00, 0.00, -0.00, -1.00, 441.0, 8.4)">s</text><text xml:space="preserve" font-family="Helvetica,Helvetica" font-size="29.0" fill="#FEFFFE" transform="matrix(1.00, 0.00, -0.00, -1.00, 455.5, 8.4)">’</text><text xml:space="preserve" font-family="Helvetica,Helvetica" font-size="29.0" fill="#FEFFFE" transform="matrix(1.00, 0.00, -0.00, -1.00, 460.9, 8.4)"> </text><text xml:space="preserve" font-family="Helvetica,Helvetica" font-size="29.0" fill="#FEFFFE" transform="matrix(1.00, 0.00, -0.00, -1.00, 468.9, 8.4)">t</text><text xml:space="preserve" font-family="Helvetica,Helvetica" font-size="29.0" fill="#FEFFFE" transform="matrix(1.00, 0.00, -0.00, -1.00, 477.0, 8.4)">a</text><text xml:space="preserve" font-family="Helvetica,Helvetica" font-size="29.0" fill="#FEFFFE" transform="matrix(1.00, 0.00, -0.00, -1.00, 493.1, 8.4)">b</text><text xml:space="preserve" font-family="Helvetica,Helvetica" font-size="29.0" fill="#FEFFFE" transform="matrix(1.00, 0.00, -0.00, -1.00, 509.2, 8.4)"> </text><text xml:space="preserve" font-family="Helvetica,Helvetica" font-size="29.0" fill="#FEFFFE" transform="matrix(1.00, 0.00, -0.00, -1.00, 517.3, 8.4)">b</text><text xml:space="preserve" font-family="Helvetica,Helvetica" font-size="29.0" fill="#FEFFFE" transform="matrix(1.00, 0.00, -0.00, -1.00, 533.4, 8.4)">u</text><text xml:space="preserve" font-family="Helvetica,Helvetica" font-size="29.0" fill="#FEFFFE" transform="matrix(1.00, 0.00, -0.00, -1.00, 549.6, 8.4)">t</text><text xml:space="preserve" font-family="Helvetica,Helvetica" font-size="29.0" fill="#FEFFFE" transform="matrix(1.00, 0.00, -0.00, -1.00, 557.6, 8.4)"> </text><text xml:space="preserve" font-family="Helvetica,Helvetica" font-size="29.0" fill="#FEFFFE" transform="matrix(1.00, 0.00, -0.00, -1.00, 565.7, 8.4)">f</text><text xml:space="preserve" font-family="Helvetica,Helvetica" font-size="29.0" fill="#FEFFFE" transform="matrix(1.00, 0.00, -0.00, -1.00, 573.7, 8.4)">o</text><text xml:space="preserve" font-family="Helvetica,Helvetica" font-size="29.0" fill="#FEFFFE" transform="matrix(1.00, 0.00, -0.00, -1.00, 589.9, 8.4)">r</text><text xml:space="preserve" font-family="Helvetica,Helvetica" font-size="29.0" fill="#FEFFFE" transform="matrix(1.00, 0.00, -0.00, -1.00, 599.5, 8.4)"> </text><text xml:space="preserve" font-family="Helvetica,Helvetica" font-size="29.0" fill="#FEFFFE" transform="matrix(1.00, 0.00, -0.00, -1.00, 607.6, 8.4)">J</text><text xml:space="preserve" font-family="Helvetica,Helvetica" font-size="29.0" fill="#FEFFFE" transform="matrix(1.00, 0.00, -0.00, -1.00, 622.1, 8.4)">a</text><text xml:space="preserve" font-family="Helvetica,Helvetica" font-size="29.0" fill="#FEFFFE" transform="matrix(1.00, 0.00, -0.00, -1.00, 638.2, 8.4)">v</text><text xml:space="preserve" font-family="Helvetica,Helvetica" font-size="29.0" fill="#FEFFFE" transform="matrix(1.00, 0.00, -0.00, -1.00, 652.7, 8.4)">a</text><text xml:space="preserve" font-family="Helvetica,Helvetica" font-size="29.0" fill="#FEFFFE" transform="matrix(1.00, 0.00, -0.00, -1.00, 668.8, 8.4)">s</text><text xml:space="preserve" font-family="Helvetica,Helvetica" font-size="29.0" fill="#FEFFFE" transform="matrix(1.00, 0.00, -0.00, -1.00, 683.3, 8.4)">c</text><text xml:space="preserve" font-family="Helvetica,Helvetica" font-size="29.0" fill="#FEFFFE" transform="matrix(1.00, 0.00, -0.00, -1.00, 697.8, 8.4)">r</text><text xml:space="preserve" font-family="Helvetica,Helvetica" font-size="29.0" fill="#FEFFFE" transform="matrix(1.00, 0.00, -0.00, -1.00, 707.5, 8.4)">i</text><text xml:space="preserve" font-family="Helvetica,Helvetica" font-size="29.0" fill="#FEFFFE" transform="matrix(1.00, 0.00, -0.00, -1.00, 713.9, 8.4)">p</text><text xml:space="preserve" font-family="Helvetica,Helvetica" font-size="29.0" fill="#FEFFFE" transform="matrix(1.00, 0.00, -0.00, -1.00, 730.1, 8.4)">t</text></g></svg>