<?xml version="1.0" encoding="UTF-8" standalone="no"?><svg xmlns="http://www.w3.org/2000/svg" xmlns:xlink="http://www.w3.org/1999/xlink" clip-rule="evenodd" stroke-miterlimit="10" viewBox="0 0 428 57"><desc>SVG generated by Keynote</desc><defs></defs><g transform="matrix(1.00, 0.00, -0.00, -1.00, 0.0, 57.0)"><text xml:space="preserve" font-family="Helvetica-Bold,Helvetica" font-weight="bold" font-size="70.0" fill="#FEFFFF" transform="matrix(1.00, 0.00, -0.00, -1.00, -2.0, 3.1)">O</text><text xml:space="preserve" font-family="Helvetica-Bold,Helvetica" font-weight="bold" font-size="70.0" fill="#FEFFFF" transform="matrix(1.00, 0.00, -0.00, -1.00, 51.0, 3.1)">B</text><text xml:space="preserve" font-family="Helvetica-Bold,Helvetica" font-weight="bold" font-size="70.0" fill="#FEFFFF" transform="matrix(1.00, 0.00, -0.00, -1.00, 100.2, 3.1)">J</text><text xml:space="preserve" font-family="Helvetica-Bold,Helvetica" font-weight="bold" font-size="70.0" fill="#FEFFFF" transform="matrix(1.00, 0.00, -0.00, -1.00, 137.7, 3.1)">E</text><text xml:space="preserve" font-family="Helvetica-Bold,Helvetica" font-weight="bold" font-size="70.0" fill="#FEFFFF" transform="matrix(1.00, 0.00, -0.00, -1.00, 183.0, 3.1)">C</text><text xml:space="preserve" font-family="Helvetica-Bold,Helvetica" font-weight="bold" font-size="70.0" fill="#FEFFFF" transform="matrix(1.00, 0.00, -0.00, -1.00, 232.1, 3.1)">T</text><text xml:space="preserve" font-family="Helvetica-Bold,Helvetica" font-weight="bold" font-size="70.0" fill="#FEFFFF" transform="matrix(1.00, 0.00, -0.00, -1.00, 273.4, 3.1)">I</text><text xml:space="preserve" font-family="Helvetica-Bold,Helvetica" font-weight="bold" font-size="70.0" fill="#FEFFFF" transform="matrix(1.00, 0.00, -0.00, -1.00, 291.5, 3.1)">V</text><text xml:space="preserve" font-family="Helvetica-Bold,Helvetica" font-weight="bold" font-size="70.0" fill="#FEFFFF" transform="matrix(1.00, 0.00, -0.00, -1.00, 336.8, 3.1)">E</text><text xml:space="preserve" font-family="Helvetica-Bold,Helvetica" font-weight="bold" font-size="70.0" fill="#FEFFFF" transform="matrix(1.00, 0.00, -0.00, -1.00, 382.0, 3.1)">S</text></g></svg>