<?xml version="1.0" encoding="UTF-8" standalone="no"?><svg xmlns="http://www.w3.org/2000/svg" xmlns:xlink="http://www.w3.org/1999/xlink" clip-rule="evenodd" stroke-miterlimit="10" viewBox="0 0 452 168"><desc>SVG generated by Keynote</desc><defs></defs><g transform="matrix(1.00, 0.00, -0.00, -1.00, 0.0, 168.0)"><text xml:space="preserve" font-family="LucidaGrande,Lucida Grande" font-size="20.3" fill="#5FCAC8" transform="matrix(1.00, 0.00, -0.00, -1.00, 0.5, 147.2)">‣</text><text xml:space="preserve" font-family="Helvetica-Bold,Helvetica" font-weight="bold" font-size="29.0" fill="#5FCAC8" transform="matrix(1.00, 0.00, -0.00, -1.00, 30.1, 144.0)">C</text><text xml:space="preserve" font-family="Helvetica-Bold,Helvetica" font-weight="bold" font-size="29.0" fill="#5FCAC8" transform="matrix(1.00, 0.00, -0.00, -1.00, 50.4, 144.0)">H</text><text xml:space="preserve" font-family="Helvetica-Bold,Helvetica" font-weight="bold" font-size="29.0" fill="#5FCAC8" transform="matrix(1.00, 0.00, -0.00, -1.00, 70.8, 144.0)">R</text><text xml:space="preserve" font-family="Helvetica-Bold,Helvetica" font-weight="bold" font-size="29.0" fill="#5FCAC8" transform="matrix(1.00, 0.00, -0.00, -1.00, 91.2, 144.0)">O</text><text xml:space="preserve" font-family="Helvetica-Bold,Helvetica" font-weight="bold" font-size="29.0" fill="#5FCAC8" transform="matrix(1.00, 0.00, -0.00, -1.00, 113.2, 144.0)">M</text><text xml:space="preserve" font-family="Helvetica-Bold,Helvetica" font-weight="bold" font-size="29.0" fill="#5FCAC8" transform="matrix(1.00, 0.00, -0.00, -1.00, 136.7, 144.0)">E</text><text xml:space="preserve" font-family="Helvetica-Bold,Helvetica" font-weight="bold" font-size="29.0" fill="#5FCAC8" transform="matrix(1.00, 0.00, -0.00, -1.00, 155.5, 144.0)"> </text><text xml:space="preserve" font-family="Helvetica-Bold,Helvetica" font-weight="bold" font-size="29.0" fill="#5FCAC8" transform="matrix(1.00, 0.00, -0.00, -1.00, 162.9, 144.0)">D</text><text xml:space="preserve" font-family="Helvetica-Bold,Helvetica" font-weight="bold" font-size="29.0" fill="#5FCAC8" transform="matrix(1.00, 0.00, -0.00, -1.00, 183.3, 144.0)">E</text><text xml:space="preserve" font-family="Helvetica-Bold,Helvetica" font-weight="bold" font-size="29.0" fill="#5FCAC8" transform="matrix(1.00, 0.00, -0.00, -1.00, 202.1, 144.0)">V</text><text xml:space="preserve" font-family="Helvetica-Bold,Helvetica" font-weight="bold" font-size="29.0" fill="#5FCAC8" transform="matrix(1.00, 0.00, -0.00, -1.00, 220.8, 144.0)">E</text><text xml:space="preserve" font-family="Helvetica-Bold,Helvetica" font-weight="bold" font-size="29.0" fill="#5FCAC8" transform="matrix(1.00, 0.00, -0.00, -1.00, 239.6, 144.0)">L</text><text xml:space="preserve" font-family="Helvetica-Bold,Helvetica" font-weight="bold" font-size="29.0" fill="#5FCAC8" transform="matrix(1.00, 0.00, -0.00, -1.00, 256.7, 144.0)">O</text><text xml:space="preserve" font-family="Helvetica-Bold,Helvetica" font-weight="bold" font-size="29.0" fill="#5FCAC8" transform="matrix(1.00, 0.00, -0.00, -1.00, 278.7, 144.0)">P</text><text xml:space="preserve" font-family="Helvetica-Bold,Helvetica" font-weight="bold" font-size="29.0" fill="#5FCAC8" transform="matrix(1.00, 0.00, -0.00, -1.00, 297.4, 144.0)">E</text><text xml:space="preserve" font-family="Helvetica-Bold,Helvetica" font-weight="bold" font-size="29.0" fill="#5FCAC8" transform="matrix(1.00, 0.00, -0.00, -1.00, 316.2, 144.0)">R</text><text xml:space="preserve" font-family="Helvetica-Bold,Helvetica" font-weight="bold" font-size="29.0" fill="#5FCAC8" transform="matrix(1.00, 0.00, -0.00, -1.00, 336.5, 144.0)"> </text><text xml:space="preserve" font-family="Helvetica-Bold,Helvetica" font-weight="bold" font-size="29.0" fill="#5FCAC8" transform="matrix(1.00, 0.00, -0.00, -1.00, 344.0, 144.0)">T</text><text xml:space="preserve" font-family="Helvetica-Bold,Helvetica" font-weight="bold" font-size="29.0" fill="#5FCAC8" transform="matrix(1.00, 0.00, -0.00, -1.00, 360.6, 144.0)">O</text><text xml:space="preserve" font-family="Helvetica-Bold,Helvetica" font-weight="bold" font-size="29.0" fill="#5FCAC8" transform="matrix(1.00, 0.00, -0.00, -1.00, 382.6, 144.0)">O</text><text xml:space="preserve" font-family="Helvetica-Bold,Helvetica" font-weight="bold" font-size="29.0" fill="#5FCAC8" transform="matrix(1.00, 0.00, -0.00, -1.00, 404.6, 144.0)">L</text><text xml:space="preserve" font-family="Helvetica-Bold,Helvetica" font-weight="bold" font-size="29.0" fill="#5FCAC8" transform="matrix(1.00, 0.00, -0.00, -1.00, 421.7, 144.0)">S</text><text xml:space="preserve" font-family="Helvetica-Bold,Helvetica" font-weight="bold" font-size="29.0" fill="#5FCAC8" transform="matrix(1.00, 0.00, -0.00, -1.00, 440.5, 144.0)">:</text><text xml:space="preserve" font-family="LucidaGrande,Lucida Grande" font-size="20.3" fill="#5FCAC8" transform="matrix(1.00, 0.00, -0.00, -1.00, 32.5, 112.4)">‣</text><text xml:space="preserve" font-family="Helvetica-Bold,Helvetica" font-weight="bold" font-size="29.0" fill="#5FCAC8" transform="matrix(1.00, 0.00, -0.00, -1.00, 62.1, 109.3)">E</text><text xml:space="preserve" font-family="Helvetica-Bold,Helvetica" font-weight="bold" font-size="29.0" fill="#5FCAC8" transform="matrix(1.00, 0.00, -0.00, -1.00, 80.8, 109.3)">L</text><text xml:space="preserve" font-family="Helvetica-Bold,Helvetica" font-weight="bold" font-size="29.0" fill="#5FCAC8" transform="matrix(1.00, 0.00, -0.00, -1.00, 98.0, 109.3)">E</text><text xml:space="preserve" font-family="Helvetica-Bold,Helvetica" font-weight="bold" font-size="29.0" fill="#5FCAC8" transform="matrix(1.00, 0.00, -0.00, -1.00, 116.7, 109.3)">M</text><text xml:space="preserve" font-family="Helvetica-Bold,Helvetica" font-weight="bold" font-size="29.0" fill="#5FCAC8" transform="matrix(1.00, 0.00, -0.00, -1.00, 140.3, 109.3)">E</text><text xml:space="preserve" font-family="Helvetica-Bold,Helvetica" font-weight="bold" font-size="29.0" fill="#5FCAC8" transform="matrix(1.00, 0.00, -0.00, -1.00, 159.1, 109.3)">N</text><text xml:space="preserve" font-family="Helvetica-Bold,Helvetica" font-weight="bold" font-size="29.0" fill="#5FCAC8" transform="matrix(1.00, 0.00, -0.00, -1.00, 179.4, 109.3)">T</text><text xml:space="preserve" font-family="Helvetica-Bold,Helvetica" font-weight="bold" font-size="29.0" fill="#5FCAC8" transform="matrix(1.00, 0.00, -0.00, -1.00, 196.6, 109.3)">S</text><text xml:space="preserve" font-family="Helvetica-Bold,Helvetica" font-weight="bold" font-size="29.0" fill="#5FCAC8" transform="matrix(1.00, 0.00, -0.00, -1.00, 215.3, 109.3)"> </text><text xml:space="preserve" font-family="Helvetica-Bold,Helvetica" font-weight="bold" font-size="29.0" fill="#5FCAC8" transform="matrix(1.00, 0.00, -0.00, -1.00, 222.8, 109.3)">T</text><text xml:space="preserve" font-family="Helvetica-Bold,Helvetica" font-weight="bold" font-size="29.0" fill="#5FCAC8" transform="matrix(1.00, 0.00, -0.00, -1.00, 237.8, 109.3)">A</text><text xml:space="preserve" font-family="Helvetica-Bold,Helvetica" font-weight="bold" font-size="29.0" fill="#5FCAC8" transform="matrix(1.00, 0.00, -0.00, -1.00, 258.2, 109.3)">B</text><text xml:space="preserve" font-family="LucidaGrande,Lucida Grande" font-size="20.3" fill="#5FCAC8" transform="matrix(1.00, 0.00, -0.00, -1.00, 32.5, 77.7)">‣</text><text xml:space="preserve" font-family="Helvetica-Bold,Helvetica" font-weight="bold" font-size="29.0" fill="#5FCAC8" transform="matrix(1.00, 0.00, -0.00, -1.00, 62.1, 74.5)">C</text><text xml:space="preserve" font-family="Helvetica-Bold,Helvetica" font-weight="bold" font-size="29.0" fill="#5FCAC8" transform="matrix(1.00, 0.00, -0.00, -1.00, 82.4, 74.5)">O</text><text xml:space="preserve" font-family="Helvetica-Bold,Helvetica" font-weight="bold" font-size="29.0" fill="#5FCAC8" transform="matrix(1.00, 0.00, -0.00, -1.00, 104.4, 74.5)">N</text><text xml:space="preserve" font-family="Helvetica-Bold,Helvetica" font-weight="bold" font-size="29.0" fill="#5FCAC8" transform="matrix(1.00, 0.00, -0.00, -1.00, 124.8, 74.5)">S</text><text xml:space="preserve" font-family="Helvetica-Bold,Helvetica" font-weight="bold" font-size="29.0" fill="#5FCAC8" transform="matrix(1.00, 0.00, -0.00, -1.00, 143.6, 74.5)">O</text><text xml:space="preserve" font-family="Helvetica-Bold,Helvetica" font-weight="bold" font-size="29.0" fill="#5FCAC8" transform="matrix(1.00, 0.00, -0.00, -1.00, 165.5, 74.5)">L</text><text xml:space="preserve" font-family="Helvetica-Bold,Helvetica" font-weight="bold" font-size="29.0" fill="#5FCAC8" transform="matrix(1.00, 0.00, -0.00, -1.00, 182.7, 74.5)">E</text><text xml:space="preserve" font-family="Helvetica-Bold,Helvetica" font-weight="bold" font-size="29.0" fill="#5FCAC8" transform="matrix(1.00, 0.00, -0.00, -1.00, 201.5, 74.5)"> </text><text xml:space="preserve" font-family="Helvetica-Bold,Helvetica" font-weight="bold" font-size="29.0" fill="#5FCAC8" transform="matrix(1.00, 0.00, -0.00, -1.00, 208.9, 74.5)">T</text><text xml:space="preserve" font-family="Helvetica-Bold,Helvetica" font-weight="bold" font-size="29.0" fill="#5FCAC8" transform="matrix(1.00, 0.00, -0.00, -1.00, 223.9, 74.5)">A</text><text xml:space="preserve" font-family="Helvetica-Bold,Helvetica" font-weight="bold" font-size="29.0" fill="#5FCAC8" transform="matrix(1.00, 0.00, -0.00, -1.00, 244.3, 74.5)">B</text><text xml:space="preserve" font-family="LucidaGrande,Lucida Grande" font-size="20.3" fill="#5FCAC8" transform="matrix(1.00, 0.00, -0.00, -1.00, 32.5, 42.9)">‣</text><text xml:space="preserve" font-family="Helvetica-Bold,Helvetica" font-weight="bold" font-size="29.0" fill="#5FCAC8" transform="matrix(1.00, 0.00, -0.00, -1.00, 62.1, 39.8)">S</text><text xml:space="preserve" font-family="Helvetica-Bold,Helvetica" font-weight="bold" font-size="29.0" fill="#5FCAC8" transform="matrix(1.00, 0.00, -0.00, -1.00, 80.8, 39.8)">O</text><text xml:space="preserve" font-family="Helvetica-Bold,Helvetica" font-weight="bold" font-size="29.0" fill="#5FCAC8" transform="matrix(1.00, 0.00, -0.00, -1.00, 102.8, 39.8)">U</text><text xml:space="preserve" font-family="Helvetica-Bold,Helvetica" font-weight="bold" font-size="29.0" fill="#5FCAC8" transform="matrix(1.00, 0.00, -0.00, -1.00, 123.2, 39.8)">R</text><text xml:space="preserve" font-family="Helvetica-Bold,Helvetica" font-weight="bold" font-size="29.0" fill="#5FCAC8" transform="matrix(1.00, 0.00, -0.00, -1.00, 143.5, 39.8)">C</text><text xml:space="preserve" font-family="Helvetica-Bold,Helvetica" font-weight="bold" font-size="29.0" fill="#5FCAC8" transform="matrix(1.00, 0.00, -0.00, -1.00, 163.9, 39.8)">E</text><text xml:space="preserve" font-family="Helvetica-Bold,Helvetica" font-weight="bold" font-size="29.0" fill="#5FCAC8" transform="matrix(1.00, 0.00, -0.00, -1.00, 182.7, 39.8)">S</text><text xml:space="preserve" font-family="Helvetica-Bold,Helvetica" font-weight="bold" font-size="29.0" fill="#5FCAC8" transform="matrix(1.00, 0.00, -0.00, -1.00, 201.4, 39.8)"> </text><text xml:space="preserve" font-family="Helvetica-Bold,Helvetica" font-weight="bold" font-size="29.0" fill="#5FCAC8" transform="matrix(1.00, 0.00, -0.00, -1.00, 208.9, 39.8)">T</text><text xml:space="preserve" font-family="Helvetica-Bold,Helvetica" font-weight="bold" font-size="29.0" fill="#5FCAC8" transform="matrix(1.00, 0.00, -0.00, -1.00, 223.9, 39.8)">A</text><text xml:space="preserve" font-family="Helvetica-Bold,Helvetica" font-weight="bold" font-size="29.0" fill="#5FCAC8" transform="matrix(1.00, 0.00, -0.00, -1.00, 244.3, 39.8)">B</text><text xml:space="preserve" font-family="LucidaGrande,Lucida Grande" font-size="20.3" fill="#5FCAC8" transform="matrix(1.00, 0.00, -0.00, -1.00, 32.5, 8.2)">‣</text><text xml:space="preserve" font-family="Helvetica-Bold,Helvetica" font-weight="bold" font-size="29.0" fill="#5FCAC8" transform="matrix(1.00, 0.00, -0.00, -1.00, 62.1, 5.0)">N</text><text xml:space="preserve" font-family="Helvetica-Bold,Helvetica" font-weight="bold" font-size="29.0" fill="#5FCAC8" transform="matrix(1.00, 0.00, -0.00, -1.00, 82.4, 5.0)">E</text><text xml:space="preserve" font-family="Helvetica-Bold,Helvetica" font-weight="bold" font-size="29.0" fill="#5FCAC8" transform="matrix(1.00, 0.00, -0.00, -1.00, 101.2, 5.0)">T</text><text xml:space="preserve" font-family="Helvetica-Bold,Helvetica" font-weight="bold" font-size="29.0" fill="#5FCAC8" transform="matrix(1.00, 0.00, -0.00, -1.00, 118.3, 5.0)">W</text><text xml:space="preserve" font-family="Helvetica-Bold,Helvetica" font-weight="bold" font-size="29.0" fill="#5FCAC8" transform="matrix(1.00, 0.00, -0.00, -1.00, 145.1, 5.0)">O</text><text xml:space="preserve" font-family="Helvetica-Bold,Helvetica" font-weight="bold" font-size="29.0" fill="#5FCAC8" transform="matrix(1.00, 0.00, -0.00, -1.00, 167.1, 5.0)">R</text><text xml:space="preserve" font-family="Helvetica-Bold,Helvetica" font-weight="bold" font-size="29.0" fill="#5FCAC8" transform="matrix(1.00, 0.00, -0.00, -1.00, 187.5, 5.0)">K</text><text xml:space="preserve" font-family="Helvetica-Bold,Helvetica" font-weight="bold" font-size="29.0" fill="#5FCAC8" transform="matrix(1.00, 0.00, -0.00, -1.00, 207.9, 5.0)"> </text><text xml:space="preserve" font-family="Helvetica-Bold,Helvetica" font-weight="bold" font-size="29.0" fill="#5FCAC8" transform="matrix(1.00, 0.00, -0.00, -1.00, 215.3, 5.0)">T</text><text xml:space="preserve" font-family="Helvetica-Bold,Helvetica" font-weight="bold" font-size="29.0" fill="#5FCAC8" transform="matrix(1.00, 0.00, -0.00, -1.00, 230.3, 5.0)">A</text><text xml:space="preserve" font-family="Helvetica-Bold,Helvetica" font-weight="bold" font-size="29.0" fill="#5FCAC8" transform="matrix(1.00, 0.00, -0.00, -1.00, 250.7, 5.0)">B</text></g></svg>