<?xml version="1.0" encoding="UTF-8" standalone="no"?><svg xmlns="http://www.w3.org/2000/svg" xmlns:xlink="http://www.w3.org/1999/xlink" clip-rule="evenodd" stroke-miterlimit="10" viewBox="0 0 702 29"><desc>SVG generated by Keynote</desc><defs></defs><g transform="matrix(1.00, 0.00, -0.00, -1.00, 0.0, 29.0)"><text xml:space="preserve" font-family="LucidaGrande,Lucida Grande" font-size="20.3" fill="#5FCAC8" transform="matrix(1.00, 0.00, -0.00, -1.00, 0.5, 7.9)">‣</text><text xml:space="preserve" font-family="Helvetica-Bold,Helvetica" font-weight="bold" font-size="29.0" fill="#5FCAC8" transform="matrix(1.00, 0.00, -0.00, -1.00, 30.1, 4.8)">W</text><text xml:space="preserve" font-family="Helvetica-Bold,Helvetica" font-weight="bold" font-size="29.0" fill="#5FCAC8" transform="matrix(1.00, 0.00, -0.00, -1.00, 56.9, 4.8)">E</text><text xml:space="preserve" font-family="Helvetica-Bold,Helvetica" font-weight="bold" font-size="29.0" fill="#5FCAC8" transform="matrix(1.00, 0.00, -0.00, -1.00, 75.6, 4.8)">B</text><text xml:space="preserve" font-family="Helvetica-Bold,Helvetica" font-weight="bold" font-size="29.0" fill="#5FCAC8" transform="matrix(1.00, 0.00, -0.00, -1.00, 96.0, 4.8)"> </text><text xml:space="preserve" font-family="Helvetica-Bold,Helvetica" font-weight="bold" font-size="29.0" fill="#5FCAC8" transform="matrix(1.00, 0.00, -0.00, -1.00, 103.4, 4.8)">B</text><text xml:space="preserve" font-family="Helvetica-Bold,Helvetica" font-weight="bold" font-size="29.0" fill="#5FCAC8" transform="matrix(1.00, 0.00, -0.00, -1.00, 123.8, 4.8)">R</text><text xml:space="preserve" font-family="Helvetica-Bold,Helvetica" font-weight="bold" font-size="29.0" fill="#5FCAC8" transform="matrix(1.00, 0.00, -0.00, -1.00, 144.2, 4.8)">O</text><text xml:space="preserve" font-family="Helvetica-Bold,Helvetica" font-weight="bold" font-size="29.0" fill="#5FCAC8" transform="matrix(1.00, 0.00, -0.00, -1.00, 166.1, 4.8)">W</text><text xml:space="preserve" font-family="Helvetica-Bold,Helvetica" font-weight="bold" font-size="29.0" fill="#5FCAC8" transform="matrix(1.00, 0.00, -0.00, -1.00, 192.9, 4.8)">S</text><text xml:space="preserve" font-family="Helvetica-Bold,Helvetica" font-weight="bold" font-size="29.0" fill="#5FCAC8" transform="matrix(1.00, 0.00, -0.00, -1.00, 211.7, 4.8)">E</text><text xml:space="preserve" font-family="Helvetica-Bold,Helvetica" font-weight="bold" font-size="29.0" fill="#5FCAC8" transform="matrix(1.00, 0.00, -0.00, -1.00, 230.4, 4.8)">R</text><text xml:space="preserve" font-family="Helvetica-Bold,Helvetica" font-weight="bold" font-size="29.0" fill="#5FCAC8" transform="matrix(1.00, 0.00, -0.00, -1.00, 250.8, 4.8)">S</text><text xml:space="preserve" font-family="Helvetica-Bold,Helvetica" font-weight="bold" font-size="29.0" fill="#5FCAC8" transform="matrix(1.00, 0.00, -0.00, -1.00, 269.5, 4.8)"> </text><text xml:space="preserve" font-family="Helvetica-Bold,Helvetica" font-weight="bold" font-size="29.0" fill="#5FCAC8" transform="matrix(1.00, 0.00, -0.00, -1.00, 277.0, 4.8)">&amp;</text><text xml:space="preserve" font-family="Helvetica-Bold,Helvetica" font-weight="bold" font-size="29.0" fill="#5FCAC8" transform="matrix(1.00, 0.00, -0.00, -1.00, 297.4, 4.8)">&amp;</text><text xml:space="preserve" font-family="Helvetica-Bold,Helvetica" font-weight="bold" font-size="29.0" fill="#5FCAC8" transform="matrix(1.00, 0.00, -0.00, -1.00, 317.7, 4.8)"> </text><text xml:space="preserve" font-family="Helvetica-Bold,Helvetica" font-weight="bold" font-size="29.0" fill="#5FCAC8" transform="matrix(1.00, 0.00, -0.00, -1.00, 325.2, 4.8)">T</text><text xml:space="preserve" font-family="Helvetica-Bold,Helvetica" font-weight="bold" font-size="29.0" fill="#5FCAC8" transform="matrix(1.00, 0.00, -0.00, -1.00, 342.3, 4.8)">H</text><text xml:space="preserve" font-family="Helvetica-Bold,Helvetica" font-weight="bold" font-size="29.0" fill="#5FCAC8" transform="matrix(1.00, 0.00, -0.00, -1.00, 362.7, 4.8)">E</text><text xml:space="preserve" font-family="Helvetica-Bold,Helvetica" font-weight="bold" font-size="29.0" fill="#5FCAC8" transform="matrix(1.00, 0.00, -0.00, -1.00, 381.4, 4.8)">I</text><text xml:space="preserve" font-family="Helvetica-Bold,Helvetica" font-weight="bold" font-size="29.0" fill="#5FCAC8" transform="matrix(1.00, 0.00, -0.00, -1.00, 388.9, 4.8)">R</text><text xml:space="preserve" font-family="Helvetica-Bold,Helvetica" font-weight="bold" font-size="29.0" fill="#5FCAC8" transform="matrix(1.00, 0.00, -0.00, -1.00, 409.3, 4.8)"> </text><text xml:space="preserve" font-family="Helvetica-Bold,Helvetica" font-weight="bold" font-size="29.0" fill="#5FCAC8" transform="matrix(1.00, 0.00, -0.00, -1.00, 416.7, 4.8)">C</text><text xml:space="preserve" font-family="Helvetica-Bold,Helvetica" font-weight="bold" font-size="29.0" fill="#5FCAC8" transform="matrix(1.00, 0.00, -0.00, -1.00, 437.1, 4.8)">O</text><text xml:space="preserve" font-family="Helvetica-Bold,Helvetica" font-weight="bold" font-size="29.0" fill="#5FCAC8" transform="matrix(1.00, 0.00, -0.00, -1.00, 459.1, 4.8)">M</text><text xml:space="preserve" font-family="Helvetica-Bold,Helvetica" font-weight="bold" font-size="29.0" fill="#5FCAC8" transform="matrix(1.00, 0.00, -0.00, -1.00, 482.6, 4.8)">P</text><text xml:space="preserve" font-family="Helvetica-Bold,Helvetica" font-weight="bold" font-size="29.0" fill="#5FCAC8" transform="matrix(1.00, 0.00, -0.00, -1.00, 501.4, 4.8)">O</text><text xml:space="preserve" font-family="Helvetica-Bold,Helvetica" font-weight="bold" font-size="29.0" fill="#5FCAC8" transform="matrix(1.00, 0.00, -0.00, -1.00, 523.4, 4.8)">N</text><text xml:space="preserve" font-family="Helvetica-Bold,Helvetica" font-weight="bold" font-size="29.0" fill="#5FCAC8" transform="matrix(1.00, 0.00, -0.00, -1.00, 543.7, 4.8)">E</text><text xml:space="preserve" font-family="Helvetica-Bold,Helvetica" font-weight="bold" font-size="29.0" fill="#5FCAC8" transform="matrix(1.00, 0.00, -0.00, -1.00, 562.5, 4.8)">N</text><text xml:space="preserve" font-family="Helvetica-Bold,Helvetica" font-weight="bold" font-size="29.0" fill="#5FCAC8" transform="matrix(1.00, 0.00, -0.00, -1.00, 582.8, 4.8)">T</text><text xml:space="preserve" font-family="Helvetica-Bold,Helvetica" font-weight="bold" font-size="29.0" fill="#5FCAC8" transform="matrix(1.00, 0.00, -0.00, -1.00, 600.0, 4.8)"> </text><text xml:space="preserve" font-family="Helvetica-Bold,Helvetica" font-weight="bold" font-size="29.0" fill="#5FCAC8" transform="matrix(1.00, 0.00, -0.00, -1.00, 607.4, 4.8)">P</text><text xml:space="preserve" font-family="Helvetica-Bold,Helvetica" font-weight="bold" font-size="29.0" fill="#5FCAC8" transform="matrix(1.00, 0.00, -0.00, -1.00, 624.0, 4.8)">A</text><text xml:space="preserve" font-family="Helvetica-Bold,Helvetica" font-weight="bold" font-size="29.0" fill="#5FCAC8" transform="matrix(1.00, 0.00, -0.00, -1.00, 644.4, 4.8)">R</text><text xml:space="preserve" font-family="Helvetica-Bold,Helvetica" font-weight="bold" font-size="29.0" fill="#5FCAC8" transform="matrix(1.00, 0.00, -0.00, -1.00, 664.8, 4.8)">T</text><text xml:space="preserve" font-family="Helvetica-Bold,Helvetica" font-weight="bold" font-size="29.0" fill="#5FCAC8" transform="matrix(1.00, 0.00, -0.00, -1.00, 681.9, 4.8)">S</text></g></svg>